<svg class="icon"  viewBox="0 0 1024 1024" version="1.1" xmlns="http://www.w3.org/2000/svg"><path d="M512 0a512 512 0 1 1 0 1024A512 512 0 0 1 512 0z m0 109.714286a402.285714 402.285714 0 1 0 0 804.571428 402.285714 402.285714 0 0 0 0-804.571428zM548.571429 219.428571a18.285714 18.285714 0 0 1 18.285714 18.285715v219.428571h219.428571a18.285714 18.285714 0 0 1 18.285715 18.285714v73.142858a18.285714 18.285714 0 0 1-18.285715 18.285714h-219.428571v219.428571a18.285714 18.285714 0 0 1-18.285714 18.285715h-73.142858a18.285714 18.285714 0 0 1-18.285714-18.285715v-219.428571h-219.428571A18.285714 18.285714 0 0 1 219.428571 548.571429v-73.142858a18.285714 18.285714 0 0 1 18.285715-18.285714h219.428571v-219.428571A18.285714 18.285714 0 0 1 475.428571 219.428571h73.142858z" fill="#B2B2B2" /></svg>