<svg class="icon"  viewBox="0 0 1260 1024" version="1.1" xmlns="http://www.w3.org/2000/svg"><path d="M650.318769 62.779077a39.384615 39.384615 0 0 1 13.705846 13.705846l529.171693 887.965539a39.384615 39.384615 0 0 1-33.87077 59.549538H100.982154a39.384615 39.384615 0 0 1-33.870769-59.549538L596.283077 76.484923a39.384615 39.384615 0 0 1 54.035692-13.705846zM630.153846 250.486154L239.616 905.846154h781.075692L630.153846 250.486154z m39.384616 497.821538a19.692308 19.692308 0 0 1 19.692307 19.692308v78.769231a19.692308 19.692308 0 0 1-19.692307 19.692307h-78.769231a19.692308 19.692308 0 0 1-19.692308-19.692307v-78.769231a19.692308 19.692308 0 0 1 19.692308-19.692308h78.769231z m0-334.76923a19.692308 19.692308 0 0 1 19.692307 19.692307v236.307693a19.692308 19.692308 0 0 1-19.692307 19.692307h-78.769231a19.692308 19.692308 0 0 1-19.692308-19.692307v-236.307693a19.692308 19.692308 0 0 1 19.692308-19.692307h78.769231z" fill="#B2B2B2" /></svg>