<svg class="icon"  viewBox="0 0 1024 1024" version="1.1" xmlns="http://www.w3.org/2000/svg"><path d="M868.126915 927.99948v47.99994c0 12.735984-5.119994 24.959969-14.175982 33.919958-9.055989 9.023989-21.375973 14.079982-34.239958 14.079982H142.367822a48.19194 48.19194 0 0 1-48.415939-47.99994V927.99948c0 12.735984 5.119994 24.959969 14.175982 33.919958 9.087989 9.023989 21.407973 14.079982 34.239957 14.079982h677.407153c12.831984 0 25.151969-5.055994 34.239957-14.079982 9.055989-8.959989 14.143982-21.183974 14.143983-33.919958z"  /><path d="M900.126875 942.399462c0 13.151984-5.119994 25.759968-14.175982 35.071956-9.055989 9.279988-21.375973 14.527982-34.239958 14.527982H174.367782c-12.831984 0-25.151969-5.215993-34.239957-14.527982a50.239937 50.239937 0 0 1-14.175982-35.071956V49.600578c0-13.151984 5.119994-25.759968 14.175982-35.071956C149.183814 5.248633 161.503798 0.00064 174.335782 0.00064h415.615481c12.863984-0.064 25.247968 5.119994 34.367957 14.399982l261.759672 268.319665c9.087989 9.375988 14.111982 22.047972 14.047983 35.199956V942.399462z"  /><path d="M991.99876 543.99996v239.9997a47.99994 47.99994 0 0 1-47.99994 47.99994h-863.99892A47.99994 47.99994 0 0 1 31.99996 783.99966V543.99996h959.9988z"  /><path d="M243.711695 598.943891V799.99964h149.823813v-28.159965H276.671654v-60.799924h105.279869v-28.159965h-105.279869v-55.77593h112.06386v-28.159965H243.711695z m195.359756 0l67.295916 97.151879L434.559457 799.99964h40.287949l51.807936-77.727903L578.495277 799.99964h40.22395l-72.35191-103.90387 67.839915-97.151879h-40.255949l-47.295941 70.943912-47.327941-70.943912h-40.25595z m229.151714 0V799.99964H809.598988v-28.159965h-108.703864v-172.895784h-32.639959z"  /><path d="M127.96784 512v-95.99988L31.99996 512h95.96788z m767.615041 0l0.959998-95.99988L991.99876 512h-96.415879z"  /><path d="M900.126875 313.184249V320.00024H638.719202c-26.655967 0-48.31994-21.823973-48.31994-48.767939V0.00064c12.927984 0.064 25.279968 5.311993 34.335957 14.623982l261.823673 263.90367c8.863989 9.279988 13.759983 21.759973 13.535983 34.655957z"  /></svg>