<svg class="icon"  viewBox="0 0 1024 1024" version="1.1" xmlns="http://www.w3.org/2000/svg"><path d="M512 0a512 512 0 1 1 0 1024A512 512 0 0 1 512 0z m0 109.714286a402.285714 402.285714 0 1 0 0 804.571428 402.285714 402.285714 0 0 0 0-804.571428z m232.740571 221.257143a18.285714 18.285714 0 0 1 0 25.892571L589.604571 512l155.136 155.136a18.285714 18.285714 0 0 1 0 25.892571l-51.712 51.712a18.285714 18.285714 0 0 1-25.892571 0L512 589.604571l-155.136 155.136a18.285714 18.285714 0 0 1-25.892571 0l-51.712-51.712a18.285714 18.285714 0 0 1 0-25.892571L434.395429 512 279.259429 356.864a18.285714 18.285714 0 0 1 0-25.892571l51.712-51.712a18.285714 18.285714 0 0 1 25.892571 0L512 434.395429l155.136-155.136a18.285714 18.285714 0 0 1 25.892571 0l51.712 51.712z" fill="#B2B2B2" /></svg>