<svg class="icon"  viewBox="0 0 1024 1024" version="1.1" xmlns="http://www.w3.org/2000/svg"><path d="M743.862857 22.674286l168.082286 168.009143a36.571429 36.571429 0 0 1 2.121143 49.444571l-2.194286 2.267429-569.782857 569.856a36.571429 36.571429 0 0 1-25.892572 10.752H146.285714a36.571429 36.571429 0 0 1-36.571428-36.571429V620.105143a36.571429 36.571429 0 0 1 10.678857-25.819429L692.077714 22.601143a36.571429 36.571429 0 0 1 51.785143 0z m-25.892571 129.243428L219.428571 650.459429v62.829714h66.413715L782.628571 216.502857l-64.658285-64.658286zM73.142857 896h877.714286a18.285714 18.285714 0 0 1 18.285714 18.285714v73.142857a18.285714 18.285714 0 0 1-18.285714 18.285715H73.142857a18.285714 18.285714 0 0 1-18.285714-18.285715v-73.142857a18.285714 18.285714 0 0 1 18.285714-18.285714z"  /></svg>