<svg class="icon"  viewBox="0 0 1024 1024" version="1.1" xmlns="http://www.w3.org/2000/svg"><path d="M512 1024A512 512 0 1 1 512 0a512 512 0 0 1 0 1024z m0-109.714286a402.285714 402.285714 0 1 0 0-804.571428 402.285714 402.285714 0 0 0 0 804.571428z m-36.571429-310.857143A18.285714 18.285714 0 0 1 457.142857 585.142857V256a18.285714 18.285714 0 0 1 18.285714-18.285714h73.142858a18.285714 18.285714 0 0 1 18.285714 18.285714V585.142857a18.285714 18.285714 0 0 1-18.285714 18.285714h-73.142858z m0 182.857143a18.285714 18.285714 0 0 1-18.285714-18.285714v-73.142857a18.285714 18.285714 0 0 1 16.091429-18.139429l2.194285-0.146285h73.142858a18.285714 18.285714 0 0 1 18.285714 18.285714v73.142857a18.285714 18.285714 0 0 1-18.285714 18.285714h-73.142858z" fill="#B2B2B2" /></svg>