<svg class="icon"  viewBox="0 0 1024 1024" version="1.1" xmlns="http://www.w3.org/2000/svg"><path d="M651.190857 0a36.571429 36.571429 0 0 1 25.892572 10.678857l244.809142 244.809143a36.571429 36.571429 0 0 1 10.678858 25.819429V987.428571a36.571429 36.571429 0 0 1-36.571429 36.571429H128a36.571429 36.571429 0 0 1-36.571429-36.571429V36.571429a36.571429 36.571429 0 0 1 36.571429-36.571429h523.190857zM603.428571 109.714286h-402.285714v804.571428h621.714286v-585.142857h-182.857143a36.571429 36.571429 0 0 1-36.571429-36.571428V109.714286z m-174.811428 292.571428a18.285714 18.285714 0 0 1 14.994286 7.826286L512 507.757714l68.461714-97.645714A18.285714 18.285714 0 0 1 595.382857 402.285714h106.861714a9.142857 9.142857 0 0 1 7.533715 14.409143L578.925714 603.428571l130.779429 186.733715a9.142857 9.142857 0 0 1-7.460572 14.409143h-106.788571a18.285714 18.285714 0 0 1-15.067429-7.826286L512 699.099429l-68.388571 97.645714A18.285714 18.285714 0 0 1 428.617143 804.571429H321.828571a9.142857 9.142857 0 0 1-7.533714-14.409143L445.074286 603.428571 314.221714 416.694857a9.142857 9.142857 0 0 1 7.460572-14.409143h106.788571z" fill="#B2B2B2" /></svg>