<svg class="icon"  viewBox="0 0 1024 1024" version="1.1" xmlns="http://www.w3.org/2000/svg"><path d="M651.190857 0a36.571429 36.571429 0 0 1 25.892572 10.678857l244.809142 244.809143a36.571429 36.571429 0 0 1 10.678858 25.819429V987.428571a36.571429 36.571429 0 0 1-36.571429 36.571429H128a36.571429 36.571429 0 0 1-36.571429-36.571429V36.571429a36.571429 36.571429 0 0 1 36.571429-36.571429h523.190857zM603.428571 109.714286h-402.285714v804.571428h621.714286v-585.142857h-182.857143a36.571429 36.571429 0 0 1-36.571429-36.571428V109.714286z m91.428572 292.571428a18.285714 18.285714 0 0 1 18.285714 18.285715V694.857143a18.285714 18.285714 0 0 1-18.285714 18.285714H420.571429V804.571429a18.285714 18.285714 0 0 1-18.285715 18.285714h-73.142857a18.285714 18.285714 0 0 1-18.285714-18.285714V420.571429a18.285714 18.285714 0 0 1 18.285714-18.285715h365.714286zM420.571429 512v91.428571h182.857142V512h-182.857142z"  /></svg>