<svg class="icon"  viewBox="0 0 1024 1024" version="1.1" xmlns="http://www.w3.org/2000/svg"><path d="M651.190857 0a36.571429 36.571429 0 0 1 25.892572 10.678857l244.809142 244.809143a36.571429 36.571429 0 0 1 10.678858 25.819429V987.428571a36.571429 36.571429 0 0 1-36.571429 36.571429H128a36.571429 36.571429 0 0 1-36.571429-36.571429V36.571429a36.571429 36.571429 0 0 1 36.571429-36.571429h523.190857zM603.428571 109.714286h-402.285714v804.571428h621.714286v-585.142857h-182.857143a36.571429 36.571429 0 0 1-36.571429-36.571428V109.714286z m-201.142857 292.571428a18.285714 18.285714 0 0 1 18.285715 18.285715v228.864l78.482285-78.555429a18.285714 18.285714 0 0 1 25.892572 0L603.428571 649.508571V420.571429a18.285714 18.285714 0 0 1 18.285715-18.285715h73.142857a18.285714 18.285714 0 0 1 18.285714 18.285715v365.714285a18.285714 18.285714 0 0 1-18.285714 18.285715H611.035429a18.285714 18.285714 0 0 1-12.946286-5.339429L512 713.142857l-86.089143 86.089143a18.285714 18.285714 0 0 1-12.946286 5.339429H329.142857a18.285714 18.285714 0 0 1-18.285714-18.285715v-365.714285a18.285714 18.285714 0 0 1 18.285714-18.285715h73.142857z"  /></svg>