<svg class="icon"  viewBox="0 0 1024 1024" version="1.1" xmlns="http://www.w3.org/2000/svg"><path d="M658.797714 0a18.285714 18.285714 0 0 1 12.946286 5.339429l255.488 255.488a18.285714 18.285714 0 0 1 5.339429 12.946285V987.428571a36.571429 36.571429 0 0 1-36.571429 36.571429H128a36.571429 36.571429 0 0 1-36.571429-36.571429V36.571429a36.571429 36.571429 0 0 1 36.571429-36.571429h530.797714zM603.428571 109.714286h-402.285714v804.571428h621.714286v-585.142857h-182.857143a36.571429 36.571429 0 0 1-36.571429-36.571428V109.714286zM694.857143 676.571429a18.285714 18.285714 0 0 1 18.285714 18.285714v73.142857a18.285714 18.285714 0 0 1-18.285714 18.285714h-365.714286a18.285714 18.285714 0 0 1-18.285714-18.285714v-73.142857a18.285714 18.285714 0 0 1 18.285714-18.285714h365.714286z m0-219.428572a18.285714 18.285714 0 0 1 18.285714 18.285714v73.142858a18.285714 18.285714 0 0 1-18.285714 18.285714h-365.714286a18.285714 18.285714 0 0 1-18.285714-18.285714v-73.142858a18.285714 18.285714 0 0 1 18.285714-18.285714h365.714286z m-201.142857-219.428571A18.285714 18.285714 0 0 1 512 256v73.142857a18.285714 18.285714 0 0 1-18.285714 18.285714H329.142857a18.285714 18.285714 0 0 1-18.285714-18.285714v-73.142857a18.285714 18.285714 0 0 1 18.285714-18.285714h164.571429z" fill="#B2B2B2" /></svg>