<svg class="icon" style="width: 1em;height: 1em;vertical-align: middle;fill: currentColor;overflow: hidden;" viewBox="0 0 1024 1024" version="1.1" xmlns="http://www.w3.org/2000/svg"><path d="M280.372607 78.767413c-27.765513 0-50.292993 21.582271-50.292993 48.245041V945.208957l243.194387-166.789997a103.972985 103.972985 0 0 1 116.812074 0L833.280463 945.208957V127.012454c0-26.662769-22.52748-48.24504-50.292993-48.245041H280.41199z m-15.950401-78.767413h534.515665C857.974047 0 905.82525 45.960786 905.82525 102.633939v870.025461c0 19.219249-11.184973 36.823766-28.986408 45.606332a55.334108 55.334108 0 0 1-55.531026-3.820219l-258.554033-177.344831a55.25534 55.25534 0 0 0-62.147489 0l-258.632801 177.344831c-16.265471 11.106205-37.690207 12.602786-55.452259 3.780836A51.120051 51.120051 0 0 1 157.534826 972.6594V102.633939C157.534826 45.921402 205.38603 0 264.422206 0z" fill="#000000" /></svg>