<svg class="icon"  viewBox="0 0 1024 1024" version="1.1" xmlns="http://www.w3.org/2000/svg"><path d="M912.822857 155.940571a292.571429 292.571429 0 0 1 4.681143 409.014858l-4.681143 4.754285-374.930286 375.003429a36.571429 36.571429 0 0 1-51.712 0L111.177143 569.709714A292.571429 292.571429 0 0 1 512 143.798857a292.571429 292.571429 0 0 1 400.822857 12.141714z m-77.531428 77.604572a182.857143 182.857143 0 0 0-246.345143-11.190857l-4.096 3.510857L512 290.450286l-72.777143-64.585143a182.857143 182.857143 0 0 0-254.317714 262.363428l3.876571 3.949715L512 815.396571l322.340571-322.340571 3.803429-3.949714a182.857143 182.857143 0 0 0-2.925714-255.561143z" fill="#B2B2B2" /></svg>