<svg class="icon"  viewBox="0 0 1228 1024" version="1.1" xmlns="http://www.w3.org/2000/svg"><path d="M653.7216 90.5216L581.3248 18.1248a25.6 25.6 0 0 0-33.792-2.1504l-2.4576 2.048-457.728 457.728a51.2 51.2 0 0 0 0 72.4992l457.728 457.728a25.6 25.6 0 0 0 33.792 2.048l2.4576-2.048 72.3968-72.4992a25.6 25.6 0 0 0 0-36.1472L268.288 512l385.3312-385.3312a25.6 25.6 0 0 0 0-36.1472z"  /><path d="M1159.4752 90.5216l-72.3968-72.3968a25.6 25.6 0 0 0-33.792-2.1504l-2.3552 2.048-457.728 457.728a51.2 51.2 0 0 0 0 72.4992l457.728 457.728a25.6 25.6 0 0 0 33.792 2.048l2.3552-2.048 72.3968-72.4992a25.6 25.6 0 0 0 0-36.1472L774.2464 512l385.2288-385.3312a25.6 25.6 0 0 0 0-36.1472z"  /></svg>