<svg class="icon"  viewBox="0 0 1024 1024" version="1.1" xmlns="http://www.w3.org/2000/svg"><path d="M512 0a295.384615 295.384615 0 0 1 295.384615 295.384615v118.153847H905.846154a39.384615 39.384615 0 0 1 39.384615 39.384615v531.692308a39.384615 39.384615 0 0 1-39.384615 39.384615H118.153846a39.384615 39.384615 0 0 1-39.384615-39.384615V452.923077a39.384615 39.384615 0 0 1 39.384615-39.384615h98.461539v-118.153847A295.384615 295.384615 0 0 1 512 0z m315.076923 531.692308H196.923077v374.153846h630.153846V531.692308z m-275.692308 78.76923a19.692308 19.692308 0 0 1 19.692308 19.692308v177.230769a19.692308 19.692308 0 0 1-19.692308 19.692308h-78.76923a19.692308 19.692308 0 0 1-19.692308-19.692308V630.153846a19.692308 19.692308 0 0 1 19.692308-19.692308h78.76923z m-34.185846-492.228923L512 118.153846a177.230769 177.230769 0 0 0-177.152 172.032L334.769231 413.538462h354.461538v-118.153847a177.230769 177.230769 0 0 0-172.032-177.152z" fill="#B2B2B2" /></svg>