<svg class="icon"  viewBox="0 0 1024 1024" version="1.1" xmlns="http://www.w3.org/2000/svg"><path d="M619.7248 870.4a8.533333 8.533333 0 0 1 8.328533 10.4448l-1.501866 6.075733a119.466667 119.466667 0 0 1-226.645334 7.714134 120.832 120.832 0 0 1-3.8912-13.789867 8.533333 8.533333 0 0 1 6.7584-10.308267l1.501867-0.136533h215.4496zM512 0a375.466667 375.466667 0 0 1 375.466667 375.466667v341.333333h34.133333a17.066667 17.066667 0 0 1 17.066667 17.066667v68.266666A17.066667 17.066667 0 0 1 921.6 819.2H102.4a17.066667 17.066667 0 0 1-17.066667-17.066667v-68.266666A17.066667 17.066667 0 0 1 102.4 716.8h34.133333v-341.333333A375.466667 375.466667 0 0 1 512 0z m0 102.4a273.066667 273.066667 0 0 0-273.066667 267.6736V716.8h546.133334v-341.333333a273.066667 273.066667 0 0 0-267.6736-273.066667H512z" fill="#B2B2B2" /></svg>