<svg class="icon"  viewBox="0 0 1024 1024" version="1.1" xmlns="http://www.w3.org/2000/svg"><path d="M396.083355 881.049791c1.501865 6.348792 2.935463 11.332252 4.300794 14.882113a119.466507 119.466507 0 0 0 224.323967-2.867196c1.023999-3.003729 2.18453-7.031457 3.345063-12.083184a8.601589 8.601589 0 0 0-6.280525-10.308253 13.448515 13.448515 0 0 0-4.095995-0.273066H406.459874a8.874655 8.874655 0 0 0-10.308253 6.553591 9.079455 9.079455 0 0 0 0 4.095995zM899.54935 18.296808L54.818743 863.095681a17.066644 17.066644 0 0 0 0 24.098101l48.264469 48.264469a17.066644 17.066644 0 0 0 24.166368 0L243.507558 819.200273H921.599454a17.066644 17.066644 0 0 0 17.066644-17.066644v-68.266575a17.066644 17.066644 0 0 0-17.066644-17.066644h-34.133288v-341.332879c0-58.436189-13.380249-113.732115-37.137017-163.088849l121.651038-121.651038a17.066644 17.066644 0 0 0 0-24.166367L923.647451 18.296808a17.066644 17.066644 0 0 0-24.166368 0z m-127.79503 272.656703c8.123723 24.985567 12.697583 51.541265 13.243716 79.189227L785.066303 375.467531v341.332879H345.907421l425.846899-425.846899zM512 0.001365a375.466166 375.466166 0 0 0-375.466166 375.466166v288.699349a8.533322 8.533322 0 0 0 14.609047 6.007458l82.807356-82.807356A17.066644 17.066644 0 0 0 238.933697 575.283798V375.467531a273.066303 273.066303 0 0 1 267.673244-273.066302H512a271.769238 271.769238 0 0 1 145.885672 42.325277 16.520511 16.520511 0 0 0 20.753039-2.047998l49.766334-49.698067a16.520511 16.520511 0 0 0-1.706665-25.531699A373.691235 373.691235 0 0 0 512 0.001365z"  /></svg>