<svg class="icon"  viewBox="0 0 1194 1024" version="1.1" xmlns="http://www.w3.org/2000/svg"><path d="M1130.666667 0a42.666667 42.666667 0 0 1 42.666666 42.666667v938.666666a42.666667 42.666667 0 0 1-42.666666 42.666667H64a42.666667 42.666667 0 0 1-42.666667-42.666667V42.666667a42.666667 42.666667 0 0 1 42.666667-42.666667h1066.666667z m-85.333334 469.333333H149.333333v426.666667h896v-426.666667z m0-341.333333H149.333333V341.333333h896V128zM341.333333 170.666667a21.333333 21.333333 0 0 1 21.333334 21.333333v85.333333A21.333333 21.333333 0 0 1 341.333333 298.666667H256a21.333333 21.333333 0 0 1-21.333333-21.333334v-85.333333A21.333333 21.333333 0 0 1 256 170.666667h85.333333z m213.333334 0a21.333333 21.333333 0 0 1 21.333333 21.333333v85.333333a21.333333 21.333333 0 0 1-21.333333 21.333334h-85.333334a21.333333 21.333333 0 0 1-21.333333-21.333334v-85.333333A21.333333 21.333333 0 0 1 469.333333 170.666667h85.333334zM768 170.666667a21.333333 21.333333 0 0 1 21.333333 21.333333v85.333333A21.333333 21.333333 0 0 1 768 298.666667H682.666667a21.333333 21.333333 0 0 1-21.333334-21.333334v-85.333333A21.333333 21.333333 0 0 1 682.666667 170.666667h85.333333z" fill="#B2B2B2" /></svg>