<svg class="icon"  viewBox="0 0 1024 1024" version="1.1" xmlns="http://www.w3.org/2000/svg"><path d="M830.025143 25.892571l168.082286 168.082286a36.571429 36.571429 0 0 1 0 51.712L248.685714 995.035429a36.571429 36.571429 0 0 1-25.892571 10.678857H54.857143a36.571429 36.571429 0 0 1-36.571429-36.571429v-168.155428a36.571429 36.571429 0 0 1 10.678857-25.819429L778.24 25.892571a36.571429 36.571429 0 0 1 51.785143 0zM669.403429 289.792L128 831.268571v64.731429h64.585143l541.476571-541.549714-64.658285-64.658286z m134.729142-134.582857l-57.124571 57.051428 64.658286 64.658286 57.124571-57.051428-64.658286-64.731429z" fill="#B2B2B2" /></svg>