<svg class="icon"  viewBox="0 0 1194 1024" version="1.1" xmlns="http://www.w3.org/2000/svg"><path d="M1152 21.333333a42.666667 42.666667 0 0 1 42.666667 42.666667v896a42.666667 42.666667 0 0 1-42.666667 42.666667H42.666667a42.666667 42.666667 0 0 1-42.666667-42.666667V64a42.666667 42.666667 0 0 1 42.666667-42.666667h1109.333333z m-85.333333 128h-938.666667v725.333334h0.085333l555.349334-555.264a42.666667 42.666667 0 0 1 60.330666 0L1066.666667 642.304V149.333333zM713.557333 470.272L308.992 874.666667H1066.666667v-51.285334L713.557333 470.272zM341.333333 234.666667a106.666667 106.666667 0 1 1 0 213.333333 106.666667 106.666667 0 0 1 0-213.333333z" fill="#B2B2B2" /></svg>