<svg class="icon"  viewBox="0 0 1024 1024" version="1.1" xmlns="http://www.w3.org/2000/svg"><path d="M512 0a512 512 0 1 1 0 1024A512 512 0 0 1 512 0z m0 109.714286a402.285714 402.285714 0 1 0 0 804.571428 402.285714 402.285714 0 0 0 0-804.571428z m36.571429 585.142857a18.285714 18.285714 0 0 1 18.285714 18.285714v73.142857a18.285714 18.285714 0 0 1-18.285714 18.285715h-73.142858a18.285714 18.285714 0 0 1-18.285714-18.285715v-73.142857a18.285714 18.285714 0 0 1 18.285714-18.285714h73.142858zM512 219.501714a188.562286 188.562286 0 0 1 54.857143 369.078857v14.921143a18.285714 18.285714 0 0 1-18.285714 18.285715h-73.142858a18.285714 18.285714 0 0 1-18.285714-18.285715V512a18.285714 18.285714 0 0 1 18.285714-18.285714h38.912l1.609143-0.073143a85.723429 85.723429 0 1 0-81.334857-122.587429 69.705143 69.705143 0 0 0-3.364571 9.216 18.285714 18.285714 0 0 1-20.114286 12.726857l-66.56-9.728a18.285714 18.285714 0 0 1-15.36-20.772571l0.292571-1.609143 2.048-7.826286A188.708571 188.708571 0 0 1 512 219.428571z" fill="#B2B2B2" /></svg>