<svg class="icon"  viewBox="0 0 1228 1024" version="1.1" xmlns="http://www.w3.org/2000/svg"><path d="M575.0784 933.4784l72.3968 72.3968a25.6 25.6 0 0 0 33.792 2.1504l2.4576-2.048 457.728-457.728a51.2 51.2 0 0 0 0-72.4992L683.6224 18.0224a25.6 25.6 0 0 0-33.792-2.048l-2.4576 2.048-72.3968 72.4992a25.6 25.6 0 0 0 0 36.1472L960.512 512 575.0784 897.3312a25.6 25.6 0 0 0 0 36.1472z"  /><path d="M69.3248 933.4784l72.3968 72.3968a25.6 25.6 0 0 0 33.792 2.1504l2.3552-2.048 457.728-457.728a51.2 51.2 0 0 0 0-72.4992L177.8688 18.0224a25.6 25.6 0 0 0-33.792-2.048l-2.3552 2.048-72.3968 72.4992a25.6 25.6 0 0 0 0 36.1472L454.5536 512 69.3248 897.3312a25.6 25.6 0 0 0 0 36.1472z"  /></svg>