<svg class="icon"  viewBox="0 0 1170 1024" version="1.1" xmlns="http://www.w3.org/2000/svg"><path d="M731.428571 0a18.285714 18.285714 0 0 1 18.285715 18.285714v126.537143c25.161143 11.264 49.005714 25.088 71.094857 41.106286l109.641143-63.341714a18.285714 18.285714 0 0 1 24.941714 6.729142l146.285714 253.366858a18.285714 18.285714 0 0 1-6.656 25.014857l-109.714285 63.268571a407.04 407.04 0 0 1 0 82.066286l109.714285 63.268571c8.777143 5.12 11.702857 16.237714 6.656 25.014857l-146.285714 253.366858a18.285714 18.285714 0 0 1-24.941714 6.729142l-109.714286-63.341714a401.846857 401.846857 0 0 1-70.948571 41.106286l-0.073143 126.537143A18.285714 18.285714 0 0 1 731.428571 1024H438.857143a18.285714 18.285714 0 0 1-18.285714-18.285714v-126.537143a401.846857 401.846857 0 0 1-71.094858-41.106286l-109.641142 63.341714a18.285714 18.285714 0 0 1-24.941715-6.729142l-146.285714-253.366858a18.285714 18.285714 0 0 1 6.656-25.014857l109.714286-63.268571a407.04 407.04 0 0 1 0-82.066286l-109.714286-63.268571a18.285714 18.285714 0 0 1-7.606857-23.113143l0.950857-1.901714 146.285714-253.366858a18.285714 18.285714 0 0 1 24.941715-6.729142l109.714285 63.341714c22.089143-16.018286 45.860571-29.842286 70.948572-41.106286L420.571429 18.285714A18.285714 18.285714 0 0 1 438.857143 0h292.571428zM640 109.714286h-109.714286v106.057143l-64.804571 29.110857a291.84 291.84 0 0 0-43.446857 24.137143l-8.192 5.778285-57.636572 41.691429L264.192 263.314286l-54.857143 95.085714 91.867429 53.028571-7.094857 70.582858a297.325714 297.325714 0 0 0-0.877715 50.029714l0.877715 9.947428 7.094857 70.582858-91.867429 53.028571 54.857143 95.085714 92.013714-53.174857 57.636572 41.691429c13.458286 9.728 27.794286 18.285714 42.642285 25.6l8.996572 4.315428 64.804571 29.037715v106.057142h109.714286v-106.057142l64.804571-29.037715a291.84 291.84 0 0 0 43.446858-24.137143l8.192-5.778285 57.636571-41.691429 92.013714 53.101714 54.857143-95.012571-91.867428-53.028571 7.094857-70.582858a297.325714 297.325714 0 0 0 0.877714-50.029714l-0.877714-9.947428-7.094857-70.509715 91.867428-53.174857-54.857143-95.012571-92.013714 53.174857-57.636571-41.691429a292.425143 292.425143 0 0 0-42.642286-25.6l-8.996572-4.315428-64.804571-29.037715V109.714286zM585.142857 329.142857a182.857143 182.857143 0 1 1 0 365.714286 182.857143 182.857143 0 0 1 0-365.714286zM585.142857 438.857143a73.142857 73.142857 0 1 0 0 146.285714 73.142857 73.142857 0 0 0 0-146.285714z" fill="#B2B2B2" /></svg>