<svg class="icon"  viewBox="0 0 1024 1024" version="1.1" xmlns="http://www.w3.org/2000/svg"><path d="M868.714333 706.834938l72.794536 42.075241a18.198634 18.198634 0 0 1 0 31.520034L528.108703 1019.123494a36.397268 36.397268 0 0 1-36.397268 0L78.311269 780.430213a18.198634 18.198634 0 0 1 0-31.520034l72.794535-42.002447a18.198634 18.198634 0 0 1 18.198634 0L509.910069 903.525772l340.605631-196.61804a18.198634 18.198634 0 0 1 18.198633 0z m0-252.597038l72.794536 42.002447a18.198634 18.198634 0 0 1 0 31.520034L528.108703 766.453662a36.397268 36.397268 0 0 1-36.397268 0L78.311269 527.687586a18.198634 18.198634 0 0 1 0-31.447239l72.794535-42.002447a18.198634 18.198634 0 0 1 18.198634 0L509.910069 650.783146l340.605631-196.690835a18.198634 18.198634 0 0 1 18.198633 0zM525.269716 3.348549l2.838987 1.45589 413.400166 238.620487a18.198634 18.198634 0 0 1 0 31.520034L528.108703 513.78383a36.397268 36.397268 0 0 1-36.397268 0L78.311269 274.94496a18.198634 18.198634 0 0 1 0-31.447239L491.711435 4.877234a36.397268 36.397268 0 0 1 33.485486-1.455891zM509.910069 120.474956L269.396924 259.294135 509.910069 398.186108l240.513144-138.891973L509.910069 120.474956z"  /></svg>