<svg class="icon"  viewBox="0 0 1024 1024" version="1.1" xmlns="http://www.w3.org/2000/svg"><path d="M520.192 16.603429l153.014857 310.125714 342.162286 49.664a9.142857 9.142857 0 0 1 5.12 15.579428l-247.661714 241.371429 58.514285 340.772571a9.142857 9.142857 0 0 1-13.312 9.654858L512 822.857143l-306.029714 160.914286a9.142857 9.142857 0 0 1-13.312-9.654858l58.514285-340.845714L3.510857 392.045714a9.142857 9.142857 0 0 1 5.12-15.579428l342.162286-49.737143L503.808 16.603429a9.142857 9.142857 0 0 1 16.384 0z m80.164571 410.331428L512 247.954286 423.643429 426.934857 226.011429 455.68l142.994285 139.337143-33.718857 196.754286L512 698.953143l176.713143 92.891428-33.718857-196.754285 142.921143-139.337143-197.485715-28.745143z"  /></svg>