<svg class="icon"  viewBox="0 0 1024 1024" version="1.1" xmlns="http://www.w3.org/2000/svg"><path d="M512 0a512 512 0 1 1 0 1024A512 512 0 0 1 512 0z m0 109.714286a402.285714 402.285714 0 1 0 0 804.571428 402.285714 402.285714 0 0 0 0-804.571428z m54.857143 146.285714v237.714286h201.142857a18.285714 18.285714 0 0 1 18.285714 18.285714v73.142857a18.285714 18.285714 0 0 1-18.285714 18.285714H493.714286a36.571429 36.571429 0 0 1-36.571429-36.571428V256a18.285714 18.285714 0 0 1 18.285714-18.285714h73.142858a18.285714 18.285714 0 0 1 18.285714 18.285714z"  /></svg>