<svg class="icon"  viewBox="0 0 1024 1024" version="1.1" xmlns="http://www.w3.org/2000/svg"><path d="M512 0a274.285714 274.285714 0 0 1 274.285714 274.285714v54.857143a18.285714 18.285714 0 0 1-18.285714 18.285714h-73.142857a18.285714 18.285714 0 0 1-18.285714-18.285714v-54.857143a164.571429 164.571429 0 0 0-159.744-164.498285L512 109.714286a164.571429 164.571429 0 0 0-164.498286 159.744l-0.073143 4.827428v182.857143H877.714286a36.571429 36.571429 0 0 1 36.571428 36.571429v493.714285a36.571429 36.571429 0 0 1-36.571428 36.571429H146.285714a36.571429 36.571429 0 0 1-36.571428-36.571429V493.714286a36.571429 36.571429 0 0 1 36.571428-36.571429h91.428572v-182.857143A274.285714 274.285714 0 0 1 512 0z m292.571429 566.857143H219.428571v347.428571h585.142858V566.857143z m-256 73.142857a18.285714 18.285714 0 0 1 18.285714 18.285714v164.571429a18.285714 18.285714 0 0 1-18.285714 18.285714h-73.142858a18.285714 18.285714 0 0 1-18.285714-18.285714V658.285714a18.285714 18.285714 0 0 1 18.285714-18.285714h73.142858z" fill="#B2B2B2" /></svg>