<svg class="icon"  viewBox="0 0 1024 1024" version="1.1" xmlns="http://www.w3.org/2000/svg"><path d="M512 0a512 512 0 0 1 265.728 949.76l-2.340571 1.389714a500.004571 500.004571 0 0 1-89.380572 42.569143 503.442286 503.442286 0 0 1-135.899428 28.891429A516.608 516.608 0 0 1 512 1024l-2.925714-0.073143-14.628572-0.219428L512 1024a520.192 520.192 0 0 1-137.874286-18.797714 507.830857 507.830857 0 0 1-193.609143-102.985143 514.706286 514.706286 0 0 1-68.754285-70.948572l5.339428 6.582858a514.413714 514.413714 0 0 1-11.922285-14.994286A512 512 0 0 1 512 0z m0 731.428571a400.822857 400.822857 0 0 0-251.318857 88.064l-4.022857 3.437715a403.968 403.968 0 0 0 50.322285 35.328l-9.216-5.705143c5.558857 3.510857 11.190857 6.875429 16.969143 10.093714l-7.753143-4.388571c5.193143 3.072 10.459429 6.070857 15.872 8.923428l-8.118857-4.534857a401.261714 401.261714 0 0 0 47.542857 22.893714l-12.361142-5.266285c5.558857 2.486857 11.190857 4.827429 16.896 7.021714l-4.534858-1.755429c5.924571 2.340571 11.995429 4.608 18.066286 6.729143l-13.531428-4.973714c6.363429 2.486857 12.8 4.754286 19.236571 6.875429L380.342857 892.342857a400.237714 400.237714 0 0 0 44.909714 12.653714l-4.315428-0.950857c6.290286 1.462857 12.653714 2.706286 19.017143 3.876572l-14.628572-2.925715c6.290286 1.389714 12.726857 2.633143 19.236572 3.730286l-4.608-0.804571a403.236571 403.236571 0 0 0 47.762285 5.705143l-6.144-0.438858c7.021714 0.585143 14.043429 0.877714 21.138286 1.097143L512 914.285714l17.700571-0.365714a406.674286 406.674286 0 0 0 19.309715-1.316571l-12.068572 0.950857c5.705143-0.365714 11.337143-0.877714 16.969143-1.462857l-4.900571 0.512c6.948571-0.658286 13.897143-1.462857 20.699428-2.413715l-15.798857 1.974857c5.997714-0.658286 12.068571-1.462857 17.993143-2.340571l-2.194286 0.365714a401.481143 401.481143 0 0 0 40.886857-8.045714l-1.901714 0.438857c6.217143-1.536 12.434286-3.218286 18.578286-5.12l-16.676572 4.681143c6.217143-1.609143 12.434286-3.291429 18.578286-5.12l-1.901714 0.512a399.872 399.872 0 0 0 53.394286-20.187429l-9.728 4.388572c4.827429-2.194286 9.581714-4.315429 14.336-6.582857l-4.534858 2.194285c5.12-2.413714 10.24-4.900571 15.286858-7.460571l-10.752 5.266286c6.070857-2.925714 11.995429-5.924571 17.92-9.142857l-7.168 3.876571c5.12-2.633143 10.093714-5.339429 14.994285-8.192l-7.826285 4.388571c5.12-2.779429 10.020571-5.632 14.994285-8.557714l-7.168 4.169143a400.822857 400.822857 0 0 0 13.677715-8.118857l-6.582858 3.949714a402.651429 402.651429 0 0 0 28.013715-18.285714l-7.533715 5.193143c4.534857-3.072 8.996571-6.290286 13.458286-9.581715l-5.851428 4.388572c4.754286-3.437714 9.435429-7.021714 14.043428-10.605714l-8.192 6.217142c5.12-3.876571 10.24-7.826286 15.286857-11.922285l-4.022857-3.437715a400.749714 400.749714 0 0 0-243.565714-87.990857L512 731.428571z m0-621.714285a402.285714 402.285714 0 0 0-329.874286 632.539428A509.732571 509.732571 0 0 1 512 621.714286c125.732571 0 240.859429 45.348571 329.947429 120.466285A402.285714 402.285714 0 0 0 512 109.714286z m0 54.857143a201.142857 201.142857 0 1 1 0 402.285714 201.142857 201.142857 0 0 1 0-402.285714z m0 109.714285a91.428571 91.428571 0 1 0 0 182.857143 91.428571 91.428571 0 0 0 0-182.857143z" fill="#B2B2B2" /></svg>