<svg class="icon"  viewBox="0 0 1024 1024" version="1.1" xmlns="http://www.w3.org/2000/svg"><path d="M512 0a512 512 0 1 1 0 1024A512 512 0 0 1 512 0z m36.571429 219.428571h-73.142858a18.285714 18.285714 0 0 0-18.139428 16.091429l-0.146286 2.194286v219.428571h-219.428571a18.285714 18.285714 0 0 0-18.139429 16.091429L219.428571 475.428571v73.142858a18.285714 18.285714 0 0 0 16.091429 18.139428l2.194286 0.146286h219.428571v219.428571a18.285714 18.285714 0 0 0 16.091429 18.139429L475.428571 804.571429h73.142858a18.285714 18.285714 0 0 0 18.139428-16.091429l0.146286-2.194286v-219.428571h219.428571a18.285714 18.285714 0 0 0 18.139429-16.091429L804.571429 548.571429v-73.142858a18.285714 18.285714 0 0 0-16.091429-18.139428l-2.194286-0.146286h-219.428571v-219.428571a18.285714 18.285714 0 0 0-16.091429-18.139429L548.571429 219.428571z"  /></svg>