<svg class="icon"  viewBox="0 0 1024 1024" version="1.1" xmlns="http://www.w3.org/2000/svg"><path d="M548.571429 54.857143a18.285714 18.285714 0 0 1 18.285714 18.285714v384H950.857143a18.285714 18.285714 0 0 1 18.285714 18.285714v73.142858a18.285714 18.285714 0 0 1-18.285714 18.285714H566.857143V950.857143a18.285714 18.285714 0 0 1-18.285714 18.285714h-73.142858a18.285714 18.285714 0 0 1-18.285714-18.285714V566.857143H73.142857a18.285714 18.285714 0 0 1-18.285714-18.285714v-73.142858A18.285714 18.285714 0 0 1 73.142857 457.142857h384V73.142857A18.285714 18.285714 0 0 1 475.428571 54.857143h73.142858z" fill="#B2B2B2" /></svg>