<svg class="icon"  viewBox="0 0 1260 1024" version="1.1" xmlns="http://www.w3.org/2000/svg"><path d="M650.318769 62.779077a39.384615 39.384615 0 0 1 13.705846 13.705846l529.171693 887.965539a39.384615 39.384615 0 0 1-33.87077 59.549538H100.982154a39.384615 39.384615 0 0 1-33.870769-59.549538L596.283077 76.484923a39.384615 39.384615 0 0 1 54.035692-13.705846zM669.538462 748.307692h-78.769231a19.692308 19.692308 0 0 0-19.534769 17.329231l-0.157539 2.363077v78.769231a19.692308 19.692308 0 0 0 17.329231 19.534769L590.769231 866.461538h78.769231a19.692308 19.692308 0 0 0 19.534769-17.32923l0.157538-2.363077v-78.769231a19.692308 19.692308 0 0 0-17.329231-19.534769L669.538462 748.307692z m0-334.76923h-78.769231a19.692308 19.692308 0 0 0-19.534769 17.32923l-0.157539 2.363077v236.307693a19.692308 19.692308 0 0 0 17.329231 19.534769l2.363077 0.157538h78.769231a19.692308 19.692308 0 0 0 19.534769-17.329231l0.157538-2.363076v-236.307693a19.692308 19.692308 0 0 0-17.329231-19.534769L669.538462 413.538462z" fill="#B2B2B2" /></svg>