<svg class="icon"  viewBox="0 0 1024 1024" version="1.1" xmlns="http://www.w3.org/2000/svg"><path d="M558.545455 0a23.272727 23.272727 0 0 1 23.272727 23.272727v715.869091l280.482909-280.482909a23.272727 23.272727 0 0 1 32.861091 0l65.815273 65.815273a23.272727 23.272727 0 0 1 1.954909 30.72l-1.861819 2.141091-416.116363 416.116363a46.545455 46.545455 0 0 1-65.908364 0l-416.116363-416.116363a23.272727 23.272727 0 0 1-1.861819-30.72l1.861819-2.141091 65.908363-65.815273a23.272727 23.272727 0 0 1 32.861091 0L442.181818 739.048727V23.272727A23.272727 23.272727 0 0 1 465.454545 0h93.09091z"  /></svg>