<svg class="icon"  viewBox="0 0 1024 1024" version="1.1" xmlns="http://www.w3.org/2000/svg"><path d="M558.545455 1024a23.272727 23.272727 0 0 0 23.272727-23.272727V284.858182l280.482909 280.482909a23.272727 23.272727 0 0 0 32.861091 0l65.815273-65.815273a23.272727 23.272727 0 0 0 1.954909-30.72l-1.861819-2.141091-416.116363-416.116363a46.545455 46.545455 0 0 0-65.908364 0l-416.116363 416.116363a23.272727 23.272727 0 0 0-1.861819 30.72l1.861819 2.141091 65.908363 65.815273a23.272727 23.272727 0 0 0 32.861091 0L442.181818 284.951273v715.776c0 12.846545 10.426182 23.272727 23.272727 23.272727h93.09091z"  /></svg>