<svg class="icon"  viewBox="0 0 1024 1024" version="1.1" xmlns="http://www.w3.org/2000/svg"><path d="M509.732571 103.643429a237.714286 237.714286 0 0 1 340.114286 332.141714l-3.949714 4.022857-323.291429 323.291429a146.285714 146.285714 0 0 1-209.993143-203.629715l3.145143-3.291428L639.341714 232.594286a18.285714 18.285714 0 0 1 25.819429 0l51.712 51.712a18.285714 18.285714 0 0 1 0 25.892571L393.362286 633.782857a36.571429 36.571429 0 0 0 49.737143 53.540572l1.974857-1.828572 323.291428-323.291428a128 128 0 0 0-177.883428-184.027429l-3.218286 2.998857-323.145143 323.218286a219.501714 219.501714 0 0 0 306.468572 314.368l4.022857-3.876572 323.437714-323.510857a18.285714 18.285714 0 0 1 25.892571 0l51.712 51.712a18.285714 18.285714 0 0 1 0 25.892572L652.141714 892.342857a329.216 329.216 0 0 1-469.869714-461.312l4.242286-4.315428L509.805714 103.643429z"  /></svg>