<svg class="icon"  viewBox="0 0 1024 1024" version="1.1" xmlns="http://www.w3.org/2000/svg"><path d="M827.776 112.224L304.352 635.616a35.456 35.456 0 0 0 50.144 50.048L877.856 162.272c13.76-13.76 13.76-36.256 0-50.048a35.456 35.456 0 0 0-50.048 0zM919.168 35.392c0 19.52 15.904 35.392 35.52 35.392 19.584 0 35.456-15.84 35.456-35.392 0-19.52-15.872-35.392-35.488-35.392-19.584 0-35.52 15.84-35.52 35.392z" fill="#000000" /><path d="M846.528 354.208c-19.648 0-35.52 15.872-35.52 35.36v0.128h-0.32v492.096a70.752 70.752 0 0 1-70.56 70.56H136.96a70.752 70.752 0 0 1-70.56-70.56v-704c0-38.784 31.744-70.528 70.56-70.528h531.776a35.392 35.392 0 0 0-0.544-70.784c-0.896 0-1.76 0-2.656 0.128H141.12A141.504 141.504 0 0 0 0 177.728V882.88A141.504 141.504 0 0 0 141.12 1024h632.736c77.632 0 108.032-63.488 108.032-141.12V392.224c0.128-0.864 0.128-1.76 0.128-2.656 0-19.52-15.872-35.36-35.52-35.36z" fill="#000000" /></svg>