<svg class="icon"  viewBox="0 0 1024 1024" version="1.1" xmlns="http://www.w3.org/2000/svg"><path d="M512 10.666667C235.093333 10.666667 10.666667 235.093333 10.666667 512S235.093333 1013.333333 512 1013.333333 1013.333333 788.906667 1013.333333 512 788.906667 10.666667 512 10.666667z m0 64c241.493333 0 437.333333 195.84 437.333333 437.333333S753.493333 949.333333 512 949.333333 74.666667 753.493333 74.666667 512 270.506667 74.666667 512 74.666667z"  /><path d="M751.061333 682.666667c20.181333 0 39.765333 5.12 54.784 14.592 16.426667 10.325333 26.154667 25.088 26.154667 40.96v132.266666c0 14.08-14.805333 25.514667-33.109333 25.514667-18.261333 0-33.109333-11.434667-33.109334-25.472v-132.266667l-0.682666-0.810666a12.117333 12.117333 0 0 0-1.152-0.810667 25.301333 25.301333 0 0 0-12.885334-3.029333H272.938667a25.301333 25.301333 0 0 0-12.885334 3.029333c-1.493333 0.981333-1.834667 1.493333-1.834666 1.578667v132.309333c0 14.08-14.848 25.472-33.109334 25.472-18.304 0-33.109333-11.392-33.109333-25.472v-132.266667c0-15.914667 9.728-30.72 26.154667-41.002666 15.018667-9.472 34.602667-14.592 54.784-14.592h478.122666z"  /><path d="M662.485333 500.394667c20.181333 0 39.765333 6.912 54.656 19.584 16 13.568 25.344 32.768 25.344 53.248v122.453333a32 32 0 1 1-64 0v-122.453333c0-1.194667-0.768-2.773333-2.773333-4.48a20.778667 20.778667 0 0 0-13.226667-4.352h-288a20.778667 20.778667 0 0 0-13.226666 4.352c-2.005333 1.706667-2.773333 3.285333-2.773334 4.48v122.453333a32 32 0 1 1-64 0v-122.453333c0-20.48 9.386667-39.68 25.344-53.248 14.933333-12.672 34.474667-19.584 54.656-19.584h288z"  /><path d="M443.434667 263.936c17.578667-65.621333 124.8-65.621333 142.378666 0l61.738667 230.528a32 32 0 1 1-61.824 16.554667l-61.738667-230.528c-0.64-2.346667-18.090667-2.346667-18.773333 0l-61.696 230.528a32 32 0 1 1-61.866667-16.554667l61.781334-230.528z"  /></svg>