<svg class="icon"  viewBox="0 0 1097 1024" version="1.1" xmlns="http://www.w3.org/2000/svg"><path d="M1078.857143 0a18.285714 18.285714 0 0 1 18.285714 18.285714v329.142857a18.285714 18.285714 0 0 1-18.285714 18.285715h-329.142857a18.285714 18.285714 0 0 1-18.285715-18.285715v-109.714285H640v548.571428H731.428571v-109.714285a18.285714 18.285714 0 0 1 18.285715-18.285715h329.142857a18.285714 18.285714 0 0 1 18.285714 18.285715v329.142857a18.285714 18.285714 0 0 1-18.285714 18.285714h-329.142857a18.285714 18.285714 0 0 1-18.285715-18.285714v-109.714286H566.857143a36.571429 36.571429 0 0 1-36.571429-36.571429v-292.571428h-109.714285v109.714286a18.285714 18.285714 0 0 1-18.285715 18.285714H73.142857a18.285714 18.285714 0 0 1-18.285714-18.285714v-329.142858A18.285714 18.285714 0 0 1 73.142857 329.142857h329.142857a18.285714 18.285714 0 0 1 18.285715 18.285714v109.714286h109.714285v-292.571428a36.571429 36.571429 0 0 1 36.571429-36.571429H731.428571V18.285714a18.285714 18.285714 0 0 1 18.285715-18.285714h329.142857zM987.428571 768h-146.285714v146.285714h146.285714v-146.285714zM310.857143 438.857143h-146.285714v146.285714h146.285714V438.857143z m676.571428-329.142857h-146.285714v146.285714h146.285714v-146.285714z" fill="#B2B2B2" /></svg>