<svg class="icon"  viewBox="0 0 1024 1024" version="1.1" xmlns="http://www.w3.org/2000/svg"><path d="M109.763703 164.551212a18.283468 18.283468 0 0 1 18.137201 16.089452l0.146267 2.194016a109.700808 109.700808 0 0 0 105.605312 109.627675L237.74798 292.535488h548.50404a109.700808 109.700808 0 0 0 109.627675-105.605311l0.073134-4.095497a18.283468 18.283468 0 0 1 18.283468-18.283468h73.133872a18.283468 18.283468 0 0 1 18.1372 16.089452l0.146268 2.194016a219.47475 219.47475 0 0 1-164.551212 212.453899V530.220573h146.267744a18.283468 18.283468 0 0 1 18.283468 18.283468v73.133872a18.283468 18.283468 0 0 1-18.283468 18.283468h-146.267744v54.850404c0 14.480507-0.95074 28.814746-2.779088 42.783315a219.47475 219.47475 0 0 1 167.257166 207.627063l0.073134 5.558175a18.283468 18.283468 0 0 1-18.283468 18.283468h-73.133872a18.283468 18.283468 0 0 1-18.137201-16.089452L895.952829 950.740338l-0.073134-4.095497a109.700808 109.700808 0 0 0-89.954663-103.850099 329.102425 329.102425 0 0 1-587.923198 0 109.700808 109.700808 0 0 0-89.881529 103.850099L128.047171 950.740338a18.283468 18.283468 0 0 1-18.283468 18.283468h-73.133872a18.283468 18.283468 0 0 1-18.1372-16.089452L18.346363 950.740338c0-103.191894 71.305525-189.782398 167.3303-213.185238A330.3457 330.3457 0 0 1 182.897575 694.771785v-54.850404h-146.267744a18.283468 18.283468 0 0 1-18.283468-18.283468v-73.133872a18.283468 18.283468 0 0 1 18.283468-18.283468h146.267744V395.288579A219.47475 219.47475 0 0 1 18.346363 182.83468a18.283468 18.283468 0 0 1 18.283468-18.283468h73.133872zM731.401616 402.236297H292.598384v292.535488c0 102.241153 69.915982 188.100319 164.551212 212.527033V658.204849a18.283468 18.283468 0 0 1 18.283468-18.283468h73.133872a18.283468 18.283468 0 0 1 18.283468 18.283468v249.093969A219.547884 219.547884 0 0 0 731.401616 700.329959V402.236297zM512 0a256.11482 256.11482 0 0 1 244.340267 179.543656l1.316409 4.461166 1.535812 5.631308a9.141734 9.141734 0 0 1-8.776065 11.482018H659.145351a18.283468 18.283468 0 0 1-16.381988-10.238742A146.267744 146.267744 0 0 0 516.5343 109.700808L512 109.700808a146.19461 146.19461 0 0 0-130.836497 81.178598 18.283468 18.283468 0 0 1-16.381988 10.238742H273.583577a9.141734 9.141734 0 0 1-8.849199-11.482018l1.462678-5.631308A256.11482 256.11482 0 0 1 512 0z" fill="#B2B2B2" /></svg>