<svg class="icon"  viewBox="0 0 1024 1024" version="1.1" xmlns="http://www.w3.org/2000/svg"><path d="M365.714286 36.571429a18.285714 18.285714 0 0 1 18.285714 18.285714v73.142857h256v-73.142857A18.285714 18.285714 0 0 1 658.285714 36.571429h73.142857a18.285714 18.285714 0 0 1 18.285715 18.285714v73.142857H950.857143a36.571429 36.571429 0 0 1 36.571428 36.571429V950.857143a36.571429 36.571429 0 0 1-36.571428 36.571428H73.142857a36.571429 36.571429 0 0 1-36.571428-36.571428V164.571429a36.571429 36.571429 0 0 1 36.571428-36.571429h201.142857v-73.142857A18.285714 18.285714 0 0 1 292.571429 36.571429h73.142857zM877.714286 512H146.285714v365.714286h731.428572V512zM274.285714 237.714286H146.285714V402.285714h731.428572V237.714286h-128v73.142857a18.285714 18.285714 0 0 1-18.285715 18.285714H658.285714a18.285714 18.285714 0 0 1-18.285714-18.285714v-73.142857h-256v73.142857A18.285714 18.285714 0 0 1 365.714286 329.142857H292.571429a18.285714 18.285714 0 0 1-18.285715-18.285714v-73.142857z" fill="#B2B2B2" /></svg>