<svg class="icon"  viewBox="0 0 1194 1024" version="1.1" xmlns="http://www.w3.org/2000/svg"><path d="M750.762667 0a42.666667 42.666667 0 0 1 30.208 12.458667l94.122666 94.208H1152a42.666667 42.666667 0 0 1 42.666667 42.666666v832a42.666667 42.666667 0 0 1-42.666667 42.666667H42.666667a42.666667 42.666667 0 0 1-42.666667-42.666667V149.333333a42.666667 42.666667 0 0 1 42.666667-42.666666h279.125333L415.317333 12.629333A42.666667 42.666667 0 0 1 445.44 0h305.237333z m-35.328 128H481.024L375.125333 234.666667H128v661.333333h938.666667V234.666667H822.101333L715.434667 128zM597.333333 256a277.333333 277.333333 0 1 1 0 554.666667A277.333333 277.333333 0 0 1 597.333333 256z m0 128A149.333333 149.333333 0 1 0 597.333333 682.666667a149.333333 149.333333 0 0 0 0-298.666667z"  /></svg>