<svg class="icon"  viewBox="0 0 1024 1024" version="1.1" xmlns="http://www.w3.org/2000/svg"><path d="M438.857143 145.92l8.777143 0.073143 8.777143 0.292571 2.56 0.073143a36.571429 36.571429 0 0 1 34.742857 36.571429v346.989714h346.989714a36.571429 36.571429 0 0 1 36.571429 34.669714l0.146285 3.218286A438.857143 438.857143 0 1 1 438.857143 145.846857z m-54.857143 114.249143l-4.315429 0.731428a329.216 329.216 0 1 0 382.976 383.049143l0.731429-4.388571H384V260.242286zM603.428571 0h0.731429a438.857143 438.857143 0 0 1 419.108571 412.306286l0.292572 6.802285a36.132571 36.132571 0 0 1-34.450286 37.668572H603.428571a36.571429 36.571429 0 0 1-36.571428-36.571429L566.857143 35.766857c0-18.870857 14.628571-34.377143 33.133714-35.693714L603.355429 0z m73.142858 122.148571v224.914286h224.841142l-0.438857-1.609143a329.874286 329.874286 0 0 0-216.137143-220.745143l-8.265142-2.486857z" fill="#B2B2B2" /></svg>