<svg class="icon"  viewBox="0 0 1024 1024" version="1.1" xmlns="http://www.w3.org/2000/svg"><path d="M109.714286 36.571429v859.428571h896a18.285714 18.285714 0 0 1 18.285714 18.285714v73.142857a18.285714 18.285714 0 0 1-18.285714 18.285715H36.571429a36.571429 36.571429 0 0 1-36.571429-36.571429V36.571429A18.285714 18.285714 0 0 1 18.285714 18.285714h73.142857A18.285714 18.285714 0 0 1 109.714286 36.571429z m847.286857 140.946285l51.712 51.712a18.285714 18.285714 0 0 1 0 25.819429L618.715429 645.12a18.285714 18.285714 0 0 1-25.819429 0L445.659429 497.883429 273.334857 670.208a18.285714 18.285714 0 0 1-25.819428 0l-51.712-51.712a18.285714 18.285714 0 0 1 0-25.892571l236.982857-236.982858a18.285714 18.285714 0 0 1 25.819428 0l147.163429 147.163429 325.339428-325.266286a18.285714 18.285714 0 0 1 25.892572 0z"  /></svg>