<svg class="icon"  viewBox="0 0 1024 1024" version="1.1" xmlns="http://www.w3.org/2000/svg"><path d="M91.428571 18.285714A18.285714 18.285714 0 0 1 109.714286 36.571429v859.428571h896a18.285714 18.285714 0 0 1 18.285714 18.285714v73.142857a18.285714 18.285714 0 0 1-18.285714 18.285715H36.571429a36.571429 36.571429 0 0 1-36.571429-36.571429V36.571429A18.285714 18.285714 0 0 1 18.285714 18.285714h73.142857zM347.428571 512a18.285714 18.285714 0 0 1 18.285715 18.285714v292.571429a18.285714 18.285714 0 0 1-18.285715 18.285714h-73.142857a18.285714 18.285714 0 0 1-18.285714-18.285714v-292.571429A18.285714 18.285714 0 0 1 274.285714 512h73.142857z m475.428572-201.142857a18.285714 18.285714 0 0 1 18.285714 18.285714v493.714286a18.285714 18.285714 0 0 1-18.285714 18.285714h-73.142857a18.285714 18.285714 0 0 1-18.285715-18.285714V329.142857a18.285714 18.285714 0 0 1 18.285715-18.285714h73.142857zM585.142857 128a18.285714 18.285714 0 0 1 18.285714 18.285714v676.571429a18.285714 18.285714 0 0 1-18.285714 18.285714H512a18.285714 18.285714 0 0 1-18.285714-18.285714V146.285714A18.285714 18.285714 0 0 1 512 128h73.142857z" fill="#B2B2B2" /></svg>