<svg class="icon"  viewBox="0 0 1024 1024" version="1.1" xmlns="http://www.w3.org/2000/svg"><path d="M512 0a512 512 0 1 1 0 1024A512 512 0 0 1 512 0z m0 109.714286a402.285714 402.285714 0 1 0 0 804.571428 402.285714 402.285714 0 0 0 0-804.571428z m224.621714 203.922285l51.712 51.712a18.285714 18.285714 0 0 1 0 25.819429L478.061714 701.513143a36.571429 36.571429 0 0 1-51.785143 0L232.374857 507.538286a18.285714 18.285714 0 0 1 0-25.819429l51.712-51.712a18.285714 18.285714 0 0 1 25.819429 0l142.262857 142.189714 258.633143-258.56a18.285714 18.285714 0 0 1 25.819428 0z"  /></svg>