<svg class="icon"  viewBox="0 0 1024 1024" version="1.1" xmlns="http://www.w3.org/2000/svg"><path d="M512 0a512 512 0 1 1 0 1024A512 512 0 0 1 512 0z m222.939429 312.100571a18.285714 18.285714 0 0 0-22.454858 0l-1.682285 1.462858-258.633143 258.633142L309.906286 430.08a18.285714 18.285714 0 0 0-24.137143-1.536l-1.682286 1.462857-51.712 51.785143a18.285714 18.285714 0 0 0-1.536 24.137143l1.462857 1.682286 193.974857 193.974857c5.924571 5.851429 13.385143 9.362286 21.065143 10.386285l3.364572 0.292572h2.925714l2.925714-0.219429a36.425143 36.425143 0 0 0 19.163429-8.338285l2.340571-2.121143 310.272-310.345143 1.536-1.682286a18.285714 18.285714 0 0 0 0-22.454857l-1.462857-1.682286-51.785143-51.712-1.682285-1.536z"  /></svg>