<svg class="icon"  viewBox="0 0 1024 1024" version="1.1" xmlns="http://www.w3.org/2000/svg"><path d="M1000.7552 95.6416a25.6 25.6 0 0 1 0 36.2496L620.6464 512l380.1088 380.1088a25.6 25.6 0 0 1 0 36.2496l-72.3968 72.3968a25.6 25.6 0 0 1-36.2496 0L512 620.6464 131.8912 1000.7552a25.6 25.6 0 0 1-36.2496 0l-72.3968-72.3968a25.6 25.6 0 0 1 0-36.2496L403.3536 512 23.2448 131.8912a25.6 25.6 0 0 1 0-36.2496L95.6416 23.2448a25.6 25.6 0 0 1 36.2496 0L512 403.3536 892.1088 23.2448a25.6 25.6 0 0 1 36.2496 0l72.3968 72.3968z"  /></svg>