<svg class="icon"  viewBox="0 0 1024 1024" version="1.1" xmlns="http://www.w3.org/2000/svg"><path d="M512 0a512 512 0 1 1 0 1024A512 512 0 0 1 512 0zM356.864 279.259429a18.285714 18.285714 0 0 0-24.137143-1.462858l-1.755428 1.462858-51.712 51.712a18.285714 18.285714 0 0 0-1.462858 24.137142l1.462858 1.755429 155.136 155.062857-155.136 155.209143a18.285714 18.285714 0 0 0-1.462858 24.137143l1.462858 1.755428 51.712 51.712 1.609142 1.462858a18.285714 18.285714 0 0 0 22.528 0l1.755429-1.462858 155.062857-155.209142 155.209143 155.209142a18.285714 18.285714 0 0 0 24.137143 1.462858l1.755428-1.462858 51.712-51.712a18.285714 18.285714 0 0 0 1.462858-24.137142l-1.462858-1.755429L589.531429 512l155.209142-155.136a18.285714 18.285714 0 0 0 1.462858-24.137143l-1.462858-1.755428-51.712-51.712a18.285714 18.285714 0 0 0-24.137142-1.462858l-1.755429 1.462858L512 434.395429 356.864 279.259429z"  /></svg>