<svg class="icon"  viewBox="0 0 1365 1024" version="1.1" xmlns="http://www.w3.org/2000/svg"><path d="M924.501333 35.669333L577.706667 988.586667a21.333333 21.333333 0 0 1-20.053334 14.08H451.584a10.666667 10.666667 0 0 1-9.984-14.336L788.394667 35.328A21.333333 21.333333 0 0 1 808.448 21.333333h106.069333a10.666667 10.666667 0 0 1 9.984 14.336z m94.464 172.885334l1.962667 1.706666 271.530667 271.530667a42.666667 42.666667 0 0 1 0 60.416l-271.530667 271.445333a21.333333 21.333333 0 0 1-30.122667 0l-60.330666-60.330666a21.333333 21.333333 0 0 1-1.792-28.16l1.706666-1.962667L1141.76 512l-211.2-211.2a21.333333 21.333333 0 0 1 0-30.122667l60.330667-60.416a21.333333 21.333333 0 0 1 28.16-1.706666z m-674.56 1.706666a21.333333 21.333333 0 0 1 28.16-1.706666l1.962667 1.706666 60.330667 60.416 1.792 1.962667a21.333333 21.333333 0 0 1 0 26.197333l-1.706667 1.962667L223.573333 512l211.2 211.2 1.792 1.962667a21.333333 21.333333 0 0 1 0 26.197333l-1.706666 1.962667-60.416 60.330666a21.333333 21.333333 0 0 1-28.16 1.792l-1.962667-1.706666L72.874667 542.037333a42.666667 42.666667 0 0 1-2.56-57.6l2.56-2.730666 271.530666-271.530667z"  /></svg>