<svg class="icon"  viewBox="0 0 1024 1024" version="1.1" xmlns="http://www.w3.org/2000/svg"><path d="M512 0a512 512 0 1 1 0 1024A512 512 0 0 1 512 0z m0 109.714286a402.285714 402.285714 0 1 0 0 804.571428 402.285714 402.285714 0 0 0 0-804.571428z m0 146.285714c65.536 0 125.293714 24.649143 170.642286 65.097143l4.534857 4.388571c3.291429 3.145143 7.094857 7.021714 11.337143 11.556572a18.285714 18.285714 0 0 1-0.512 25.380571l-51.858286 51.931429a18.285714 18.285714 0 0 1-25.819429 0l-0.731428-0.804572a137.947429 137.947429 0 0 0-13.604572-13.677714 146.285714 146.285714 0 1 0 1.974858 222.500571 132.388571 132.388571 0 0 0 11.702857-11.776 18.285714 18.285714 0 0 1 23.917714-2.998857l2.194286 1.755429 52.297143 52.224a18.285714 18.285714 0 0 1 0.438857 25.380571l-5.485715 5.851429A255.049143 255.049143 0 0 1 512 768a256 256 0 0 1 0-512.073143z" fill="#B2B2B2" /></svg>