<svg class="icon"  viewBox="0 0 1024 1024" version="1.1" xmlns="http://www.w3.org/2000/svg"><path d="M914.285714 18.285714a36.571429 36.571429 0 0 1 36.571429 36.571429v713.142857a36.571429 36.571429 0 0 1-36.571429 36.571429H749.714286v164.571428a36.571429 36.571429 0 0 1-36.571429 36.571429H109.714286a36.571429 36.571429 0 0 1-36.571429-36.571429V256A36.571429 36.571429 0 0 1 109.714286 219.428571h164.571428V54.857143a36.571429 36.571429 0 0 1 36.571429-36.571429h603.428571zM640 329.142857H182.857143v566.857143h457.142857V329.142857zM530.285714 658.285714a18.285714 18.285714 0 0 1 18.285715 18.285715v73.142857a18.285714 18.285714 0 0 1-18.285715 18.285714H292.571429a18.285714 18.285714 0 0 1-18.285715-18.285714v-73.142857A18.285714 18.285714 0 0 1 292.571429 658.285714h237.714285z m310.857143-530.285714H384V219.428571h329.142857a36.571429 36.571429 0 0 1 36.571429 36.571429v438.857143h91.428571V128z m-310.857143 329.142857a18.285714 18.285714 0 0 1 18.285715 18.285714v73.142858a18.285714 18.285714 0 0 1-18.285715 18.285714H292.571429a18.285714 18.285714 0 0 1-18.285715-18.285714v-73.142858A18.285714 18.285714 0 0 1 292.571429 457.142857h237.714285z"  /></svg>