<svg class="icon"  viewBox="0 0 1024 1024" version="1.1" xmlns="http://www.w3.org/2000/svg"><path d="M590.107789 900.663888a189.8949 189.8949 0 0 1 51.768831-211.569543 197.404225 197.404225 0 0 1 219.249534-27.932413c21.162643 7.964436 39.7084 21.617754 53.646163 39.25329l6.655993 8.021324a189.667345 189.667345 0 0 1 27.420414 204.629106A195.356227 195.356227 0 0 1 772.038253 1023.998862a195.128672 195.128672 0 0 1-181.930464-123.334974z m172.94203-164.636261a39.25329 39.25329 0 0 0-39.651512 38.684401v114.517206a39.25329 39.25329 0 0 0 39.594623 38.798179h115.76876a39.25329 39.25329 0 0 0 39.594623-38.798179 39.25329 39.25329 0 0 0-39.594623-38.74129h-76.231026v-75.548361a38.343069 38.343069 0 0 0-11.548432-27.477302 40.106622 40.106622 0 0 0-27.989302-11.434654zM168.959812 938.665624C107.121659 938.608735 56.888826 887.750125 56.888826 825.00175v-711.110321C56.888826 51.199943 107.06477 0.227555 168.959812 0h501.190554c56.149271-0.056889 85.27635 23.324419 126.520749 62.00882l51.484387 61.781265a229.546412 229.546412 0 0 1 72.931475 167.59448v352.141831c-114.574095-84.935017-258.047713-58.538602-320.568533 18.545757-62.463931 77.084359-83.626574 179.598023-40.163511 276.479693l-391.395121 0.113778z m6.428438-341.276066c-17.635536 2.503108-31.118188 20.138644-31.573299 41.415066-0.455111 21.276421 12.287986 39.7084 29.809745 43.235507l5.80266 0.625777h236.202404c18.773312-2.730664 32.426631-22.414197 31.402632-44.942172-1.023999-22.471086-16.497759-40.163511-35.441738-40.391066v0.45511h-236.088627l-0.113777-0.398222z m-0.341333-255.829049h-3.697774c-15.928871 4.721773-27.192859 21.731531-27.534192 41.528843-0.341333 19.740423 10.410655 37.31907 26.16886 42.780397l5.063106 0.796444h500.962999v-0.455111c16.725315-4.892439 28.216858-23.551974 27.306636-44.316395-0.910221-20.764421-13.937762-37.831069-31.00441-40.561733l-497.265225 0.227555z m0-170.894032l-3.697774 0.511999c-16.554648 3.754662-28.273746 21.617754-27.534192 41.983954-0.682666 19.911089 10.410655 37.546625 26.453304 42.211508l5.063106 0.625778h500.621666c16.782204-4.892439 28.273746-23.551974 27.363525-44.373284-0.910221-20.82131-13.937762-37.887958-31.061299-40.618622L175.103805 170.666477z" fill="#030732" /></svg>