<svg class="icon"  viewBox="0 0 1024 1024" version="1.1" xmlns="http://www.w3.org/2000/svg"><path d="M262.070857 833.974857C326.363429 861.476571 415.817143 877.714286 512 877.714286s185.636571-16.237714 249.929143-43.739429c51.712-22.235429 77.385143-47.177143 79.140571-64.219428l0.073143-1.755429V679.936a408.722286 408.722286 0 0 1-33.133714 16.310857L797.257143 700.708571c-10.971429 4.534857-22.528 8.777143-34.377143 12.653715l-12.068571 3.803428a688.713143 688.713143 0 0 1-77.677715 18.578286l-13.750857 2.413714-13.970286 2.194286-7.094857 0.950857-14.262857 1.828572-14.409143 1.609142-14.628571 1.389715a936.96 936.96 0 0 1-37.156572 2.486857l-15.140571 0.585143a990.939429 990.939429 0 0 1-61.293714 0l-15.140572-0.585143a936.96 936.96 0 0 1-37.156571-2.486857l-14.628572-1.462857-14.409142-1.536-14.262858-1.828572-7.094857-1.024-13.897143-2.194286-13.824-2.340571a688.713143 688.713143 0 0 1-77.677714-18.578286l-11.995428-3.803428a525.385143 525.385143 0 0 1-34.377143-12.653715l-10.971429-4.534857a408.429714 408.429714 0 0 1-33.060571-16.310857V768c0 17.042286 25.6 43.008 79.213714 65.974857zM841.142857 423.936a398.043429 398.043429 0 0 1-24.502857 12.434286l-8.630857 3.876571-10.825143 4.534857c-7.314286 2.998857-14.921143 5.851429-22.674286 8.630857l-11.702857 4.022858-12.068571 3.803428a674.377143 674.377143 0 0 1-64.146286 16.091429l-13.531429 2.486857-13.750857 2.413714-13.970285 2.194286-7.094858 0.950857-14.262857 1.828571-14.409143 1.609143-14.628571 1.389715a928.914286 928.914286 0 0 1-24.649143 1.755428l-12.507428 0.731429-15.140572 0.585143c-10.166857 0.292571-20.333714 0.438857-30.646857 0.438857l-15.36-0.146286-15.286857-0.292571-15.140572-0.585143a944.932571 944.932571 0 0 1-24.868571-1.462857l-12.288-1.024-14.628571-1.462858-14.409143-1.536-14.262857-1.828571-7.094858-1.024-13.897142-2.194286-13.824-2.340571a703.780571 703.780571 0 0 1-65.316572-14.994286l-12.361143-3.657143-11.995428-3.730285a540.306286 540.306286 0 0 1-23.259429-8.265143l-11.190857-4.388572-10.825143-4.534857a408.722286 408.722286 0 0 1-33.133714-16.237714V530.285714c0 17.042286 25.6 43.008 79.213714 65.974857 64.292571 27.501714 153.746286 43.739429 249.929143 43.739429s185.636571-16.237714 249.929143-43.739429c51.712-22.235429 77.385143-47.177143 79.140571-64.219428l0.073143-1.755429V423.936zM512 164.571429c-96.182857 0-185.636571 16.237714-249.929143 43.739428-53.613714 22.966857-79.213714 49.005714-79.213714 65.974857 0 17.042286 25.6 43.008 79.213714 65.974857 64.292571 27.501714 153.746286 43.739429 249.929143 43.739429s185.636571-16.237714 249.929143-43.739429c53.613714-22.966857 79.213714-49.005714 79.213714-65.974857 0-17.042286-25.6-43.008-79.213714-65.974857C697.636571 180.809143 608.182857 164.571429 512 164.571429z m-438.857143 109.714285l0.073143-4.754285C75.629714 202.752 128 148.406857 209.92 111.030857l6.070857-2.706286 10.825143-4.534857c7.314286-2.998857 14.921143-5.851429 22.674286-8.630857l11.702857-4.022857 12.068571-3.803429a674.377143 674.377143 0 0 1 64.146286-16.091428L350.939429 68.754286l13.750857-2.413715 13.970285-2.194285 7.094858-0.950857 14.262857-1.828572 14.409143-1.609143 14.628571-1.389714a928.914286 928.914286 0 0 1 24.649143-1.755429l12.507428-0.731428 15.140572-0.585143 15.286857-0.292571L512 54.857143h7.68l11.556571 0.219428 11.410286 0.219429 15.140572 0.585143 24.868571 1.462857 12.288 1.024 14.628571 1.462857 14.409143 1.536 14.262857 1.828572 7.094858 1.024 13.897142 2.194285 13.824 2.340572c22.674286 4.096 44.617143 9.142857 65.316572 14.994285l12.361143 3.657143 11.995428 3.730286c7.972571 2.633143 15.725714 5.339429 23.259429 8.265143l11.190857 4.388571 10.825143 4.534857c85.430857 37.449143 140.288 92.891429 142.774857 161.206858L950.857143 274.285714v493.714286c0 70.582857-55.369143 127.634286-142.848 165.961143l-10.825143 4.534857c-10.971429 4.534857-22.528 8.777143-34.377143 12.653714l-12.068571 3.803429a688.713143 688.713143 0 0 1-77.677715 18.578286l-13.750857 2.413714-13.970285 2.194286-7.094858 0.950857-14.262857 1.828571-14.409143 1.609143-14.628571 1.389714a936.96 936.96 0 0 1-37.156571 2.486857l-15.140572 0.585143a990.939429 990.939429 0 0 1-61.293714 0l-15.140572-0.585143a936.96 936.96 0 0 1-37.156571-2.486857l-14.628571-1.462857-14.409143-1.536-14.262857-1.828571-7.094858-1.024-13.897142-2.194286-13.824-2.340571a688.713143 688.713143 0 0 1-77.677715-18.578286l-11.995428-3.803429a525.385143 525.385143 0 0 1-34.377143-12.653714l-10.971429-4.534857c-85.577143-37.522286-140.434286-93.110857-142.701714-161.645714L73.142857 768V274.285714z" fill="#B2B2B2" /></svg>