<svg class="icon"  viewBox="0 0 1024 1024" version="1.1" xmlns="http://www.w3.org/2000/svg"><path d="M731.428571 0a36.571429 36.571429 0 0 1 36.571429 36.571429v128h201.142857a18.285714 18.285714 0 0 1 18.285714 18.285714v73.142857a18.285714 18.285714 0 0 1-18.285714 18.285714h-73.142857v713.142857a36.571429 36.571429 0 0 1-36.571429 36.571429h-694.857142a36.571429 36.571429 0 0 1-36.571429-36.571429V274.285714h-73.142857A18.285714 18.285714 0 0 1 36.571429 256v-73.142857a18.285714 18.285714 0 0 1 18.285714-18.285714H256V36.571429A36.571429 36.571429 0 0 1 292.571429 0h438.857142zM438.857143 402.285714H365.714286a18.285714 18.285714 0 0 0-18.139429 16.091429l-0.146286 2.194286v347.428571a18.285714 18.285714 0 0 0 16.091429 18.139429l2.194286 0.146285h73.142857a18.285714 18.285714 0 0 0 18.139428-16.091428l0.146286-2.194286V420.571429a18.285714 18.285714 0 0 0-16.091428-18.139429L438.857143 402.285714z m219.428571 0H585.142857a18.285714 18.285714 0 0 0-18.139428 16.091429l-0.146286 2.194286v347.428571a18.285714 18.285714 0 0 0 16.091428 18.139429l2.194286 0.146285h73.142857a18.285714 18.285714 0 0 0 18.139429-16.091428l0.146286-2.194286V420.571429a18.285714 18.285714 0 0 0-16.091429-18.139429L658.285714 402.285714z m0-292.571428H365.714286v54.857143h292.571428V109.714286z" fill="#B2B2B2" /></svg>