<svg class="icon"  viewBox="0 0 1024 1024" version="1.1" xmlns="http://www.w3.org/2000/svg"><path d="M732.89064 1024c19.090218 0 31.817029-6.399977 44.543841-19.236503 25.453623-25.673051 19.090218-64.182628-6.363406-89.855679L363.959386 542.612005c-12.726812-12.799954-19.090218-25.63648-19.090218-38.473005 0-12.836526 6.363406-25.673051 19.090218-38.509577l413.475095-353.022739c25.453623-25.673051 31.817029-64.182628 6.363405-89.85568s-63.634058-32.073028-89.05111-6.399977L287.598516 369.337195c-38.143864 32.1096-63.597487 83.455702-63.597487 134.801805s19.090218 96.255656 57.234081 134.765232L688.38337 1011.200046c12.726812 6.436548 31.817029 12.836526 44.543841 12.836525z" fill="#000000" /></svg>