<svg class="icon"  viewBox="0 0 1024 1024" version="1.1" xmlns="http://www.w3.org/2000/svg"><path d="M895.99916 912.000105a47.999955 47.999955 0 0 1-47.999955 47.999955h-671.99937A47.999955 47.999955 0 0 1 127.99988 912.000105v-863.99919A47.999955 47.999955 0 0 1 175.999835 0.00096h412.319613a47.999955 47.999955 0 0 1 34.079969 13.919987l259.679756 259.679756A47.999955 47.999955 0 0 1 895.99916 307.680672V912.000105z"  /><path d="M927.99913 928.00009v47.999955a47.999955 47.999955 0 0 1-47.999955 47.999955h-671.99937A47.999955 47.999955 0 0 1 159.99985 976.000045V928.00009a47.999955 47.999955 0 0 0 47.999955 47.999955h671.99937A47.999955 47.999955 0 0 0 927.99913 928.00009z"  /><path d="M31.99997 544.00045h959.9991v239.999775a47.999955 47.999955 0 0 1-47.999955 47.999955h-863.99919A47.999955 47.999955 0 0 1 31.99997 784.000225V544.00045z"  /><path d="M127.96788 544.00045v-95.99991L31.99997 544.00045h95.96791z m767.61528 0l0.959999-95.99991L991.99907 544.00045h-96.41591z"  /><path d="M255.99976 615.360383h74.62393a70.463934 70.463934 0 0 1 55.839948 24.415977c14.655986 18.111983 22.175979 40.927962 21.18398 64.15994a105.471901 105.471901 0 0 1-20.223981 66.559938 68.991935 68.991935 0 0 1-57.759946 25.887975H255.99976v-181.05583z m31.295971 151.807858h40.927961c13.503987 0.927999 26.655975-4.799996 35.135967-15.359986 9.727991-13.951987 14.175987-30.943971 12.511989-47.871955 0.959999-15.967985-3.839996-31.74397-13.471988-44.543958a44.383958 44.383958 0 0 0-36.127966-15.807985H287.295731v123.583884z m240.703774-159.039851a83.007922 83.007922 0 0 1 64.51194 26.367975c16.799984 19.135982 25.279976 44.095959 23.583977 69.439935a101.215905 101.215905 0 0 1-24.063977 69.439935c-16.319985 17.855983-39.807963 27.519974-64.03194 26.367975a83.007922 83.007922 0 0 1-64.51194-26.847975 98.815907 98.815907 0 0 1-24.543977-68.959935 98.335908 98.335908 0 0 1 24.543977-68.959935 82.559923 82.559923 0 0 1 64.51194-26.815975z m0 160.959849c15.967985 0.799999 31.391971-5.759995 41.887961-17.727983 10.55999-13.663987 15.871985-30.655971 14.911986-47.903955a68.735936 68.735936 0 0 0-15.871985-47.871956 53.08795 53.08795 0 0 0-41.407962-17.727983c-15.775985-0.639999-31.039971 5.855995-41.407961 17.727983a69.695935 69.695935 0 0 0-15.391985 47.871956 69.215935 69.215935 0 0 0 15.871985 47.903955c10.33599 11.967989 25.535976 18.655983 41.407961 18.207983v-0.48z m271.999745-46.943956a151.999858 151.999858 0 0 1-27.935974 56.991947 68.543936 68.543936 0 0 1-55.359948 20.60798 73.823931 73.823931 0 0 1-59.199944-24.927976 104.031902 104.031902 0 0 1-22.14398-70.879934 102.623904 102.623904 0 0 1 22.623979-70.399934 77.695927 77.695927 0 0 1 62.591941-25.375976c37.535965 0 62.719941 22.015979 75.58393 66.079938h-32.25597a48.095955 48.095955 0 0 0-43.32796-34.943967 48.255955 48.255955 0 0 0-38.527963 16.767984 68.255936 68.255936 0 0 0-14.431987 47.871955c0 43.743959 16.991984 65.599939 51.039952 65.599939 11.19999 0.767999 22.207979-3.231997 30.303972-11.00799 8.447992-10.14399 14.399987-22.079979 17.343984-34.943967L799.99925 722.144283z"  /><path d="M895.99916 313.152666V320.00066h-270.143747c-13.215988 0-25.919976-5.119995-35.263967-14.303987A48.383955 48.383955 0 0 1 575.99946 271.136706V0.00096c13.247988-0.064 25.983976 5.023995 35.391967 14.175987l270.143747 264.319752c9.343991 9.183991 14.527986 21.66398 14.463986 34.655967z"  /></svg>