<svg class="icon"  viewBox="0 0 1256 1024" version="1.1" xmlns="http://www.w3.org/2000/svg"><path d="M667.336764 549.571452a19.627552 19.627552 0 0 1 19.627551 19.627552v235.530623h152.937885a9.813776 9.813776 0 0 1 6.987408 16.722674l-191.015335 191.015335a39.255104 39.255104 0 0 1-55.585227 0l-191.015334-191.015335a9.813776 9.813776 0 0 1 6.987408-16.722674H569.199004v-235.530623A19.627552 19.627552 0 0 1 588.826556 549.571452h78.510208zM628.08166 58.882656a412.178589 412.178589 0 0 1 410.137324 370.568179A274.864236 274.864236 0 0 1 942.12249 961.750042h-19.627552a19.627552 19.627552 0 0 1-19.627552-19.627552v-78.510208a19.627552 19.627552 0 0 1 19.627552-19.627552H942.12249a157.020415 157.020415 0 0 0 59.903288-302.264298l-5.024653-1.962756-68.696432-25.594327-7.301449-73.014493a294.413278 294.413278 0 0 0-585.136576-6.280817l-0.785102 6.280817-7.22294 73.014493-68.696431 25.594327a157.098925 157.098925 0 0 0 50.011002 304.148544L314.04083 843.98473h19.627552a19.627552 19.627552 0 0 1 19.627552 19.627552v78.510208a19.627552 19.627552 0 0 1-19.627552 19.627552H314.04083a274.785726 274.785726 0 0 1-96.096494-532.299207A412.178589 412.178589 0 0 1 628.08166 58.882656z"  /></svg>