<svg class="icon"  viewBox="0 0 1024 1024" version="1.1" xmlns="http://www.w3.org/2000/svg"><path d="M109.714286 530.285714a18.285714 18.285714 0 0 1 18.285714 18.285715v310.857142h768V548.571429a18.285714 18.285714 0 0 1 18.285714-18.285715h73.142857a18.285714 18.285714 0 0 1 18.285715 18.285715v384a36.571429 36.571429 0 0 1-36.571429 36.571428H54.857143a36.571429 36.571429 0 0 1-36.571429-36.571428V548.571429a18.285714 18.285714 0 0 1 18.285715-18.285715h73.142857zM585.142857 69.997714l2.194286 0.146286a18.285714 18.285714 0 0 1 15.945143 16.018286l0.146285 2.194285V375.954286h183.881143a9.142857 9.142857 0 0 1 7.533715 14.336l-1.097143 1.316571-255.853715 255.926857a36.571429 36.571429 0 0 1-49.444571 2.121143l-2.340571-2.194286-255.853715-255.853714a9.142857 9.142857 0 0 1 4.754286-15.506286l1.682286-0.146285H420.571429V88.283429A18.285714 18.285714 0 0 1 436.662857 70.217143L438.857143 69.997714h146.285714z" fill="#B2B2B2" /></svg>