<svg class="icon"  viewBox="0 0 1035 1024" version="1.1" xmlns="http://www.w3.org/2000/svg"><path d="M524.866764 5.312805L714.015652 194.461693a9.041534 9.041534 0 0 1-6.437572 15.406774H566.313155V457.751159h247.882692V316.486234a9.041534 9.041534 0 0 1 15.406774-6.437572l189.148888 189.148888a18.083068 18.083068 0 0 1 0 25.605624L829.602621 713.952062a9.041534 9.041534 0 0 1-15.406774-6.437573V566.249565H566.313155v247.882691h141.264925a9.041534 9.041534 0 0 1 6.437572 15.406774l-189.148888 189.148888a18.083068 18.083068 0 0 1-25.605624 0L310.112252 829.53903a9.041534 9.041534 0 0 1 6.437572-15.406774H457.814749V566.249565H209.932057v141.264924a9.041534 9.041534 0 0 1-15.406773 6.437573L5.376396 524.803174a18.083068 18.083068 0 0 1 0-25.605624L194.525284 310.048662a9.041534 9.041534 0 0 1 15.406773 6.437572V457.751159H457.814749V209.868467H316.549824a9.041534 9.041534 0 0 1-6.437572-15.406774L499.26114 5.312805a18.083068 18.083068 0 0 1 25.605624 0z" fill="#B2B2B2" /></svg>