<svg class="icon"  viewBox="0 0 1024 1024" version="1.1" xmlns="http://www.w3.org/2000/svg"><path d="M608 488a24 24 0 0 1 16.96 7.04l224 224c4.512 4.48 7.04 10.592 7.04 16.96v160a24 24 0 1 1-48 0v-150.048l-209.952-209.952H224a8 8 0 0 0-4 1.056l-1.664 1.28A8 8 0 0 0 216 544v352a24 24 0 1 1-48 0V544A56 56 0 0 1 224 488h384zM832 104a24 24 0 0 1 24 24v224A56 56 0 0 1 800 408H224A56 56 0 0 1 168 352V128a24 24 0 0 1 48 0v224a8 8 0 0 0 8 8h576a8 8 0 0 0 8-8V128a24 24 0 0 1 24-24z" fill="#000000" /><path d="M608 488a24 24 0 0 1 24 24v200h200.032a24 24 0 0 1 23.776 20.736l0.224 3.264a24 24 0 0 1-24 24H608a24 24 0 0 1-24-24v-224a24 24 0 0 1 24-24z" fill="#000000" /></svg>