<svg class="icon"  viewBox="0 0 1024 1024" version="1.1" xmlns="http://www.w3.org/2000/svg"><path d="M512 1024A512 512 0 1 0 512 0a512 512 0 0 0 0 1024z m36.571429-420.571429h-73.142858l-2.194285-0.073142a18.285714 18.285714 0 0 1-15.945143-16.091429L457.142857 585.142857V256a18.285714 18.285714 0 0 1 16.091429-18.139429l2.194285-0.146285h73.142858a18.285714 18.285714 0 0 1 18.139428 16.091428l0.146286 2.194286V585.142857a18.285714 18.285714 0 0 1-16.091429 18.139429l-2.194285 0.146285z m0 182.857143h-73.142858a18.285714 18.285714 0 0 1-18.139428-16.091428l-0.146286-2.194286v-73.142857a18.285714 18.285714 0 0 1 16.091429-18.139429l2.194285-0.146285h73.142858l2.194285 0.146285a18.285714 18.285714 0 0 1 15.945143 16.018286l0.146286 2.121143v73.142857a18.285714 18.285714 0 0 1-16.091429 18.139429l-2.194285 0.146285z" fill="#B2B2B2" /></svg>