<svg class="icon"  viewBox="0 0 1170 1024" version="1.1" xmlns="http://www.w3.org/2000/svg"><path d="M1077.979429 71.314286L1026.194286 19.602286a18.285714 18.285714 0 0 0-25.892572 0L95.305143 924.745143a18.285714 18.285714 0 0 0 0 25.819428l51.712 51.712a18.285714 18.285714 0 0 0 25.892571 0l141.165715-141.165714a548.790857 548.790857 0 0 0 804.571428-349.037714 548.352 548.352 0 0 0-171.373714-284.16l130.706286-130.706286a18.285714 18.285714 0 0 0 1.462857-24.137143l-1.462857-1.755428z m-75.337143 432.859428L1004.982857 512l-0.292571 1.097143a439.149714 439.149714 0 0 1-412.525715 309.686857L585.142857 822.857143c-67.584 0-132.022857-15.36-189.732571-43.154286L473.965714 701.293714a219.428571 219.428571 0 0 0 300.397715-300.397714l95.085714-95.085714a437.833143 437.833143 0 0 1 133.12 198.436571zM585.142857 91.428571A548.790857 548.790857 0 0 0 51.565714 512a546.304 546.304 0 0 0 96.256 203.190857l6.217143 8.045714 4.827429 6.070858a18.285714 18.285714 0 0 0 25.746285 2.486857l1.316572-1.170286 52.077714-52.077714a18.285714 18.285714 0 0 0 1.389714-24.210286l-4.534857-5.851429a436.224 436.224 0 0 1-67.218285-128.731428l-2.413715-7.753143 0.292572-1.170286a439.149714 439.149714 0 0 1 412.525714-309.613714L585.142857 201.142857c29.037714 0 57.563429 2.852571 85.211429 8.265143l5.412571 1.170286c4.096 0.877714 8.850286 2.048 14.409143 3.364571a18.285714 18.285714 0 0 0 17.261714-4.827428l59.172572-59.099429a18.285714 18.285714 0 0 0-7.021715-30.281143l-4.608-1.462857A548.132571 548.132571 0 0 0 585.142857 91.428571zM694.857143 512a109.714286 109.714286 0 0 1-137.801143 106.057143L691.2 483.913143c2.413714 8.996571 3.657143 18.358857 3.657143 28.086857zM585.142857 292.571429a219.428571 219.428571 0 0 0-219.428571 219.428571c0 4.388571 0.292571 10.020571 0.877714 16.749714a9.142857 9.142857 0 0 0 15.579429 5.632l225.353142-225.353143a9.142857 9.142857 0 0 0-5.632-15.579428A200.923429 200.923429 0 0 0 585.142857 292.571429z" fill="#B2B2B2" /></svg>