<svg class="icon"  viewBox="0 0 1365 1024" version="1.1" xmlns="http://www.w3.org/2000/svg"><path d="M682.666667 21.333333A640.256 640.256 0 0 1 1305.173333 512 640.256 640.256 0 0 1 60.16 512 640.256 640.256 0 0 1 682.666667 21.333333z m0 128a512.426667 512.426667 0 0 0-487.082667 353.536L192.853333 512l0.341334 1.28a512.341333 512.341333 0 0 0 481.28 361.301333L682.666667 874.666667a512.341333 512.341333 0 0 0 487.082666-353.536L1172.48 512l-0.341333-1.365333a512.341333 512.341333 0 0 0-481.28-361.216L682.666667 149.333333zM682.666667 256a256 256 0 1 1 0 512 256 256 0 0 1 0-512z m0 128a128 128 0 1 0 0 256 128 128 0 0 0 0-256z"  /></svg>