<svg class="icon"  viewBox="0 0 1024 1024" version="1.1" xmlns="http://www.w3.org/2000/svg"><path d="M608.256 774.931692l-283.057231-157.696c-36.115692 42.456615-84.283077 72.782769-144.541538 72.78277C78.257231 690.018462 0 611.170462 0 508.061538c0-103.108923 78.296615-181.956923 180.657231-181.956923 60.258462 0 114.451692 30.326154 150.567384 78.848l331.224616-169.826461V204.8c0-103.108923 78.336-181.956923 180.696615-181.956923 102.4 0 180.696615 78.848 180.696616 181.956923 0 103.108923-78.296615 181.956923-180.696616 181.956923-66.244923 0-126.464-36.391385-156.593231-90.978461l-331.224615 163.76123c6.025846 12.130462 6.025846 30.326154 6.025846 48.521846 0 18.195692-6.025846 42.456615-12.051692 60.652308l277.031384 151.630769c36.155077-54.587077 90.348308-90.978462 156.593231-90.978461 102.4 0 180.657231 78.848 180.657231 181.956923 0 103.108923-78.257231 181.956923-180.657231 181.956923-102.4 0-180.657231-78.848-180.657231-181.956923 0-12.130462 0-24.260923 5.986462-36.391385zM180.657231 629.366154c66.284308 0 120.477538-54.587077 120.477538-121.304616 0-66.717538-54.193231-121.304615-120.477538-121.304615-66.244923 0-120.438154 54.587077-120.438154 121.304615 0 66.717538 54.193231 121.304615 120.438154 121.304616z m662.488615-303.261539c66.244923 0 120.438154-54.587077 120.438154-121.304615 0-66.717538-54.193231-121.304615-120.438154-121.304615S722.707692 138.082462 722.707692 204.8c0 66.717538 54.193231 121.304615 120.438154 121.304615z m-60.219077 606.523077c66.244923 0 120.438154-54.587077 120.438154-121.304615 0-66.717538-54.193231-121.304615-120.438154-121.304615s-120.438154 54.587077-120.438154 121.304615c0 66.717538 54.193231 121.304615 120.438154 121.304615z"  /></svg>