<svg class="icon"  viewBox="0 0 1024 1024" version="1.1" xmlns="http://www.w3.org/2000/svg"><path d="M658.797714 0a18.285714 18.285714 0 0 1 12.946286 5.339429l255.488 255.488a18.285714 18.285714 0 0 1 5.339429 12.946285V987.428571a36.571429 36.571429 0 0 1-36.571429 36.571429H128a36.571429 36.571429 0 0 1-36.571429-36.571429V36.571429a36.571429 36.571429 0 0 1 36.571429-36.571429h530.797714zM694.857143 676.571429h-365.714286a18.285714 18.285714 0 0 0-18.139428 16.091428l-0.146286 2.194286v73.142857a18.285714 18.285714 0 0 0 16.091428 18.139429l2.194286 0.146285h365.714286a18.285714 18.285714 0 0 0 18.139428-16.091428l0.146286-2.194286v-73.142857a18.285714 18.285714 0 0 0-16.091428-18.139429L694.857143 676.571429z m0-219.428572h-365.714286a18.285714 18.285714 0 0 0-18.139428 16.091429l-0.146286 2.194285v73.142858a18.285714 18.285714 0 0 0 16.091428 18.139428l2.194286 0.146286h365.714286a18.285714 18.285714 0 0 0 18.139428-16.091429l0.146286-2.194285v-73.142858a18.285714 18.285714 0 0 0-16.091428-18.139428L694.857143 457.142857z m-201.142857-219.428571H329.142857a18.285714 18.285714 0 0 0-18.139428 16.091428l-0.146286 2.194286v73.142857a18.285714 18.285714 0 0 0 16.091428 18.139429l2.194286 0.146285h164.571429a18.285714 18.285714 0 0 0 18.139428-16.091428L512 329.142857v-73.142857a18.285714 18.285714 0 0 0-16.091429-18.139429l-2.194285-0.146285z"  /></svg>