<svg class="icon"  viewBox="0 0 1024 1024" version="1.1" xmlns="http://www.w3.org/2000/svg"><path d="M694.637714 36.790857A36.571429 36.571429 0 0 1 694.857143 40.740571v942.518858a36.571429 36.571429 0 0 1-40.521143 36.352l-603.428571-65.243429a36.571429 36.571429 0 0 1-32.621715-36.352V106.057143A36.571429 36.571429 0 0 1 50.907429 69.632L654.336 4.388571a36.571429 36.571429 0 0 1 40.301714 32.402286zM969.142857 73.142857a36.571429 36.571429 0 0 1 36.571429 36.571429v804.571428a36.571429 36.571429 0 0 1-36.571429 36.571429h-182.857143a18.285714 18.285714 0 0 1-18.285714-18.285714V91.428571a18.285714 18.285714 0 0 1 18.285714-18.285714h182.857143zM548.571429 310.857143H164.571429a18.285714 18.285714 0 0 0-18.139429 16.091428L146.285714 329.142857v384a18.285714 18.285714 0 0 0 16.091429 18.139429l2.194286 0.146285h73.142857a18.285714 18.285714 0 0 0 18.139428-16.091428l0.146286-2.194286V621.714286h292.571429a18.285714 18.285714 0 0 0 18.139428-16.091429l0.146286-2.194286V329.142857a18.285714 18.285714 0 0 0-16.091429-18.139428L548.571429 310.857143z m-91.428572 109.714286V512H256V420.571429h201.142857z"  /></svg>