<svg class="icon"  viewBox="0 0 1024 1024" version="1.1" xmlns="http://www.w3.org/2000/svg"><path d="M651.190857 0a36.571429 36.571429 0 0 1 25.892572 10.678857l244.809142 244.809143a36.571429 36.571429 0 0 1 10.678858 25.819429V987.428571a36.571429 36.571429 0 0 1-36.571429 36.571429H128a36.571429 36.571429 0 0 1-36.571429-36.571429V36.571429a36.571429 36.571429 0 0 1 36.571429-36.571429h523.190857zM603.428571 109.714286h-402.285714v804.571428h621.714286v-585.142857h-182.857143a36.571429 36.571429 0 0 1-36.571429-36.571428V109.714286zM512 402.285714A201.142857 201.142857 0 0 1 512 804.571429H329.142857a18.285714 18.285714 0 0 1-18.285714-18.285715v-365.714285a18.285714 18.285714 0 0 1 18.285714-18.285715H512zM512 512H420.571429v182.857143H512a91.428571 91.428571 0 0 0 3.949714-182.784L512 512z" fill="#B2B2B2" /></svg>