<svg class="icon"  viewBox="0 0 1024 1024" version="1.1" xmlns="http://www.w3.org/2000/svg"><path d="M694.637714 36.790857A36.571429 36.571429 0 0 1 694.857143 40.740571v942.518858a36.571429 36.571429 0 0 1-40.521143 36.352l-603.428571-65.243429a36.571429 36.571429 0 0 1-32.621715-36.352V106.057143A36.571429 36.571429 0 0 1 50.907429 69.632L654.336 4.388571a36.571429 36.571429 0 0 1 40.301714 32.402286zM969.142857 73.142857a36.571429 36.571429 0 0 1 36.571429 36.571429v804.571428a36.571429 36.571429 0 0 1-36.571429 36.571429h-182.857143a18.285714 18.285714 0 0 1-18.285714-18.285714V91.428571a18.285714 18.285714 0 0 1 18.285714-18.285714h182.857143z m-731.428571 237.714286h-73.142857a18.285714 18.285714 0 0 0-18.139429 16.091428L146.285714 329.142857v365.714286a18.285714 18.285714 0 0 0 16.091429 18.139428l2.194286 0.146286h83.821714a18.285714 18.285714 0 0 0 11.117714-3.803428l1.828572-1.536 95.232-95.232 95.232 95.232c2.852571 2.852571 6.582857 4.681143 10.532571 5.12l2.413714 0.219428H548.571429a18.285714 18.285714 0 0 0 18.139428-16.091428l0.146286-2.194286v-365.714286a18.285714 18.285714 0 0 0-16.091429-18.139428L548.571429 310.857143h-73.142858a18.285714 18.285714 0 0 0-18.139428 16.091428l-0.146286 2.194286v228.864L369.517714 470.308571l-1.755428-1.462857a18.285714 18.285714 0 0 0-22.381715 0l-1.755428 1.462857L256 558.08V329.142857a18.285714 18.285714 0 0 0-16.091429-18.139428l-2.194285-0.146286z"  /></svg>