<svg class="icon"  viewBox="0 0 1024 1024" version="1.1" xmlns="http://www.w3.org/2000/svg"><path d="M694.637714 36.790857A36.571429 36.571429 0 0 1 694.857143 40.740571v942.518858a36.571429 36.571429 0 0 1-40.521143 36.352l-603.428571-65.243429a36.571429 36.571429 0 0 1-32.621715-36.352V106.057143A36.571429 36.571429 0 0 1 50.907429 69.632L654.336 4.388571a36.571429 36.571429 0 0 1 40.301714 32.402286zM969.142857 73.142857a36.571429 36.571429 0 0 1 36.571429 36.571429v804.571428a36.571429 36.571429 0 0 1-36.571429 36.571429h-182.857143a18.285714 18.285714 0 0 1-18.285714-18.285714V91.428571a18.285714 18.285714 0 0 1 18.285714-18.285714h182.857143zM273.627429 310.857143h-106.788572a9.142857 9.142857 0 0 0-8.338286 12.946286l0.804572 1.462857L290.084571 512 159.305143 698.733714a9.142857 9.142857 0 0 0 5.851428 14.262857l1.609143 0.146286h106.861715a18.285714 18.285714 0 0 0 13.604571-6.070857l1.462857-1.755429 68.315429-97.645714 68.461714 97.645714a18.285714 18.285714 0 0 0 12.726857 7.68l2.194286 0.146286h106.861714a9.142857 9.142857 0 0 0 8.338286-12.946286l-0.804572-1.462857L424.009143 512l130.779428-186.733714a9.142857 9.142857 0 0 0-5.851428-14.262857l-1.609143-0.146286H440.466286a18.285714 18.285714 0 0 0-13.604572 6.070857l-1.462857 1.755429-68.388571 97.645714-68.388572-97.645714a18.285714 18.285714 0 0 0-14.994285-7.826286z"  /></svg>