<svg class="icon"  viewBox="0 0 1024 1024" version="1.1" xmlns="http://www.w3.org/2000/svg"><path d="M859.428571 0a36.571429 36.571429 0 0 1 36.571429 36.571429v420.571428a18.285714 18.285714 0 0 1-18.285714 18.285714h-73.142857a18.285714 18.285714 0 0 1-18.285715-18.285714V109.714286h-621.714285v804.571428h292.571428a18.285714 18.285714 0 0 1 18.285714 18.285715v73.142857a18.285714 18.285714 0 0 1-18.285714 18.285714h-365.714286a36.571429 36.571429 0 0 1-36.571428-36.571429V36.571429a36.571429 36.571429 0 0 1 36.571428-36.571429h768zM685.714286 512a228.571429 228.571429 0 0 1 192.219428 352.329143l69.339429 69.339428a18.285714 18.285714 0 0 1 0 25.892572l-51.712 51.712a18.285714 18.285714 0 0 1-25.892572 0l-71.606857-71.68A228.571429 228.571429 0 1 1 685.714286 512z m0 109.714286a118.857143 118.857143 0 1 0 0 237.714285 118.857143 118.857143 0 0 0 0-237.714285zM457.142857 365.714286a18.285714 18.285714 0 0 1 18.285714 18.285714v73.142857a18.285714 18.285714 0 0 1-18.285714 18.285714H292.571429a18.285714 18.285714 0 0 1-18.285715-18.285714v-73.142857A18.285714 18.285714 0 0 1 292.571429 365.714286h164.571428zM658.285714 182.857143a18.285714 18.285714 0 0 1 18.285715 18.285714v73.142857A18.285714 18.285714 0 0 1 658.285714 292.571429h-365.714285a18.285714 18.285714 0 0 1-18.285715-18.285715v-73.142857a18.285714 18.285714 0 0 1 18.285715-18.285714h365.714285z" fill="#B2B2B2" /></svg>