<svg class="icon"  viewBox="0 0 1024 1024" version="1.1" xmlns="http://www.w3.org/2000/svg"><path d="M542.573714 438.857143a18.285714 18.285714 0 0 1 18.285715 18.212571l0.292571 67.584-0.073143 27.136-0.219428 18.285715c-2.194286 140.434286-17.993143 275.748571-107.227429 423.497142l-8.045714 13.165715-1.316572 1.974857a18.285714 18.285714 0 0 1-24.576 5.997714l-63.341714-36.571428a18.285714 18.285714 0 0 1-7.68-23.113143l1.170286-2.267429 1.828571-2.779428c52.662857-83.090286 80.164571-163.84 91.867429-258.340572l2.267428-20.041143 1.462857-14.774857 0.731429-9.874286c2.779429-36.352 3.584-75.117714 3.437714-138.459428l-0.292571-51.2c0-10.166857 8.045714-18.358857 18.139428-18.432h73.289143z m203.776 128a18.285714 18.285714 0 0 1 18.285715 18.285714v2.706286c-3.876571 97.28-17.92 234.569143-68.900572 365.275428l-4.534857 11.483429a668.964571 668.964571 0 0 1-6.070857 14.336 18.285714 18.285714 0 0 1-25.965714 8.484571l-63.780572-36.790857a18.285714 18.285714 0 0 1-7.68-22.893714l4.022857-9.874286c6.802286-17.115429 13.092571-34.816 18.797715-53.101714 26.989714-86.601143 39.131429-167.204571 43.666285-262.729143l0.731429-17.554286a18.285714 18.285714 0 0 1 18.285714-17.554285l73.142857-0.073143zM512 219.428571c119.003429 0 218.843429 98.523429 246.491429 214.016l1.316571 6.144a14.628571 14.628571 0 0 1-14.336 17.554286H665.088a18.285714 18.285714 0 0 1-17.408-12.8l-2.267429-6.875428a95.232 95.232 0 0 0-0.731428-1.828572C621.494857 375.442286 567.076571 329.142857 512 329.142857c-71.387429 0-141.750857 77.824-144.237714 162.889143l-0.073143 8.996571 0.219428 14.628572 0.365715 14.848c3.510857 130.706286-11.117714 217.819429-77.019429 336.091428l-7.826286 13.750858a1791.268571 1791.268571 0 0 1-1.024 1.682285 18.285714 18.285714 0 0 1-24.868571 6.582857l-63.488-36.571428a18.285714 18.285714 0 0 1-7.68-23.113143l1.024-1.901714 5.705143-10.020572c79.725714-144.237714 65.389714-232.667429 64.877714-315.757714v-4.534857C257.974857 356.425143 371.712 219.428571 512 219.428571zM512 18.651429c247.442286 0 448 209.334857 448 456.777142l-0.073143 28.964572c-1.024 132.242286-9.362286 229.083429-36.059428 336.969143l-5.12 19.894857-0.731429 2.56a14.628571 14.628571 0 0 1-21.430857 8.777143l-69.924572-40.228572a18.285714 18.285714 0 0 1-8.557714-20.260571l3.072-12.8c21.723429-93.476571 29.110857-183.003429 29.110857-323.876572 0-189.147429-153.746286-347.062857-338.285714-347.062857-64 0-124.342857 19.017143-175.835429 51.785143l-4.388571 2.925714a389.997714 389.997714 0 0 0-2.633143 1.682286 18.285714 18.285714 0 0 1-23.259428-2.194286l-52.662858-52.589714a18.285714 18.285714 0 0 1 2.194286-27.648l3.657143-2.706286A436.662857 436.662857 0 0 1 512 18.651429zM174.006857 206.262857a18.285714 18.285714 0 0 1 2.267429 1.901714l52.662857 52.662858a18.285714 18.285714 0 0 1 2.267428 23.04l-3.730285 5.851428a348.672 348.672 0 0 0-53.686857 179.565714v14.043429l0.146285 15.798857c1.097143 77.092571-4.242286 136.411429-24.722285 199.68l-2.779429 8.265143-3.730286 10.459429a14.628571 14.628571 0 0 1-21.065143 7.68l-69.12-39.936a18.285714 18.285714 0 0 1-8.265142-21.504l3.072-9.728 1.462857-4.973715c18.651429-65.536 15.725714-114.249143 15.286857-163.328L64 475.428571c0-93.769143 28.818286-182.125714 78.043429-255.634285l6.436571-9.289143a18.285714 18.285714 0 0 1 25.526857-4.242286z"  /></svg>