<svg class="icon"  viewBox="0 0 1024 1024" version="1.1" xmlns="http://www.w3.org/2000/svg"><path d="M548.571429 0a18.285714 18.285714 0 0 1 18.285714 18.285714v95.085715a402.505143 402.505143 0 0 1 343.771428 343.771428h95.085715a18.285714 18.285714 0 0 1 18.285714 18.285714v73.142858a18.285714 18.285714 0 0 1-18.285714 18.285714h-95.085715a402.505143 402.505143 0 0 1-343.771428 343.771428v95.085715a18.285714 18.285714 0 0 1-18.285714 18.285714h-73.142858a18.285714 18.285714 0 0 1-18.285714-18.285714v-95.085715a402.505143 402.505143 0 0 1-343.771428-343.771428H18.285714A18.285714 18.285714 0 0 1 0 548.571429v-73.142858a18.285714 18.285714 0 0 1 18.285714-18.285714h95.085715a402.505143 402.505143 0 0 1 343.771428-343.771428V18.285714A18.285714 18.285714 0 0 1 475.428571 0h73.142858zM512 219.428571a292.571429 292.571429 0 1 0 0 585.142858 292.571429 292.571429 0 0 0 0-585.142858z m0 182.857143a109.714286 109.714286 0 1 1 0 219.428572 109.714286 109.714286 0 0 1 0-219.428572z"  /></svg>