<svg class="icon"  viewBox="0 0 1280 1024" version="1.1" xmlns="http://www.w3.org/2000/svg"><path d="M42.666667 981.333333A42.666667 42.666667 0 0 1 0 938.666667V85.333333A42.666667 42.666667 0 0 1 42.666667 42.666667h411.904a42.666667 42.666667 0 0 1 26.624 9.386666L597.333333 144.64h405.248a42.666667 42.666667 0 0 1 42.666667 42.666667L1045.162667 384h149.248a21.333333 21.333333 0 0 1 19.712 29.44l-221.866667 541.44a42.666667 42.666667 0 0 1-39.509333 26.453333H42.666667zM1035.349333 512H330.837333l-139.946666 341.333333h704.682666l139.946667-341.333333zM424.789333 170.666667H128v498.346666l105.984-258.56a42.666667 42.666667 0 0 1 39.509333-26.453333h643.669334V272.725333H552.618667L424.704 170.666667z" fill="#B2B2B2" /></svg>