<svg class="icon"  viewBox="0 0 1024 1024" version="1.1" xmlns="http://www.w3.org/2000/svg"><path d="M823.762294 86.981413a297.741279 297.741279 0 0 0-420.618632 0L82.087192 407.959115a11.027455 11.027455 0 0 0-3.229469 7.876753 11.027455 11.027455 0 0 0 3.150701 7.876754l45.448868 45.370099a11.027455 11.027455 0 0 0 15.674739 0L464.267268 148.105019a209.757944 209.757944 0 0 1 149.264477-61.753747c56.397555 0 109.486873 21.897375 149.18571 61.753747 39.856372 39.93514 61.753747 92.94569 61.753747 149.18571a209.521641 209.521641 0 0 1-61.753747 149.18571L435.359583 773.755544l-53.089318 53.01055a127.209568 127.209568 0 0 1-217.004557-89.794989c0-34.027575 13.232946-65.849659 37.178276-89.873756l324.837311-324.679776a43.400911 43.400911 0 0 1 30.640571-12.681573h0.078768c11.578828 0 22.291212 4.568517 30.404268 12.681573a42.928306 42.928306 0 0 1 0 61.044839L322.958312 648.672699a11.027455 11.027455 0 0 0-3.150702 7.876754 11.027455 11.027455 0 0 0 3.150702 7.876753l45.448867 45.448867a11.027455 11.027455 0 0 0 15.595972 0l265.367823-265.367822c24.417936-24.496703 37.887184-56.948927 37.887184-91.606643 0-34.578948-13.548016-67.188707-37.887184-91.527874a129.887664 129.887664 0 0 0-183.37082 0l-31.507014 31.664548L141.320378 586.05251A211.884667 211.884667 0 0 0 78.778956 737.049873a213.223715 213.223715 0 0 0 213.460017 213.144947 212.672342 212.672342 0 0 0 150.997363-62.383887l380.447191-380.289655a295.929626 295.929626 0 0 0 87.116893-210.230549 294.984416 294.984416 0 0 0-87.038126-210.309316z" fill="#5750ED" /></svg>