<svg class="icon"  viewBox="0 0 1024 1024" version="1.1" xmlns="http://www.w3.org/2000/svg"><path d="M413.842286 591.433143a18.285714 18.285714 0 0 1 18.139428 16.091428l0.146286 2.194286v288.768a9.142857 9.142857 0 0 1-14.336 7.533714l-1.243429-1.097142L306.468571 795.062857l-187.026285 187.099429-1.755429 1.462857a18.285714 18.285714 0 0 1-22.381714 0l-1.755429-1.462857-51.712-51.712-1.462857-1.755429a18.285714 18.285714 0 0 1 0-22.381714l1.462857-1.755429L229.010286 717.531429l-110.445715-110.445715a9.142857 9.142857 0 0 1 4.827429-15.433143l1.682286-0.146285h288.768z m484.644571 0a9.142857 9.142857 0 0 1 7.533714 14.336l-1.097142 1.243428-110.153143 110.153143 187.245714 187.318857a18.285714 18.285714 0 0 1 1.609143 24.137143l-1.536 1.755429-51.712 51.712a18.285714 18.285714 0 0 1-24.137143 1.462857l-1.755429-1.462857-187.245714-187.318857-110.226286 110.153143a9.142857 9.142857 0 0 1-15.433142-4.827429l-0.146286-1.609143V609.718857a18.285714 18.285714 0 0 1 16.091428-18.212571l2.194286-0.073143h288.768zM117.76 40.374857l1.755429 1.536L306.468571 229.010286l110.006858-109.933715a9.142857 9.142857 0 0 1 15.579428 6.436572v288.768a18.285714 18.285714 0 0 1-18.285714 18.285714H125.074286a9.142857 9.142857 0 0 1-6.509715-15.579428l110.445715-110.445715L41.910857 119.515429a18.285714 18.285714 0 0 1-1.462857-24.137143l1.462857-1.755429 51.712-51.712a18.285714 18.285714 0 0 1 24.137143-1.462857z m812.617143 1.536l51.712 51.712a18.285714 18.285714 0 0 1 0 25.892572l-187.245714 187.245714 110.08 110.226286a9.142857 9.142857 0 0 1-6.436572 15.579428H609.718857a18.285714 18.285714 0 0 1-18.285714-18.285714V125.513143a9.142857 9.142857 0 0 1 15.579428-6.436572l110.226286 110.153143 187.245714-187.245714a18.285714 18.285714 0 0 1 25.892572 0z" fill="#B2B2B2" /></svg>