<svg class="icon"  viewBox="0 0 1024 1024" version="1.1" xmlns="http://www.w3.org/2000/svg"><path d="M350.939429 595.236571a18.285714 18.285714 0 0 1 22.381714 0l1.755428 1.536 51.712 51.712 1.462858 1.755429a18.285714 18.285714 0 0 1 0 22.381714l-1.462858 1.755429-187.099428 187.026286 110.445714 110.445714a9.142857 9.142857 0 0 1-4.827428 15.433143l-1.682286 0.146285H54.857143a18.285714 18.285714 0 0 1-18.139429-16.091428L36.571429 969.142857V680.374857a9.142857 9.142857 0 0 1 14.336-7.533714l1.243428 1.024 109.933714 110.006857 187.099429-187.099429 1.755429-1.462857z m297.545142 1.536a18.285714 18.285714 0 0 1 24.137143-1.462857l1.755429 1.462857 187.245714 187.245715 110.226286-110.153143a9.142857 9.142857 0 0 1 15.433143 4.827428l0.146285 1.682286v288.768a18.285714 18.285714 0 0 1-16.091428 18.139429l-2.194286 0.146285H680.374857a9.142857 9.142857 0 0 1-7.533714-14.336l1.024-1.243428 110.226286-110.226286-187.318858-187.245714a18.285714 18.285714 0 0 1-1.462857-24.137143l1.462857-1.755429 51.712-51.712zM343.625143 36.571429a9.142857 9.142857 0 0 1 6.509714 15.579428l-110.445714 110.445714L426.788571 349.622857a18.285714 18.285714 0 0 1 1.462858 24.137143l-1.462858 1.755429-51.712 51.712a18.285714 18.285714 0 0 1-24.137142 1.462857l-1.755429-1.462857-187.099429-187.099429L52.224 350.134857A9.142857 9.142857 0 0 1 36.571429 343.625143V54.857143A18.285714 18.285714 0 0 1 54.857143 36.571429h288.768z m625.517714 0a18.285714 18.285714 0 0 1 18.285714 18.285714v288.768a9.142857 9.142857 0 0 1-15.579428 6.509714L861.622857 239.908571 674.377143 427.227429a18.285714 18.285714 0 0 1-25.892572 0l-51.712-51.712a18.285714 18.285714 0 0 1 0-25.892572l187.245715-187.245714L673.938286 52.150857A9.142857 9.142857 0 0 1 680.374857 36.571429h288.768z" fill="#B2B2B2" /></svg>