<svg class="icon"  viewBox="0 0 1024 1024" version="1.1" xmlns="http://www.w3.org/2000/svg"><path d="M950.857143 548.571429a18.285714 18.285714 0 0 1 18.139428 16.091428l0.146286 2.194286V950.857143a18.285714 18.285714 0 0 1-16.091428 18.139428l-2.194286 0.146286H566.857143a18.285714 18.285714 0 0 1-18.139429-16.091428L548.571429 950.857143V566.857143a18.285714 18.285714 0 0 1 16.091428-18.139429l2.194286-0.146285H950.857143z m-493.714286 0a18.285714 18.285714 0 0 1 18.139429 16.091428l0.146285 2.194286V950.857143a18.285714 18.285714 0 0 1-16.091428 18.139428l-2.194286 0.146286H73.142857a18.285714 18.285714 0 0 1-18.139428-16.091428L54.857143 950.857143V566.857143a18.285714 18.285714 0 0 1 16.091428-18.139429L73.142857 548.571429h384z m402.285714 109.714285H658.285714v201.142857h201.142857V658.285714zM365.714286 658.285714H164.571429v201.142857H365.714286V658.285714z m585.142857-603.428571a18.285714 18.285714 0 0 1 18.139428 16.091428l0.146286 2.194286v384a18.285714 18.285714 0 0 1-16.091428 18.139429L950.857143 475.428571H566.857143a18.285714 18.285714 0 0 1-18.139429-16.091428L548.571429 457.142857V73.142857a18.285714 18.285714 0 0 1 16.091428-18.139428L566.857143 54.857143H950.857143z m-493.714286 0a18.285714 18.285714 0 0 1 18.139429 16.091428L475.428571 73.142857v384a18.285714 18.285714 0 0 1-16.091428 18.139429l-2.194286 0.146285H73.142857a18.285714 18.285714 0 0 1-18.139428-16.091428L54.857143 457.142857V73.142857A18.285714 18.285714 0 0 1 70.948571 55.003429L73.142857 54.857143h384z m402.285714 109.714286H658.285714V365.714286h201.142857V164.571429zM365.714286 164.571429H164.571429V365.714286H365.714286V164.571429z"  /></svg>