<svg class="icon"  viewBox="0 0 1024 1024" version="1.1" xmlns="http://www.w3.org/2000/svg"><path d="M772.266667 245.333333H81.066667c-39.168 0-70.4 32.512-70.4 72.021334v559.957333c0 39.509333 31.232 72.021333 70.4 72.021333h691.2c39.168 0 70.4-32.512 70.4-72.021333V317.354667c0-39.509333-31.232-72.021333-70.4-72.021334z m0 64c3.242667 0 6.4 3.285333 6.4 8.021334v559.957333c0 4.693333-3.157333 8.021333-6.4 8.021333H81.066667c-3.242667 0-6.4-3.285333-6.4-8.021333V317.354667c0-4.693333 3.157333-8.021333 6.4-8.021334h691.2z" fill="#000000" /><path d="M942.933333 74.666667c18.474667 0 36.266667 7.168 49.493334 20.010666 13.354667 12.970667 20.906667 30.72 20.906666 49.322667V704a32 32 0 1 1-64 0V144a4.821333 4.821333 0 0 0-1.536-3.456 6.954667 6.954667 0 0 0-4.864-1.877333H213.333333a32 32 0 0 1 0-64h729.6z" fill="#000000" /></svg>