<svg class="icon"  viewBox="0 0 1024 1024" version="1.1" xmlns="http://www.w3.org/2000/svg"><path d="M410.470346 102.3936h202.995312a50.492844 50.492844 0 0 0 47.805013-51.1968 50.492844 50.492844 0 0 0-47.805013-51.1968H410.470346a50.492844 50.492844 0 0 0-47.805013 51.1968c0 27.582276 21.11868 50.23686 47.805013 51.1968z"  /><path d="M857.162427 51.1968h-79.803012c0.895944 4.863696 1.343916 9.855384 1.407912 14.847072 0 44.733204-38.269608 81.018936-85.498656 81.018937h-350.058122c-47.165052 0-85.43466-36.285732-85.43466-81.018937 0-4.991688 0.447972-9.983376 1.407912-14.847072H166.645585C109.945128 51.1968 63.996 94.778076 63.996 148.534717V926.662084c0 25.790388 10.815324 50.55684 30.07812 68.7957 19.1988 18.302856 45.373164 28.542216 72.571465 28.542216h690.644834c27.1983 0 53.308668-10.23936 72.571465-28.542216 19.262796-18.23886 30.07812-43.005312 30.07812-68.7957V148.470721c0-25.790388-10.87932-50.55684-30.07812-68.859697A105.5934 105.5934 0 0 0 857.098431 51.1968zM231.025561 845.771139a48.63696 48.63696 0 0 1-48.508968-48.63696c0-26.87832 21.75864-48.700956 48.508968-48.700956a48.63696 48.63696 0 0 1 48.444972 48.63696c0 26.87832-21.694644 48.700956-48.444972 48.700956z m0-214.834573a48.63696 48.63696 0 0 1-48.508968-48.63696c0-26.942316 21.75864-48.764952 48.508968-48.764952a48.63696 48.63696 0 0 1 48.444972 48.700956 48.764952 48.764952 0 0 1-48.444972 49.148928v-0.447972z m0-214.3866a48.63696 48.63696 0 0 1-48.508968-48.700957c0-26.87832 21.75864-48.700956 48.508968-48.700956a48.63696 48.63696 0 0 1 0 97.273921v0.127992z m345.386413 405.094681H382.824073a24.31848 24.31848 0 0 1 0-48.63696h193.651897a24.31848 24.31848 0 0 1 0 48.63696z m0-214.834573H382.824073a24.31848 24.31848 0 0 1 0-48.63696h193.651897a24.31848 24.31848 0 0 1 0 48.63696z m249.840385 123.512281v193.075933a18.942816 18.942816 0 0 1-19.646772 19.774764h-65.723892a19.1988 19.1988 0 0 1-19.646772-19.774764v-193.011937a128.439973 128.439973 0 0 1-76.15524-122.744329 128.311981 128.311981 0 0 1 85.946628-116.088744v122.23236h85.370664V491.489282c49.660896 17.27892 83.770764 63.35604 85.946629 116.088744a128.439973 128.439973 0 0 1-76.155241 122.744329z m51.964752-338.218861H382.824073a24.31848 24.31848 0 0 1 0-48.636961h495.457034a24.31848 24.31848 0 0 1 0 48.636961z"  /></svg>