<svg class="icon"  viewBox="0 0 1194 1024" version="1.1" xmlns="http://www.w3.org/2000/svg"><path d="M448 0a277.333333 277.333333 0 0 1 178.688 489.472A405.333333 405.333333 0 0 1 853.333333 853.333333v106.666667a21.333333 21.333333 0 0 1-21.333333 21.333333h-85.333333a21.333333 21.333333 0 0 1-21.333334-21.333333V853.333333a277.333333 277.333333 0 0 0-270.762666-277.333333H448A277.333333 277.333333 0 0 0 170.666667 846.762667v113.237333a21.333333 21.333333 0 0 1-21.333334 21.333333h-85.333333a21.333333 21.333333 0 0 1-21.333333-21.333333V853.333333a405.333333 405.333333 0 0 1 226.645333-363.946666A277.333333 277.333333 0 0 1 448 0z m352.170667 92.330667a64 64 0 0 1 88.746666-17.493334c74.837333 50.176 125.269333 106.666667 145.92 190.464l1.962667 8.448 1.28 6.570667c12.373333 65.365333-3.754667 133.802667-38.741333 189.952l-4.096 6.485333-1.706667 2.56 1.706667 1.194667c43.690667 30.805333 80.725333 74.581333 112.469333 129.365333 34.048 58.88 46.506667 142.165333 40.789333 251.221334a64 64 0 1 1-127.829333-6.741334c4.522667-86.528-4.522667-147.114667-23.808-180.394666-35.072-60.672-74.581333-97.28-121.173333-111.104l-9.301334-2.56a64 64 0 0 1-20.138666-111.445334l7.509333-5.461333c42.752-32.085333 68.864-92.501333 58.026667-142.336-10.837333-49.493333-41.642667-84.736-94.122667-119.893333a64 64 0 0 1-17.493333-88.746667zM448 128a149.333333 149.333333 0 1 0 0 298.666667 149.333333 149.333333 0 0 0 0-298.666667z"  /></svg>