<svg class="icon"  viewBox="0 0 1024 1024" version="1.1" xmlns="http://www.w3.org/2000/svg"><path d="M968.475368 864.995732a35.726183 35.726183 0 0 1-34.588406-25.087972l-49.095056-173.397141a104.675439 104.675439 0 0 0 55.978604-98.759001 105.870105 105.870105 0 0 0-68.266591-91.249676 87.039903 87.039903 0 0 0-14.791094-4.551106 75.889693 75.889693 0 0 0-13.08443-2.104887 32.654186 32.654186 0 0 0-5.176883 0 75.036361 75.036361 0 0 0-7.736881-0.511999 122.367864 122.367864 0 0 0-19.967977 1.820442c-1.137777 0-1.877331 0-3.015108 0.511999a125.95186 125.95186 0 0 0-17.863091 5.290661c-1.137777 0.455111-2.218664 0.796444-3.299552 1.308443-5.688883 2.332442-11.036432 5.119994-16.156427 8.476435-0.853332 0.455111-1.365332 1.023999-2.218664 1.535999a101.830998 101.830998 0 0 0-14.506651 11.60532 102.399886 102.399886 0 0 0-12.060431 14.222206 109.283434 109.283434 0 0 0-10.410655 17.692425c-0.568888 1.137777-0.853332 2.218664-1.42222 3.242663a96.483448 96.483448 0 0 0-5.461328 17.237314c0 0.796444 0 1.820442-0.511999 2.616886a81.749243 81.749243 0 0 0-2.44622 19.854201c0 38.115513 21.503976 73.272807 56.20616 91.704787l-49.151945 173.39714a35.612405 35.612405 0 0 1-34.588406 25.599972c-30.207966 0.113778-54.72705 23.665751-54.840828 52.849719v52.849719c0.113778 29.127079 24.632862 52.735941 54.840828 52.849719h274.317917c30.207966-0.113778 54.72705-23.72264 54.840828-52.906608v-52.79283a52.053275 52.053275 0 0 0-16.213315-37.831069 56.149271 56.149271 0 0 0-39.25329-15.473761z" fill="#030732" /><path d="M673.905029 653.995078a185.457572 185.457572 0 0 1-22.243531-88.17768c0.113778-104.106551 85.105683-188.472679 190.008678-188.586457 9.614212 0.511999 19.114645 1.592887 28.55819 3.299552a22.30042 22.30042 0 0 0 17.976869-5.006217 21.959087 21.959087 0 0 0 7.793769-16.839092v-250.879722A108.202546 108.202546 0 0 0 787.398236 0.001138H108.600768A108.202546 108.202546 0 0 0 0 107.805462v808.390213C0 975.758276 48.639946 1024 108.600768 1024h455.110606a12.913763 12.913763 0 0 0 9.898655-5.063105 12.743097 12.743097 0 0 0 2.275553-10.808877 125.041639 125.041639 0 0 1-5.688882-38.001736v-53.930607c0-45.738616 23.381307-88.405235 62.179486-113.151874a117.759869 117.759869 0 0 0 51.086166-66.787481 111.217654 111.217654 0 0 0-9.557323-82.261242z m-225.73486-34.247073H203.661996a40.561733 40.561733 0 0 1-39.139512-40.391067c0-21.731531 17.294203-39.594623 39.139512-40.391066h244.337506a40.561733 40.561733 0 0 1 39.139512 40.391066 40.561733 40.561733 0 0 1-39.139512 40.391067h0.170667z m0-161.678043H203.661996a40.846177 40.846177 0 0 1-36.636404-19.740422 40.163511 40.163511 0 0 1 0-41.358177 40.846177 40.846177 0 0 1 36.636404-19.740422h244.337506c14.961761-0.568888 29.013301 6.997326 36.636404 19.740422a40.163511 40.163511 0 0 1 0 41.358177 40.846177 40.846177 0 0 1-36.636404 19.740422h0.170667zM203.661996 296.505697a40.561733 40.561733 0 0 1-39.139512-40.391066c0-21.731531 17.294203-39.537734 39.139512-40.391066h461.595931a40.561733 40.561733 0 0 1 39.139513 40.391066 40.561733 40.561733 0 0 1-39.139513 40.391066H203.661996z" fill="#030732" /></svg>