<svg class="icon"  viewBox="0 0 1027 1024" version="1.1" xmlns="http://www.w3.org/2000/svg"><path d="M538.366537 20.114286l486.326857 439.369143a9.142857 9.142857 0 0 1-6.144 15.945142h-102.4v457.142858a36.571429 36.571429 0 0 1-36.571428 36.571428H148.149394a36.571429 36.571429 0 0 1-36.571428-36.571428V475.428571H9.177966a9.142857 9.142857 0 0 1-6.144-15.945142L489.360823 20.114286a36.571429 36.571429 0 0 1 49.005714 0zM513.86368 145.773714L221.292251 410.112v449.316571h585.142858V410.185143L513.86368 145.773714zM678.435109 676.571429a18.285714 18.285714 0 0 1 18.285714 18.285714v73.142857a18.285714 18.285714 0 0 1-18.285714 18.285714h-329.142858a18.285714 18.285714 0 0 1-18.285714-18.285714v-73.142857a18.285714 18.285714 0 0 1 18.285714-18.285714h329.142858z"  /></svg>