<svg class="icon"  viewBox="0 0 1024 1024" version="1.1" xmlns="http://www.w3.org/2000/svg"><path d="M426.666667 113.777778C190.862222 113.777778 0 278.414222 0 481.507556A332.515556 332.515556 0 0 0 78.506667 694.044444c4.494222 5.404444 6.940444 12.060444 6.997333 18.944v124.928a29.809778 29.809778 0 0 0 15.018667 25.827556 33.450667 33.450667 0 0 0 31.175111 1.365333l98.360889-45.511111a33.564444 33.564444 0 0 1 25.486222-1.137778c54.442667 20.48 112.526222 30.947556 171.064889 30.833778 235.918222 0 426.723556-164.636444 426.723555-367.729778C853.333333 278.471111 662.414222 113.777778 426.666667 113.777778zM227.441778 369.607111h261.404444a40.618667 40.618667 0 0 1 39.480889 16.725333c8.533333 12.401778 8.533333 28.444444 0 40.903112a40.618667 40.618667 0 0 1-39.480889 16.668444H227.384889a40.618667 40.618667 0 0 1-39.480889-16.668444 35.896889 35.896889 0 0 1 0-40.96 40.618667 40.618667 0 0 1 39.480889-16.668445z m379.050666 254.122667H227.612444a40.618667 40.618667 0 0 1-39.480888-16.668445 35.896889 35.896889 0 0 1 0-40.96 40.618667 40.618667 0 0 1 39.480888-16.668444h378.766223a40.618667 40.618667 0 0 1 39.480889 16.725333c8.533333 12.401778 8.533333 28.444444 0 40.903111a40.618667 40.618667 0 0 1-39.480889 16.668445h0.056889z" fill="#030732" /><path d="M724.764444 910.222222c-21.845333-0.341333-39.822222-16.099556-41.927111-36.636444-2.048-20.48 12.515556-39.139556 33.848889-43.349334a204.117333 204.117333 0 0 0 89.144889-34.531555 42.097778 42.097778 0 0 1 41.187556-10.183111l42.097777 10.808889v-63.260445c0-9.102222 3.242667-17.863111 9.102223-25.031111a218.168889 218.168889 0 0 0 25.372444-203.776c-8.533333-20.821333 2.332444-44.259556 24.405333-52.337778 22.016-8.135111 46.819556 2.161778 55.409778 22.983111a295.367111 295.367111 0 0 1-28.501333 271.36v102.741334c0 12.515556-6.257778 24.462222-16.839111 32.028444a44.828444 44.828444 0 0 1-37.205334 6.883556l-75.719111-19.342222c-34.133333 20.48-72.305778 34.360889-112.184889 40.846222a39.424 39.424 0 0 1-8.248888 0.796444z" fill="#030732" /></svg>