<svg class="icon"  viewBox="0 0 1024 1024" version="1.1" xmlns="http://www.w3.org/2000/svg"><path d="M890.943443 924.160062c0 12.895992-4.991997 25.279984-13.855991 34.399979a46.719971 46.719971 0 0 1-33.503979 14.239991H180.415887c-12.543992 0-24.607985-5.119997-33.503979-14.239991a49.279969 49.279969 0 0 1-13.855991-34.399979V48.64061c0-12.895992 4.991997-25.279984 13.855991-34.399979A46.719971 46.719971 0 0 1 180.415887 0.00064h406.911746a46.719971 46.719971 0 0 1 33.599979 14.079991l256.28784 263.167836c8.863994 9.183994 13.791991 21.599987 13.759991 34.559978V924.160062z"  /><path d="M890.943443 921.600064v51.199968c0 13.567992-4.991997 26.591983-13.855991 36.191977-8.895994 9.599994-20.959987 15.007991-33.503979 15.007991H180.415887c-26.143984 0-47.35997-22.911986-47.35997-51.199968v-51.199968c0 13.567992 4.991997 26.591983 13.855991 36.191977 8.895994 9.599994 20.959987 15.007991 33.503979 15.007991h663.167586c12.543992 0 24.607985-5.407997 33.503979-15.007991 8.863994-9.599994 13.855991-22.623986 13.855991-36.191977z"  /><path d="M31.99998 537.600304h959.9994v234.655853c0 12.479992-5.055997 24.383985-14.079991 33.18398-8.959994 8.799995-21.183987 13.759991-33.919979 13.759991h-863.99946c-12.735992 0-24.959984-4.959997-33.919979-13.759991A46.399971 46.399971 0 0 1 31.99998 772.256157V537.600304z"  /><path d="M127.96792 537.600304v-102.399936L31.99998 537.600304h95.96794z m767.61552 0l0.96-102.399936L991.99938 537.600304h-96.41594z"  /><path d="M764.639522 762.752163a113.023929 113.023929 0 0 1-76.671952 30.687981 88.127945 88.127945 0 0 1-68.543957-28.671982 102.175936 102.175936 0 0 1-26.719983-73.599954c0-27.103983 10.047994-53.119967 27.903982-72.287955a92.063942 92.063942 0 0 1 67.359958-29.951981 95.42394 95.42394 0 0 1 70.943956 26.591983l-20.479988 26.079984a69.663956 69.663956 0 0 0-51.423967-20.959987 60.575962 60.575962 0 0 0-44.383973 21.407987c-11.519993 13.311992-17.471989 31.039981-16.575989 49.119969-1.343999 18.559988 4.671997 36.831977 16.543989 50.367969 11.871993 13.535992 28.543982 21.055987 45.855972 20.703987 15.83999 0.192 31.35998-4.991997 44.287972-14.815991v-36.799977H698.879563c-3.935998 0-7.135996-3.455998-7.135995-7.679995v-15.359991c0-4.223997 3.199998-7.647995 7.135995-7.647995h58.111964c3.935998 0 7.135996 3.423998 7.135995 7.679995l0.48 75.135953z m-230.015856-102.239936c0-23.519985-15.71199-35.775978-39.519975-35.775977h-38.079977v71.039955h37.599977c24.287985-0.512 39.519975-14.815991 39.519975-36.287977l0.48 1.023999z m32.863979 0a71.679955 71.679955 0 0 1-22.591986 51.903968 61.759961 61.759961 0 0 1-51.199968 16.09599H456.959714v56.223965c0 4.223997-3.199998 7.679995-7.135995 7.679995h-18.111989a6.911996 6.911996 0 0 1-5.023997-2.239999 7.967995 7.967995 0 0 1-2.111998-5.439996V599.680265c0-4.223997 3.199998-7.679995 7.135995-7.679995h65.727959a59.103963 59.103963 0 0 1 49.119969 16.09599c13.439992 12.767992 21.055987 31.135981 20.895987 50.367968v2.047999z m-187.167883 62.367961a65.343959 65.343959 0 0 1-15.26399 51.103968c-12.031992 13.695991-29.151982 20.831987-46.623971 19.455988-23.423985 0.768-45.599972-11.135993-59.071963-31.67998l21.439987-23.551985c8.287995 13.567992 22.079986 22.079986 37.119976 23.039985 17.151989 0 29.055982-12.287992 29.055982-38.879975V599.680265c0-4.223997 3.199998-7.679995 7.167996-7.679995h19.039988c3.935998 0 7.135996 3.455998 7.135995 7.679995v123.199923z"  /><path d="M890.943443 300.640452V307.200448h-255.87184a47.103971 47.103971 0 0 1-47.29597-46.911971V0.00064c12.575992-0.064 24.639985 4.799997 33.599979 13.599991l256.319839 253.759842c8.671995 8.895994 13.439992 20.863987 13.247992 33.279979z"  /></svg>