<svg class="icon"  viewBox="0 0 1194 1024" version="1.1" xmlns="http://www.w3.org/2000/svg"><path d="M0 0m62.388302 0l1039.805037 0q62.388302 0 62.388302 62.388302l0 0q0 62.388302-62.388302 62.388302l-1039.805037 0q-62.388302 0-62.388302-62.388302l0 0q0-62.388302 62.388302-62.388302Z"  /><path d="M0 415.922015m62.388302 0l1039.805037 0q62.388302 0 62.388302 62.388302l0 0q0 62.388302-62.388302 62.388302l-1039.805037 0q-62.388302 0-62.388302-62.388302l0 0q0-62.388302 62.388302-62.388302Z"  /><path d="M0 831.844029m62.388302 0l1039.805037 0q62.388302 0 62.388302 62.388302l0 0q0 62.388302-62.388302 62.388303l-1039.805037 0q-62.388302 0-62.388302-62.388303l0 0q0-62.388302 62.388302-62.388302Z"  /></svg>