<svg class="icon"  viewBox="0 0 1024 1024" version="1.1" xmlns="http://www.w3.org/2000/svg"><path d="M548.571429 768a18.285714 18.285714 0 0 1 18.285714 18.285714v219.428572a18.285714 18.285714 0 0 1-18.285714 18.285714h-73.142858a18.285714 18.285714 0 0 1-18.285714-18.285714v-219.428572a18.285714 18.285714 0 0 1 18.285714-18.285714h73.142858zM305.152 667.136l51.712 51.712a18.285714 18.285714 0 0 1 0 25.892571l-155.209143 155.136a18.285714 18.285714 0 0 1-25.819428 0l-51.712-51.712a18.285714 18.285714 0 0 1 0-25.819428L279.259429 667.062857a18.285714 18.285714 0 0 1 25.892571 0z m439.588571 0l155.136 155.209143a18.285714 18.285714 0 0 1 0 25.819428l-51.712 51.712a18.285714 18.285714 0 0 1-25.819428 0L667.062857 744.740571a18.285714 18.285714 0 0 1 0-25.892571l51.712-51.712a18.285714 18.285714 0 0 1 25.892572 0zM237.714286 457.142857a18.285714 18.285714 0 0 1 18.285714 18.285714v73.142858a18.285714 18.285714 0 0 1-18.285714 18.285714h-219.428572A18.285714 18.285714 0 0 1 0 548.571429v-73.142858a18.285714 18.285714 0 0 1 18.285714-18.285714h219.428572z m768 0a18.285714 18.285714 0 0 1 18.285714 18.285714v73.142858a18.285714 18.285714 0 0 1-18.285714 18.285714h-219.428572a18.285714 18.285714 0 0 1-18.285714-18.285714v-73.142858a18.285714 18.285714 0 0 1 18.285714-18.285714h219.428572z m-157.549715-333.019428l51.712 51.712a18.285714 18.285714 0 0 1 0 25.819428L744.740571 356.937143a18.285714 18.285714 0 0 1-25.892571 0l-51.712-51.712a18.285714 18.285714 0 0 1 0-25.892572l155.209143-155.136a18.285714 18.285714 0 0 1 25.819428 0z m-646.509714 0L356.937143 279.259429a18.285714 18.285714 0 0 1 0 25.892571l-51.712 51.712a18.285714 18.285714 0 0 1-25.892572 0L124.123429 201.654857a18.285714 18.285714 0 0 1 0-25.819428l51.712-51.712a18.285714 18.285714 0 0 1 25.819428 0zM548.571429 0a18.285714 18.285714 0 0 1 18.285714 18.285714v219.428572a18.285714 18.285714 0 0 1-18.285714 18.285714h-73.142858a18.285714 18.285714 0 0 1-18.285714-18.285714v-219.428572A18.285714 18.285714 0 0 1 475.428571 0h73.142858z" fill="#B2B2B2" /></svg>