<svg class="icon"  viewBox="0 0 1024 1024" version="1.1" xmlns="http://www.w3.org/2000/svg"><path d="M512 0a295.384615 295.384615 0 0 1 295.384615 295.384615v118.153847H905.846154a39.384615 39.384615 0 0 1 39.384615 39.384615v531.692308a39.384615 39.384615 0 0 1-39.384615 39.384615H118.153846a39.384615 39.384615 0 0 1-39.384615-39.384615V452.923077a39.384615 39.384615 0 0 1 39.384615-39.384615h98.461539v-118.153847A295.384615 295.384615 0 0 1 512 0z m39.384615 610.461538h-78.76923a19.692308 19.692308 0 0 0-19.53477 17.329231L452.923077 630.153846v177.230769a19.692308 19.692308 0 0 0 17.329231 19.53477l2.363077 0.157538h78.76923a19.692308 19.692308 0 0 0 19.53477-17.329231l0.157538-2.363077V630.153846a19.692308 19.692308 0 0 0-17.329231-19.534769L551.384615 610.461538zM512 118.153846a177.230769 177.230769 0 0 0-177.152 172.032l-0.078769 5.198769v118.153847h354.461538v-118.153847a177.230769 177.230769 0 0 0-172.032-177.152L512 118.153846z" fill="#B2B2B2" /></svg>