<svg class="icon"  viewBox="0 0 1024 1024" version="1.1" xmlns="http://www.w3.org/2000/svg"><path d="M557.714286 18.285714c131.803429 0 241.152 94.939429 261.705143 219.428572l158.573714-42.496a36.571429 36.571429 0 0 1 46.006857 35.328v673.938285a36.571429 36.571429 0 0 1-27.062857 35.328l-304.786286 81.627429a36.571429 36.571429 0 0 1-18.944 0l-322.413714-86.308571a36.571429 36.571429 0 0 0-18.944 0L46.08 1011.565714A36.571429 36.571429 0 0 1 0 976.310857V302.372571a36.571429 36.571429 0 0 1 27.062857-35.328l281.014857-75.337142A265.069714 265.069714 0 0 1 557.714286 18.285714zM294.326857 308.955429L109.714286 358.473143v522.532571l193.828571-51.931428a146.285714 146.285714 0 0 1 69.412572-1.462857l6.217142 1.462857 303.542858 81.334857 231.570285-62.025143V325.851429l-102.326857 27.355428c-27.794286 94.500571-108.836571 193.389714-243.126857 296.594286a18.285714 18.285714 0 0 1-20.187429 1.389714l-2.048-1.389714-8.557714-6.582857c-149.942857-117.028571-231.131429-228.425143-243.712-334.262857zM557.714286 128c-86.162286 0-155.428571 68.388571-155.428572 152.137143 0 62.756571 46.372571 140.434286 146.578286 229.595428l8.777143 7.68 1.755428-1.462857c102.985143-89.746286 151.698286-168.228571 153.673143-231.862857l0.073143-3.949714c0-83.748571-69.266286-152.137143-155.428571-152.137143z m0 82.505143a73.142857 73.142857 0 1 1 0 146.285714 73.142857 73.142857 0 0 1 0-146.285714z" fill="#B2B2B2" /></svg>