<svg class="icon"  viewBox="0 0 1194 1024" version="1.1" xmlns="http://www.w3.org/2000/svg"><path d="M64 0h1066.666667a21.333333 21.333333 0 0 1 21.333333 21.333333v85.333334a21.333333 21.333333 0 0 1-21.333333 21.333333H64a21.333333 21.333333 0 0 1-21.333333-21.333333v-85.333334A21.333333 21.333333 0 0 1 64 0z m469.333333 298.666667h597.333334a21.333333 21.333333 0 0 1 21.333333 21.333333v85.333333a21.333333 21.333333 0 0 1-21.333333 21.333334h-597.333334A21.333333 21.333333 0 0 1 512 405.333333v-85.333333a21.333333 21.333333 0 0 1 21.333333-21.333333z m0 298.666666h597.333334a21.333333 21.333333 0 0 1 21.333333 21.333334v85.333333a21.333333 21.333333 0 0 1-21.333333 21.333333h-597.333334A21.333333 21.333333 0 0 1 512 704v-85.333333A21.333333 21.333333 0 0 1 533.333333 597.333333z m-469.333333 298.666667h1066.666667a21.333333 21.333333 0 0 1 21.333333 21.333333v85.333334a21.333333 21.333333 0 0 1-21.333333 21.333333H64a21.333333 21.333333 0 0 1-21.333333-21.333333v-85.333334a21.333333 21.333333 0 0 1 21.333333-21.333333zM60.842667 274.176l207.616 207.616a42.666667 42.666667 0 0 1 0 60.416L60.842667 749.824A10.666667 10.666667 0 0 1 42.666667 742.229333V281.770667a10.666667 10.666667 0 0 1 18.176-7.594667z"  /></svg>