<svg class="icon"  viewBox="0 0 1024 1024" version="1.1" xmlns="http://www.w3.org/2000/svg"><path d="M749.714116 1024a18.285701 18.285701 0 0 0 18.285701-18.285701v-73.142805a18.285701 18.285701 0 0 0-18.285701-18.285701h-182.857012v-76.799945a402.651141 402.651141 0 0 0 338.943758-316.123203l1.31657-6.436567a17.846844 17.846844 0 0 0-17.554273-21.211414h-75.410232a18.285701 18.285701 0 0 0-17.846844 14.116562l-1.243428 5.193139-0.585142 2.194284A292.717505 292.717505 0 0 1 394.971512 707.072226l57.051388-57.051387A219.5747 219.5747 0 0 0 731.428415 438.857561v-68.242237l273.407804-273.407805a18.285701 18.285701 0 0 0 0-25.892553L953.051114 19.603003a18.285701 18.285701 0 0 0-25.892553 0L22.162636 924.745214a18.285701 18.285701 0 0 0 0 25.81941l51.711963 51.711963a18.285701 18.285701 0 0 0 25.892553 0l213.57699-213.57699c43.446826 24.795411 92.086791 41.691399 143.798754 48.713108V914.285793h-182.857012a18.285701 18.285701 0 0 0-18.285701 18.285701v73.142805c0 10.093707 8.191994 18.285701 18.285701 18.285701h475.428232zM134.948841 493.714664a18.285701 18.285701 0 0 0-18.285701 18.285702l0.073142 1.755427 0.365714 2.047999c8.777137 45.787396 25.453696 88.795365 48.420537 127.634194l3.876569 6.290281 3.364569 5.266282a9.142851 9.142851 0 0 0 14.116561 1.462856l61.951956-61.878813a18.285701 18.285701 0 0 0 3.218283-21.430841l-2.486855-4.900568a290.523221 290.523221 0 0 1-19.967986-52.735963l-1.901713-7.679994a18.285701 18.285701 0 0 0-17.846844-14.116562H134.948841zM512 0.000731a219.428415 219.428415 0 0 0-219.428415 219.428415v219.428415c0 21.211413 2.998855 41.691399 8.630851 61.074242 1.31657 4.607997 3.437712 10.605707 6.290282 17.919987a9.142851 9.142851 0 0 0 14.921132 3.145141l74.605661-74.532518a18.285701 18.285701 0 0 0 5.339424-12.946277L402.285793 219.429146a109.714207 109.714207 0 0 1 216.648988-24.649125l0.877713 4.16914a49.883393 49.883393 0 0 1 0.438857 3.291426 9.142851 9.142851 0 0 0 15.579418 5.339425l67.657094-67.657095a18.285701 18.285701 0 0 0 3.364569-21.211413l-4.16914-7.82628-2.267427-4.022855A219.282129 219.282129 0 0 0 512 0.000731z" fill="#B2B2B2" /></svg>