<svg class="icon"  viewBox="0 0 1024 1024" version="1.1" xmlns="http://www.w3.org/2000/svg"><path d="M274.285714 1024a18.285714 18.285714 0 0 1-18.285714-18.285714v-73.142857a18.285714 18.285714 0 0 1 18.285714-18.285715h182.857143v-76.8A402.651429 402.651429 0 0 1 118.198857 521.289143L116.882286 514.925714a17.846857 17.846857 0 0 1 17.554285-21.211428h75.410286a18.285714 18.285714 0 0 1 17.846857 14.116571l1.243429 5.193143 0.585143 2.194286a292.717714 292.717714 0 0 0 564.882285 0.292571l1.243429-4.827428a326.948571 326.948571 0 0 0 0.731429-2.852572 18.285714 18.285714 0 0 1 17.773714-14.116571h74.898286a18.285714 18.285714 0 0 1 18.285714 18.285714l-0.073143 1.755429-0.365714 2.048a402.578286 402.578286 0 0 1-340.114286 321.609142V914.285714H749.714286a18.285714 18.285714 0 0 1 18.285714 18.285715v73.142857a18.285714 18.285714 0 0 1-18.285714 18.285714h-475.428572zM512 0a219.428571 219.428571 0 0 1 219.428571 219.428571v219.428572a219.428571 219.428571 0 1 1-438.857142 0V219.428571a219.428571 219.428571 0 0 1 219.428571-219.428571z m0 109.714286a109.714286 109.714286 0 0 0-109.641143 105.618285L402.285714 219.428571v219.428572a109.714286 109.714286 0 0 0 219.355429 4.096L621.714286 438.857143V219.428571A109.714286 109.714286 0 0 0 512 109.714286z"  /></svg>