<svg class="icon"  viewBox="0 0 1024 1024" version="1.1" xmlns="http://www.w3.org/2000/svg"><path d="M785.664 665.6c27.648 0 54.848 6.72 79.424 19.648l-112.832 140.992a12.48 12.48 0 0 0 0.96 15.488l2.56 1.92 35.2 27.712a12.672 12.672 0 0 0 15.744-0.96l1.92-2.56 110.592-138.24a183.168 183.168 0 0 1 4.8 224.256 171.2 171.2 0 0 1-211.84 53.376c-74.048-35.52-114.176-119.168-96.512-201.152 17.728-82.048 88.448-140.416 170.112-140.416l-0.128-0.064z m-100.288 153.6l-24.064 102.4 99.584-46.528-75.52-55.872zM576.768 0.128c54.4 0 185.28 20.992 225.344 58.752l66.496 62.528a226.304 226.304 0 0 1 70.4 164.8v335.488c-112.704-79.36-273.024-43.008-342.528 28.48a243.968 243.968 0 0 0-45.568 271.424H172.608c-28.8 0-56.512-11.84-76.8-32.768A113.408 113.408 0 0 1 64 809.728V111.744C64 49.92 112.64 0 172.608 0h483.008L576.768 0.128zM426.88 614.4H194.688c-17.408 1.472-30.72 12.096-31.104 24.96-0.384 12.8 12.16 23.872 29.504 25.92l5.696 0.32h232.064c18.56-1.472 32.384-13.312 31.36-27.008-1.088-13.632-16.64-24.32-35.392-24.192z m253.76-255.872H190.4c-15.488 2.816-26.496 13.056-26.88 24.96-0.256 11.904 10.176 22.528 25.472 25.792l4.928 0.32h490.24c16.192-2.304 27.648-13.12 26.88-25.472 1.088-13.376-12.544-24.896-30.4-25.728v0.128z m0-153.6H190.4c-15.488 2.816-26.496 13.056-26.88 24.96-0.256 11.904 10.176 22.528 25.472 25.792L193.92 256h490.24c16.192-2.304 27.648-13.12 26.88-25.472 1.088-13.376-12.544-24.896-30.4-25.728v0.128z"  /></svg>