<svg class="icon"  viewBox="0 0 3392 1024" version="1.1" xmlns="http://www.w3.org/2000/svg"><path d="M776.344693 101.262351m33.754117 0l270.032937 0q33.754117 0 33.754117 33.754117l0 270.032937q0 33.754117-33.754117 33.754117l-270.032937 0q-33.754117 0-33.754117-33.754117l0-270.032937q0-33.754117 33.754117-33.754117Z" fill="#B2B2B2" /><path d="M1451.427034 101.262351m33.754117 0l270.032937 0q33.754117 0 33.754117 33.754117l0 270.032937q0 33.754117-33.754117 33.754117l-270.032937 0q-33.754117 0-33.754117-33.754117l0-270.032937q0-33.754117 33.754117-33.754117Z" fill="#B2B2B2" /><path d="M101.262351 101.262351m33.754117 0l270.032937 0q33.754117 0 33.754117 33.754117l0 270.032937q0 33.754117-33.754117 33.754117l-270.032937 0q-33.754117 0-33.754117-33.754117l0-270.032937q0-33.754117 33.754117-33.754117Z" fill="#B2B2B2" /></svg>