<svg class="icon" style="width: 1em;height: 1em;vertical-align: middle;fill: currentColor;overflow: hidden;" viewBox="0 0 1024 1024" version="1.1" xmlns="http://www.w3.org/2000/svg"><path d="M938.666667 138.666667a32 32 0 1 1 0 64H369.792a32 32 0 1 1 0-64H938.666667zM938.666667 480a32 32 0 0 1 0 64H369.792a32 32 0 1 1 0-64H938.666667zM938.666667 821.333333a32 32 0 0 1 0 64H369.792a32 32 0 1 1 0-64H938.666667zM166.613333 138.666667a32 32 0 1 1 0 64H85.333333a32 32 0 0 1 0-64h81.28zM166.613333 480a32 32 0 1 1 0 64H85.333333a32 32 0 1 1 0-64h81.237334zM166.613333 821.333333a32 32 0 1 1 0 64H85.333333a32 32 0 1 1 0-64h81.237334z" fill="#000000" /></svg>