<svg class="icon"  viewBox="0 0 1024 1024" version="1.1" xmlns="http://www.w3.org/2000/svg"><path d="M619.7248 870.4a8.533333 8.533333 0 0 1 8.328533 10.4448l-1.501866 6.144a119.466667 119.466667 0 0 1-226.645334 7.714133 120.832 120.832 0 0 1-3.8912-13.858133 8.533333 8.533333 0 0 1 6.7584-10.24l1.501867-0.2048h215.4496z m279.893333-852.104533a17.066667 17.066667 0 0 1 22.528-1.365334l1.570134 1.365334 48.264533 48.264533a17.066667 17.066667 0 0 1 1.365333 22.528l-1.365333 1.6384-121.6512 121.719467c22.528 46.6944 35.703467 98.781867 37.000533 153.8048l0.136534 9.216v341.333333h34.133333a17.066667 17.066667 0 0 1 16.930133 15.018667l0.136534 2.048v68.266666a17.066667 17.066667 0 0 1-15.018667 16.930134L921.6 819.2H243.5072l-116.258133 116.258133a17.066667 17.066667 0 0 1-22.528 1.4336l-1.6384-1.365333-48.264534-48.3328a17.066667 17.066667 0 0 1-1.365333-22.528l1.365333-1.570133L899.549867 18.295467zM512 0c73.250133 0 141.5168 20.957867 199.338667 57.207467l6.5536 4.232533c2.321067 1.501867 5.051733 3.413333 8.192 5.597867a17.066667 17.066667 0 0 1 3.618133 24.439466l-1.365333 1.570134-577.262934 577.194666a8.533333 8.533333 0 0 1-14.404266-4.5056L136.533333 664.1664V375.466667A375.466667 375.466667 0 0 1 512 0z" fill="#B2B2B2" /></svg>