<svg class="icon"  viewBox="0 0 1024 1024" version="1.1" xmlns="http://www.w3.org/2000/svg"><path d="M895.99916 912.000105a47.999955 47.999955 0 0 1-47.999955 47.999955h-671.99937A47.999955 47.999955 0 0 1 127.99988 912.000105v-863.99919A47.999955 47.999955 0 0 1 175.999835 0.00096h412.319613a47.999955 47.999955 0 0 1 34.079969 13.919987l259.679756 259.679756A47.999955 47.999955 0 0 1 895.99916 307.680672V912.000105z" fill="#EBECF0" /><path d="M895.99916 928.00009v47.999955a47.999955 47.999955 0 0 1-47.999955 47.999955h-671.99937A47.999955 47.999955 0 0 1 127.99988 976.000045V928.00009a47.999955 47.999955 0 0 0 47.999955 47.999955h671.99937A47.999955 47.999955 0 0 0 895.99916 928.00009z" fill="#C1C7D0" /><path d="M31.99997 544.00045h959.9991v239.999775a47.999955 47.999955 0 0 1-47.999955 47.999955h-863.99919A47.999955 47.999955 0 0 1 31.99997 784.000225V544.00045z" fill="#FF5630" /><path d="M127.96788 544.00045v-95.99991L31.99997 544.00045h95.96791z m767.61528 0l0.959999-95.99991L991.99907 544.00045h-96.41591z" fill="#DE350B" /><path d="M287.99973 576.06442h83.519922c15.263986-0.703999 30.175972 4.799996 41.279961 15.359986 10.65599 10.65599 16.383985 25.247976 15.839985 40.319962 0.48 15.039986-5.247995 29.599972-15.839985 40.287962-11.487989 10.87999-26.911975 16.575984-42.71996 15.807985h-47.999955v75.32793H287.99973v-187.103825z m32.15997 80.607924h43.199959c8.959992 0.703999 17.855983-1.503999 25.439977-6.239994a23.487978 23.487978 0 0 0 7.679992-19.679981c0-16.319985-10.71999-24.479977-32.15997-24.479977h-44.159958v50.399952z m131.999876-77.759927h75.839929a71.999933 71.999933 0 0 1 57.599946 24.959977c15.167986 19.007982 22.879979 42.87996 21.59998 67.199937a108.863898 108.863898 0 0 1-20.639981 68.607936 70.559934 70.559934 0 0 1-58.559945 28.287973h-75.839929v-189.023823z m32.15997 156.447854H527.999505c13.855987 0.48 27.103975-5.759995 35.519967-16.799985 9.247991-13.695987 13.631987-30.079972 12.479988-46.527956 1.599999-17.119984-3.199997-34.207968-13.439987-47.999955a47.999955 47.999955 0 0 0-36.959966-16.319985h-41.279961v127.647881zM767.99928 609.152389h-99.359907v44.639958H767.99928v30.719971h-99.359907v80.575925H636.479403v-187.103825H767.99928v31.167971z" fill="#FFFFFF" /><path d="M927.99913 313.152666V320.00066h-270.079747C630.335409 320.00066 607.99943 298.112681 607.99943 271.136706V0.00096c13.279988-0.064 26.015976 5.023995 35.455967 14.175987l270.559746 264.319752c9.151991 9.279991 14.175987 21.75998 13.983987 34.655967z" fill="#C1C7D0" /></svg>