<svg class="icon"  viewBox="0 0 1024 1024" version="1.1" xmlns="http://www.w3.org/2000/svg"><path d="M617.691429 238.153143l168.082285 168.082286a36.571429 36.571429 0 0 1 0 51.712l-537.014857 537.088a36.571429 36.571429 0 0 1-25.892571 10.678857H54.857143a36.571429 36.571429 0 0 1-36.571429-36.571429v-168.155428a36.571429 36.571429 0 0 1 10.678857-25.819429l537.014858-537.014857a36.571429 36.571429 0 0 1 51.712 0zM830.025143 25.892571l168.082286 168.082286a36.571429 36.571429 0 0 1 0 51.712L915.017143 328.630857a36.571429 36.571429 0 0 1-51.712 0L695.296 160.548571a36.571429 36.571429 0 0 1 0-51.712L778.24 25.892571a36.571429 36.571429 0 0 1 51.785143 0z"  /></svg>