<svg class="icon"  viewBox="0 0 1024 1024" version="1.1" xmlns="http://www.w3.org/2000/svg"><path d="M78.409143 36.571429h270.043428a36.571429 36.571429 0 0 1 36.571429 34.742857l0.292571 5.924571c4.461714 66.925714 19.821714 130.852571 44.324572 190.025143l3.730286 8.704 5.412571 12.288 4.681143 9.801143c2.925714 5.997714 5.851429 11.995429 8.923428 17.846857l4.754286 8.777143 3.291429 5.924571 3.876571 6.729143a36.571429 36.571429 0 0 1-12.873143 50.102857l-1.609143 0.877715-9.801142 4.681142c-3.803429 1.901714-7.241143 3.657143-10.24 5.339429l-3.949715 2.194286-4.388571 2.56a418.962286 418.962286 0 0 0-32.694857 21.211428l-8.045715 5.851429-4.900571 3.730286A606.134857 606.134857 0 0 0 584.850286 645.12l5.12 3.072 5.924571-7.899429 3.730286-5.12 5.632-8.045714 5.339428-8.045714 4.827429-7.606857 6.217143-10.24a397.897143 397.897143 0 0 0 8.704-15.872l3.291428-6.582857 4.608-9.508572a28.525714 28.525714 0 0 1 41.179429-13.750857l5.266286 3.145143 2.340571 1.389714a599.917714 599.917714 0 0 0 248.978286 77.750857l12.068571 0.950857 4.608 0.219429a36.571429 36.571429 0 0 1 34.742857 36.571429v270.043428a36.571429 36.571429 0 0 1-32.182857 36.278857l-5.705143 0.731429c-29.622857 3.145143-59.684571 4.827429-90.112 4.827428C404.992 987.428571 36.571429 619.008 36.571429 164.571429c0-23.625143 1.024-47.030857 2.925714-70.144l1.682286-17.261715 0.950857-8.484571A36.571429 36.571429 0 0 1 78.409143 36.571429zM282.697143 146.285714H146.505143l-0.073143 4.242286L146.285714 164.571429C146.285714 558.445714 465.554286 877.714286 859.428571 877.714286c4.681143 0 9.362286 0 14.043429-0.146286l4.242286-0.146286v-136.045714a708.022857 708.022857 0 0 1-169.764572-48.493714l-11.556571-5.046857-1.901714 2.925714-3.437715 4.973714-4.827428 6.802286-5.046857 6.802286a566.198857 566.198857 0 0 1-35.693715 43.154285l-10.093714 10.825143a593.627429 593.627429 0 0 1-20.48 20.260572 706.413714 706.413714 0 0 1-34.084571-15.725715l-11.190858-5.632-9.874285-5.12-12.946286-7.168-9.874286-5.632-7.241143-4.315428-8.630857-5.266286-9.728-6.144a717.019429 717.019429 0 0 1-209.554285-206.116571l-7.241143-11.117715a713.508571 713.508571 0 0 1-5.851429-9.289143l6.582857 10.532572a712.045714 712.045714 0 0 1-9.874285-15.945143l-6.948572-11.702857-6.070857-10.678857-3.218286-5.851429-5.412571-10.166857-4.754286-9.289143-4.022857-8.045714-2.486857-5.12a709.193143 709.193143 0 0 1-12.141714-26.843429l11.483428-11.849143 10.020572-9.801142 4.754285-4.388572 8.338286-7.68 11.264-9.874286 5.266286-4.388571 8.630857-7.094857 10.093714-7.826286 7.021714-5.266286 7.314286-5.412571 3.657143-2.56 7.899429-5.412571A708.242286 708.242286 0 0 1 282.697143 146.285714z" fill="#B2B2B2" /></svg>