<svg class="icon"  viewBox="0 0 1024 1024" version="1.1" xmlns="http://www.w3.org/2000/svg"><path d="M512 48a384 384 0 0 1 384 384c0 135.04-116.8 307.904-350.4 518.528l-23.04 20.48a16 16 0 0 1-21.12 0l-14.784-13.056-16.512-14.912C242.048 735.808 128 565.44 128 432a384 384 0 0 1 384-384z m0 96a288 288 0 0 0-288 288c0 93.248 89.856 232.192 274.816 406.784l13.184 12.352 5.568-5.12c187.712-175.744 280.064-315.904 282.368-410.432l0.064-3.584A288 288 0 0 0 512 144zM512 256a176 176 0 1 1 0 352A176 176 0 0 1 512 256z m0 96A80 80 0 1 0 512 512a80 80 0 0 0 0-160z" fill="#B2B2B2" /></svg>