<svg class="icon"  viewBox="0 0 1024 1024" version="1.1" xmlns="http://www.w3.org/2000/svg"><path d="M987.428571 0a36.571429 36.571429 0 0 1 36.571429 36.571429v950.857142a36.571429 36.571429 0 0 1-36.571429 36.571429H36.571429a36.571429 36.571429 0 0 1-36.571429-36.571429V36.571429A36.571429 36.571429 0 0 1 36.571429 0h950.857142z m-73.142857 109.714286h-804.571428v804.571428h804.571428v-804.571428zM548.571429 219.428571a18.285714 18.285714 0 0 1 18.285714 18.285715v219.428571h219.428571a18.285714 18.285714 0 0 1 18.285715 18.285714v73.142858a18.285714 18.285714 0 0 1-18.285715 18.285714h-219.428571v219.428571a18.285714 18.285714 0 0 1-18.285714 18.285715h-73.142858a18.285714 18.285714 0 0 1-18.285714-18.285715v-219.428571h-219.428571A18.285714 18.285714 0 0 1 219.428571 548.571429v-73.142858a18.285714 18.285714 0 0 1 18.285715-18.285714h219.428571v-219.428571A18.285714 18.285714 0 0 1 475.428571 219.428571h73.142858z"  /></svg>