<svg class="icon"  viewBox="0 0 1024 1024" version="1.1" xmlns="http://www.w3.org/2000/svg"><path d="M868.126915 927.99948v47.99994c0 12.735984-5.119994 24.959969-14.175982 33.919958-9.055989 9.023989-21.375973 14.079982-34.239958 14.079982H142.367822a48.19194 48.19194 0 0 1-48.415939-47.99994V927.99948c0 12.735984 5.119994 24.959969 14.175982 33.919958 9.087989 9.023989 21.407973 14.079982 34.239957 14.079982h677.407153c12.831984 0 25.151969-5.055994 34.239957-14.079982 9.055989-8.959989 14.143982-21.183974 14.143983-33.919958z" fill="#C1C7D0" /><path d="M900.126875 942.399462c0 13.151984-5.119994 25.759968-14.175982 35.071956-9.055989 9.279988-21.375973 14.527982-34.239958 14.527982H174.367782c-12.831984 0-25.151969-5.215993-34.239957-14.527982a50.239937 50.239937 0 0 1-14.175982-35.071956V49.600578c0-13.151984 5.119994-25.759968 14.175982-35.071956C149.183814 5.248633 161.503798 0.00064 174.335782 0.00064h415.615481c12.863984-0.064 25.247968 5.119994 34.367957 14.399982l261.759672 268.319665c9.087989 9.375988 14.111982 22.047972 14.047983 35.199956V942.399462z" fill="#EBECF0" /><path d="M31.99996 543.99996h959.9988v239.9997a47.99994 47.99994 0 0 1-47.99994 47.99994h-863.99892A47.99994 47.99994 0 0 1 31.99996 783.99966V543.99996z" fill="#5E6C84" /><path d="M127.96784 512v-95.99988L31.99996 512h95.96788z m767.615041 0l0.959998-95.99988L991.99876 512h-96.415879z" fill="#172B4D" /><path d="M775.231031 739.135716a120.31985 120.31985 0 0 1-77.983903 28.799964 93.503883 93.503883 0 0 1-69.695912-26.879966A91.551886 91.551886 0 0 1 600.38325 671.9998c0-25.439968 10.239987-49.823938 28.383964-67.839915a97.343878 97.343878 0 0 1 68.479914-28.063965 101.855873 101.855873 0 0 1 72.15991 24.959969l-20.799974 24.415969a74.047907 74.047907 0 0 0-52.319934-19.647975 63.74392 63.74392 0 0 0-44.447945 19.423975c-11.615985 12.031985-17.919978 28.159965-17.535978 44.799944-1.375998 17.407978 4.735994 34.559957 16.799979 47.263941 12.095985 12.671984 29.023964 19.743975 46.623942 19.391976 16.12798 0.192 31.90396-4.671994 45.055944-13.887983V688.31978h-40.19195a7.77599 7.77599 0 0 1-5.503993-2.239998 7.64799 7.64799 0 0 1-2.239998-5.439993v-10.559987c0-2.015997 0.799999-3.967995 2.239998-5.407993a7.77599 7.77599 0 0 1 5.503993-2.239997h64.895919c2.047997 0 3.999995 0.799999 5.439993 2.239997 1.471998 1.439998 2.303997 3.391996 2.303997 5.439993v69.023914z m-247.487691-31.61596v-120.35185a7.67999 7.67999 0 0 1 7.743991-7.67999h16.959978c2.047997 0 4.031995 0.799999 5.471994 2.239997 1.471998 1.439998 2.271997 3.391996 2.271997 5.439993v170.207787a7.64799 7.64799 0 0 1-2.239997 5.439993 7.77599 7.77599 0 0 1-5.503994 2.239998h-15.99998a7.77599 7.77599 0 0 1-6.271992-2.879997l-101.215873-128.959839v124.159845a7.67999 7.67999 0 0 1-7.743991 7.679991h-16.959978a7.77599 7.77599 0 0 1-5.471993-2.239998 7.64799 7.64799 0 0 1-2.271998-5.439993v-170.239787a7.67999 7.67999 0 0 1 7.743991-7.64799h19.359975c2.463997-0.064 4.799994 0.959999 6.303993 2.879996l97.823877 125.119844z m-198.079752-64.735919c0-22.079972-15.96798-33.567958-40.19195-33.567959h-38.719951v66.655917H288.959639c25.183969 0 40.671949-13.439983 40.671949-33.087958z m33.439958 0a64.959919 64.959919 0 0 1-23.359971 48.031939 66.335917 66.335917 0 0 1-51.711935 14.783982H250.751687v51.775935a7.67999 7.67999 0 0 1-7.775991 7.679991H225.599718a7.77599 7.77599 0 0 1-5.503993-2.239998 7.64799 7.64799 0 0 1-2.239997-5.439993v-170.239787a7.67999 7.67999 0 0 1 7.74399-7.64799h66.335917a63.359921 63.359921 0 0 1 49.919938 15.103981c13.663983 11.967985 21.439973 29.183964 21.279973 47.231941v0.959999z" fill="#FFFFFF" /><path d="M900.126875 313.184249V320.00024H638.719202c-26.655967 0-48.31994-21.823973-48.31994-48.767939V0.00064c12.927984 0.064 25.279968 5.311993 34.335957 14.623982l261.823673 263.90367c8.863989 9.279988 13.759983 21.759973 13.535983 34.655957z" fill="#C1C7D0" /></svg>