<svg class="icon"  viewBox="0 0 1024 1024" version="1.1" xmlns="http://www.w3.org/2000/svg"><path d="M438.857143 566.857143a18.285714 18.285714 0 0 1 18.285714 18.285714v384a18.285714 18.285714 0 0 1-18.285714 18.285714H54.857143a18.285714 18.285714 0 0 1-18.285714-18.285714V585.142857a18.285714 18.285714 0 0 1 18.285714-18.285714H438.857143z m256 0a18.285714 18.285714 0 0 1 18.285714 18.285714v73.142857h109.714286V585.142857a18.285714 18.285714 0 0 1 18.285714-18.285714h128a18.285714 18.285714 0 0 1 18.285714 18.285714v73.142857a18.285714 18.285714 0 0 1-18.285714 18.285715h-109.714286v73.142857a18.285714 18.285714 0 0 1-18.285714 18.285714H804.571429V877.714286h73.142857v-73.142857a18.285714 18.285714 0 0 1 18.285714-18.285715h73.142857a18.285714 18.285714 0 0 1 18.285714 18.285715v164.571428a18.285714 18.285714 0 0 1-16.091428 18.139429l-2.194286 0.146285h-146.285714a18.285714 18.285714 0 0 1-18.285714-18.285714v-73.142857H676.571429v73.142857a18.285714 18.285714 0 0 1-18.285715 18.285714H585.142857a18.285714 18.285714 0 0 1-18.285714-18.285714v-146.285714A18.285714 18.285714 0 0 1 585.142857 804.571429h91.428572v-18.285715a18.285714 18.285714 0 0 1 18.285714-18.285714h18.285714v-54.857143H585.142857a18.285714 18.285714 0 0 1-18.285714-18.285714V585.142857A18.285714 18.285714 0 0 1 585.142857 566.857143h109.714286z m-347.428572 109.714286H146.285714V877.714286h201.142857V676.571429zM438.857143 36.571429a18.285714 18.285714 0 0 1 18.285714 18.285714V438.857143a18.285714 18.285714 0 0 1-18.285714 18.285714H54.857143A18.285714 18.285714 0 0 1 36.571429 438.857143V54.857143A18.285714 18.285714 0 0 1 54.857143 36.571429H438.857143z m530.285714 0a18.285714 18.285714 0 0 1 18.285714 18.285714V438.857143a18.285714 18.285714 0 0 1-18.285714 18.285714H585.142857A18.285714 18.285714 0 0 1 566.857143 438.857143V54.857143A18.285714 18.285714 0 0 1 585.142857 36.571429h384zM347.428571 146.285714H146.285714v201.142857h201.142857V146.285714zM877.714286 146.285714H676.571429v201.142857H877.714286V146.285714z"  /></svg>