<svg class="icon"  viewBox="0 0 1024 1024" version="1.1" xmlns="http://www.w3.org/2000/svg"><path d="M512 0a512 512 0 1 1 0 1024A512 512 0 0 1 512 0z m36.571429 694.857143h-73.142858a18.285714 18.285714 0 0 0-18.139428 16.091428l-0.146286 2.194286v73.142857a18.285714 18.285714 0 0 0 16.091429 18.139429L475.428571 804.571429h73.142858a18.285714 18.285714 0 0 0 18.139428-16.091429l0.146286-2.194286v-73.142857a18.285714 18.285714 0 0 0-16.091429-18.139428L548.571429 694.857143zM512 219.428571a188.708571 188.708571 0 0 0-180.443429 133.558858l-1.389714 4.973714-0.731428 2.925714a18.285714 18.285714 0 0 0 13.092571 21.942857l2.048 0.365715 66.56 9.801142a18.285714 18.285714 0 0 0 20.114286-12.726857 69.705143 69.705143 0 0 1 3.364571-9.216 85.869714 85.869714 0 0 1 163.108572 36.937143c0 46.08-36.278857 83.602286-81.773715 85.577143L512 493.714286h-36.571429a18.285714 18.285714 0 0 0-18.139428 16.091428L457.142857 512v91.428571a18.285714 18.285714 0 0 0 16.091429 18.139429l2.194285 0.146286h73.142858a18.285714 18.285714 0 0 0 18.139428-16.091429l0.146286-2.194286v-14.994285A188.708571 188.708571 0 0 0 512 219.428571z"  /></svg>