<svg class="icon"  viewBox="0 0 1025 1024" version="1.1" xmlns="http://www.w3.org/2000/svg"><path d="M523.41754 22.835081c-276.491929 0-500.58246 224.090531-500.582459 500.582459s224.090531 500.58246 500.582459 500.58246 500.58246-224.090531 500.58246-500.58246S799.909469 22.835081 523.41754 22.835081z m0 63.904143c241.131636 0 436.678316 195.504077 436.678316 436.678316 0 241.131636-195.54668 436.678316-436.678316 436.678316-241.174239 0-436.678316-195.54668-436.678316-436.678316 0-241.174239 195.504077-436.678316 436.678316-436.678316z"  /><path d="M657.019804 344.613746a31.952072 31.952072 0 0 1 45.158928 45.158928L389.815277 702.221335a31.952072 31.952072 0 0 1-45.158928-45.158929l312.406057-312.44866z"  /><path d="M344.613746 344.613746a31.952072 31.952072 0 0 1 45.158928 0l312.448661 312.406058a31.952072 31.952072 0 0 1-45.158929 45.158928L344.571143 389.815277a31.952072 31.952072 0 0 1 0-45.158928z"  /></svg>