<svg class="icon"  viewBox="0 0 1024 1024" version="1.1" xmlns="http://www.w3.org/2000/svg"><path d="M987.062857 531.017143l-0.146286 3.291428a475.428571 475.428571 0 0 1-782.555428 340.187429l-77.970286 77.970286a9.728 9.728 0 0 1-16.676571-6.875429V696.100571c0-10.825143 8.777143-19.529143 19.529143-19.529142h249.490285a9.728 9.728 0 0 1 6.875429 16.676571L282.331429 796.525714a365.714286 365.714286 0 0 0 595.017142-266.825143 18.285714 18.285714 0 0 1 18.285715-17.773714h73.216a18.285714 18.285714 0 0 1 18.285714 19.017143zM512 36.571429c117.321143 0 224.694857 42.496 307.638857 112.932571L897.609143 71.533714a9.728 9.728 0 0 1 16.676571 6.875429v249.490286c0 10.825143-8.777143 19.529143-19.529143 19.529142H645.266286a9.728 9.728 0 0 1-6.875429-16.676571L741.668571 227.474286a365.714286 365.714286 0 0 0-595.017142 266.898285 18.285714 18.285714 0 0 1-18.285715 17.700572H55.296a18.285714 18.285714 0 0 1-18.285714-19.602286A475.428571 475.428571 0 0 1 512 36.571429z"  /></svg>