<svg class="icon"  viewBox="0 0 1024 1024" version="1.1" xmlns="http://www.w3.org/2000/svg"><path d="M512 36.571429c117.321143 0 224.694857 42.496 307.638857 112.932571L897.609143 71.533714a9.728 9.728 0 0 1 16.676571 6.875429v249.490286c0 10.825143-8.777143 19.529143-19.529143 19.529142H645.266286a9.728 9.728 0 0 1-6.875429-16.676571L741.668571 227.474286a365.714286 365.714286 0 1 0 135.606858 302.08 18.285714 18.285714 0 0 1 18.139428-17.481143h73.289143a18.285714 18.285714 0 0 1 18.285714 19.894857A475.428571 475.428571 0 1 1 512 36.571429z" fill="#B2B2B2" /></svg>