<svg class="icon"  viewBox="0 0 1024 1024" version="1.1" xmlns="http://www.w3.org/2000/svg"><path d="M128 658.285714a18.285714 18.285714 0 0 1 18.285714 18.285715V877.714286h201.142857a18.285714 18.285714 0 0 1 18.285715 18.285714v73.142857a18.285714 18.285714 0 0 1-18.285715 18.285714H73.142857a36.571429 36.571429 0 0 1-36.571428-36.571428V676.571429A18.285714 18.285714 0 0 1 54.857143 658.285714h73.142857z m841.142857 0a18.285714 18.285714 0 0 1 18.285714 18.285715V950.857143a36.571429 36.571429 0 0 1-36.571428 36.571428H676.571429a18.285714 18.285714 0 0 1-18.285715-18.285714v-73.142857a18.285714 18.285714 0 0 1 18.285715-18.285714H877.714286V676.571429a18.285714 18.285714 0 0 1 18.285714-18.285715h73.142857z m0-201.142857a18.285714 18.285714 0 0 1 18.285714 18.285714v73.142858a18.285714 18.285714 0 0 1-18.285714 18.285714H54.857143A18.285714 18.285714 0 0 1 36.571429 548.571429v-73.142858a18.285714 18.285714 0 0 1 18.285714-18.285714h914.285714zM347.428571 36.571429A18.285714 18.285714 0 0 1 365.714286 54.857143v73.142857a18.285714 18.285714 0 0 1-18.285715 18.285714H146.285714v201.142857a18.285714 18.285714 0 0 1-18.285714 18.285715h-73.142857a18.285714 18.285714 0 0 1-18.285714-18.285715V73.142857A36.571429 36.571429 0 0 1 73.142857 36.571429h274.285714zM950.857143 36.571429a36.571429 36.571429 0 0 1 36.571428 36.571428v274.285714a18.285714 18.285714 0 0 1-18.285714 18.285715h-73.142857a18.285714 18.285714 0 0 1-18.285714-18.285715V146.285714H676.571429A18.285714 18.285714 0 0 1 658.285714 128v-73.142857A18.285714 18.285714 0 0 1 676.571429 36.571429H950.857143z"  /></svg>