<svg class="icon"  viewBox="0 0 1024 1024" version="1.1" xmlns="http://www.w3.org/2000/svg"><path d="M391.04 488.32l75.52 96.896-81.28 104.384A184 184 0 1 1 284.416 615.04L391.04 488.32zM815.936 58.56c20.096 15.68 24.32 44.16 10.112 64.96l-1.792 2.432-238.528 306.24 153.984 182.848a184 184 0 1 1-100.928 74.56L199.808 125.952a48.064 48.064 0 0 1 8.32-67.392 49.792 49.792 0 0 1 68.8 7.168L512 344.768l235.136-279.04a49.792 49.792 0 0 1 68.736-7.168zM232 703.488a88 88 0 1 0 0 176 88 88 0 0 0 0-176z m560 0a88 88 0 1 0 0 176 88 88 0 0 0 0-176z" fill="#B2B2B2" /></svg>