<svg class="icon"  viewBox="0 0 1170 1024" version="1.1" xmlns="http://www.w3.org/2000/svg"><path d="M683.446857 57.782857l15.872 125.952a347.136 347.136 0 0 1 116.443429 68.461714l97.28-56.173714 114.614857 174.006857-101.156572 76.8a349.549714 349.549714 0 0 1-0.950857 135.021715l97.28 56.100571-93.476571 186.294857-117.101714-49.298286a346.916571 346.916571 0 0 1-117.394286 66.779429v112.274286l-208.018286 12.214857-15.872-125.952a347.136 347.136 0 0 1-116.443428-68.388572l-97.28 56.100572L142.628571 653.970286l101.156572-76.8a349.549714 349.549714 0 0 1 0.950857-135.021715l-97.28-56.100571L241.005714 199.68l117.174857 49.298286A346.916571 346.916571 0 0 1 475.428571 182.272V69.997714L683.446857 57.782857zM585.142857 310.857143c-55.588571 0-105.837714 22.528-142.262857 58.88A200.484571 200.484571 0 0 0 384 512c0 55.588571 22.528 105.837714 58.88 142.262857A200.484571 200.484571 0 0 0 585.142857 713.142857c55.588571 0 105.837714-22.528 142.262857-58.88A200.484571 200.484571 0 0 0 786.285714 512c0-55.588571-22.528-105.837714-58.88-142.262857A200.484571 200.484571 0 0 0 585.142857 310.857143z" fill="#B2B2B2" /></svg>