<svg class="icon" style="width: 1em;height: 1em;vertical-align: middle;fill: currentColor;overflow: hidden;" viewBox="0 0 1024 1024" version="1.1" xmlns="http://www.w3.org/2000/svg"><path d="M906.666667 32c19.157333 0 37.333333 8.192 50.432 22.485333 12.586667 13.738667 19.541333 32 19.541333 50.944v165.632a32 32 0 1 1-64 0V105.386667a11.477333 11.477333 0 0 0-2.730667-7.68c-1.109333-1.237333-2.261333-1.749333-3.242666-1.749334H71.552c-0.981333 0-2.133333 0.512-3.285333 1.749334a11.477333 11.477333 0 0 0-2.688 7.68v165.632a32 32 0 0 1-64 0V105.386667c0-18.901333 6.912-37.205333 19.541333-50.944A68.394667 68.394667 0 0 1 71.552 32H906.666667z" fill="#000000" /><path d="M521.088 933.632a32 32 0 1 1-64 0V64a32 32 0 0 1 64 0v869.632z" fill="#000000" /><path d="M112.213333 453.333333l762.666667 5.333334a32 32 0 0 1-0.426667 64L111.786667 517.333333a32 32 0 0 1 0.426666-64z" fill="#FF4747" /><path d="M323.413333 965.632a32 32 0 1 1 0-64h331.349334a32 32 0 0 1 0 64H323.413333z" fill="#000000" /></svg>