<svg class="icon"  viewBox="0 0 1170 1024" version="1.1" xmlns="http://www.w3.org/2000/svg"><path d="M1127.424 768c23.625143 0 42.861714 19.968 42.861714 44.617143 0 116.516571-80.091429 211.382857-178.468571 211.382857H178.468571C80.091429 1024 0 929.133714 0 812.617143c0-24.649143 19.236571-44.617143 42.861714-44.617143 23.698286 0 42.934857 19.968 42.934857 44.617143 0 66.194286 42.422857 122.294857 92.672 122.294857h813.348572c50.249143 0 92.672-56.027429 92.672-122.368 0-24.576 19.236571-44.544 42.934857-44.544zM548.571429 741.229714a73.142857 73.142857 0 1 1 73.142857 126.683429 73.142857 73.142857 0 0 1-73.142857-126.683429zM585.142857 0c11.702857 0 22.747429 5.12 31.012572 14.043429l165.156571 180.736c11.044571 12.141714 15.36 29.769143 11.337143 46.299428a46.08 46.08 0 0 1-31.012572 33.938286 41.252571 41.252571 0 0 1-42.276571-12.434286L628.955429 163.620571v471.113143c0 26.477714-19.602286 47.908571-43.885715 47.908572-24.137143 0-43.739429-21.430857-43.739428-47.908572V163.547429L450.852571 262.582857a41.691429 41.691429 0 0 1-30.939428 14.043429 43.958857 43.958857 0 0 1-40.448-29.549715 51.2 51.2 0 0 1 9.508571-52.224L554.203429 14.043429A41.984 41.984 0 0 1 585.142857 0z"  /></svg>