<svg class="icon"  viewBox="0 0 1024 1024" version="1.1" xmlns="http://www.w3.org/2000/svg"><path d="M420.571429 36.571429A18.285714 18.285714 0 0 1 438.857143 54.857143v73.142857a18.285714 18.285714 0 0 1-18.285714 18.285714H146.285714v731.428572h731.428572V603.428571a18.285714 18.285714 0 0 1 18.285714-18.285714h73.142857a18.285714 18.285714 0 0 1 18.285714 18.285714V950.857143a36.571429 36.571429 0 0 1-36.571428 36.571428H73.142857a36.571429 36.571429 0 0 1-36.571428-36.571428V73.142857A36.571429 36.571429 0 0 1 73.142857 36.571429h347.428572zM950.857143 36.571429a36.571429 36.571429 0 0 1 36.571428 36.571428v343.625143a9.142857 9.142857 0 0 1-15.579428 6.509714L825.051429 276.48 532.114286 569.490286a18.285714 18.285714 0 0 1-25.819429 0l-51.785143-51.785143a18.285714 18.285714 0 0 1 0-25.819429L747.52 198.948571 600.722286 52.077714A9.142857 9.142857 0 0 1 607.232 36.571429H950.857143z" fill="#B2B2B2" /></svg>