<svg class="icon"  viewBox="0 0 1024 1024" version="1.1" xmlns="http://www.w3.org/2000/svg"><path d="M767.977328 0a201.125043 201.125043 0 1 1-136.033666 349.226211L416.922707 473.338647a202.148953 202.148953 0 0 1-0.877637 81.181381l212.826864 123.01539a201.125043 201.125043 0 1 1-55.583648 94.638475L364.264514 651.498867a201.125043 201.125043 0 1 1 2.852319-276.089832l207.195362-119.57798A201.271316 201.271316 0 0 1 767.977328 0z m0 731.363793a91.420474 91.420474 0 1 0 0 182.840949 91.420474 91.420474 0 0 0 0-182.840949zM219.454483 420.534181a91.420474 91.420474 0 1 0 0 182.840949 91.420474 91.420474 0 0 0 0-182.840949z m548.522845-310.829612a91.420474 91.420474 0 1 0 0 182.840948 91.420474 91.420474 0 0 0 0-182.840948z" fill="#B2B2B2" /></svg>