<svg class="icon"  viewBox="0 0 1024 1024" version="1.1" xmlns="http://www.w3.org/2000/svg"><path d="M970.1376 645.7344a37.888 37.888 0 0 0-48.9472 21.8624c-64.256 167.8848-228.352 280.7296-408.3712 280.7296-240.9984 0-436.992-195.7376-436.992-436.3264 0-240.64 195.9936-436.3264 436.992-436.3264 226.304 0 417.6384 176.1792 435.5584 401.152l37.8368-3.072-37.376 9.472 37.888-2.4064 37.2736-10.0352C1002.8544 206.848 778.3424 0 512.8192 0 230.0416 0 0 229.6832 0 512s230.0416 512 512.8192 512c211.3024 0 403.8144-132.352 479.1296-329.3184a37.7344 37.7344 0 0 0-21.8112-48.9472z" fill="#030732" opacity=".4" /><path d="M416.4096 316.16a78.2848 78.2848 0 0 0-72.8064 0c-22.6304 11.7248-36.5568 33.6384-36.4032 57.344v276.992c0 23.9104 13.6192 45.3632 36.4032 57.344a78.4384 78.4384 0 0 0 72.7552 0l264.0896-138.5472c22.784-11.9296 36.352-33.28 36.352-57.2416 0.1536-23.6544-13.7216-45.568-36.352-57.2416L416.4096 316.16z m-30.464 324.9152V382.8736L632.064 512 385.9456 641.024z" fill="#030732" opacity=".4" /></svg>