<svg class="icon"  viewBox="0 0 1097 1024" version="1.1" xmlns="http://www.w3.org/2000/svg"><path d="M329.142857 804.571429a91.428571 91.428571 0 1 1 0 182.857142 91.428571 91.428571 0 0 1 0-182.857142z m475.428572 0a91.428571 91.428571 0 1 1 0 182.857142 91.428571 91.428571 0 0 1 0-182.857142zM161.28 36.571429a36.571429 36.571429 0 0 1 35.84 29.476571l19.602286 98.523429h774.656a36.571429 36.571429 0 0 1 35.84 43.666285l-64.731429 329.142857a36.571429 36.571429 0 0 1-35.84 29.476572H296.448L314.587429 658.285714h581.412571a18.285714 18.285714 0 0 1 18.285714 18.285715v73.142857a18.285714 18.285714 0 0 1-18.285714 18.285714H254.537143a36.571429 36.571429 0 0 1-35.84-29.476571L101.229714 146.285714H18.285714A18.285714 18.285714 0 0 1 0 128v-73.142857A18.285714 18.285714 0 0 1 18.285714 36.571429h142.994286z m741.156571 237.714285H238.445714l36.205715 182.857143h591.798857l35.986285-182.857143z"  /></svg>