<svg class="icon"  viewBox="0 0 1024 1024" version="1.1" xmlns="http://www.w3.org/2000/svg"><path d="M1010.88 417.536L576.512 85.504a112.576 112.576 0 0 0-132.416 0L12.992 417.664a32.64 32.64 0 0 0-5.76 46.592 34.816 34.816 0 0 0 47.744 5.568l13.952-10.688v401.472c5.312 56.448 55.104 99.648 114.624 99.392h680.192c26.24-0.576 50.944-11.712 68.032-30.72 17.088-18.944 24.96-43.904 21.568-68.672v-402.56l15.36 11.712a33.92 33.92 0 0 0 20.992 7.168c10.56 0 20.48-4.672 26.88-12.608a32.64 32.64 0 0 0-5.696-46.784z m-396.672 378.112v64.768H409.6v-173.888c0-36.032 32.128-74.944 102.4-74.944s102.4 38.912 102.4 74.944v109.12h-0.192z" fill="#030732" /></svg>