<svg class="icon"  viewBox="0 0 1250 1024" version="1.1" xmlns="http://www.w3.org/2000/svg"><path d="M56.655292 113.274336h1132.96085a56.637168 56.637168 0 0 0 0-113.274336H56.655292a56.637168 56.637168 0 0 0 0 113.274336zM491.610619 564.985204h696.655293a56.637168 56.637168 0 0 0 0-113.274337H491.610619a56.637168 56.637168 0 0 0 0 113.274337z m698.005523 340.94669H56.655292a56.637168 56.637168 0 0 0 0 113.274336h1132.96085a56.637168 56.637168 0 0 0 0-113.274336zM4.268177 792.286018l283.185841-283.185841L4.268177 225.914336v566.371682z" fill="#000000" /></svg>