<svg class="icon"  viewBox="0 0 1365 1024" version="1.1" xmlns="http://www.w3.org/2000/svg"><path d="M1046.508053 204.169414c-20.80916 14.498185-25.585033 42.641721-10.830997 63.024464 15.777437 21.491428 29.508071 44.432674 40.680202 68.226754a46.905893 46.905893 0 0 0 61.404079 22.258979 44.773807 44.773807 0 0 0 22.770679-59.868977 509.739136 509.739136 0 0 0-49.464397-82.980789 47.161744 47.161744 0 0 0-64.644849-10.575147h0.085283z m-830.063746 370.982975a43.920973 43.920973 0 0 0 30.787323-12.366099l174.575207-170.311035a41.788887 41.788887 0 0 0 11.257414-40.936052 43.068138 43.068138 0 0 0-30.787323-30.105055 44.34739 44.34739 0 0 0-42.044737 11.001564L260.024146 430.085253c39.059817-193.337564 214.146724-339.769235 423.773426-339.769235 61.233512 0 120.420221 12.195532 175.854458 36.330747 15.265736 7.334376 33.431109 5.969841 47.247028-3.581905a44.688524 44.688524 0 0 0-9.551746-78.8019A531.230563 531.230563 0 0 0 683.797572 0.000853C424.962324 0.000853 209.877482 183.871955 167.235761 424.712397L72.571139 332.350428a44.432674 44.432674 0 0 0-59.783693 1.790953 41.788887 41.788887 0 0 0-1.790952 58.333874l174.575207 170.225752a44.006256 44.006256 0 0 0 30.787323 12.536666z m960.888547-120.931921a44.34739 44.34739 0 0 0-61.659929 0l-174.575207 170.225751a41.788887 41.788887 0 0 0 0 60.124827 44.34739 44.34739 0 0 0 61.574646 0l106.860153-104.216367c-33.772243 199.733822-211.502937 352.732318-425.734945 352.732318-168.349516 0.25585-321.518578-95.091038-392.133269-244.251779a46.82061 46.82061 0 0 0-61.489362-22.003128 44.688524 44.688524 0 0 0-22.514829 60.039543c85.70986 180.971465 271.627764 296.78638 476.052177 296.53053 259.432232 0 474.943491-184.80922 516.732378-426.417213l89.803465 87.586096a43.920973 43.920973 0 0 0 61.574645 0 41.959454 41.959454 0 0 0 0-60.124827l-174.489923-170.225751z" fill="#030732" /></svg>