<svg class="icon"  viewBox="0 0 1024 1024" version="1.1" xmlns="http://www.w3.org/2000/svg"><path d="M512 0a512 512 0 1 1 0 1024A512 512 0 0 1 512 0z m0 109.714286a402.285714 402.285714 0 1 0 0 804.571428 402.285714 402.285714 0 0 0 0-804.571428zM337.627429 566.857143a18.285714 18.285714 0 0 1 17.554285 13.019428 164.571429 164.571429 0 0 0 313.782857 0 18.285714 18.285714 0 0 1 17.408-13.019428h78.189715c8.996571 0 16.310857 7.314286 16.310857 16.310857l-0.073143 1.682286-0.292571 1.609143a274.358857 274.358857 0 0 1-535.332572 7.606857l-1.316571-5.851429a17.627429 17.627429 0 0 1 17.261714-21.357714h76.507429z m-26.770286-256a73.142857 73.142857 0 1 1 0 146.285714 73.142857 73.142857 0 0 1 0-146.285714z m402.285714 0a73.142857 73.142857 0 1 1 0 146.285714 73.142857 73.142857 0 0 1 0-146.285714z" fill="#B2B2B2" /></svg>