<svg class="icon"  viewBox="0 0 1024 1024" version="1.1" xmlns="http://www.w3.org/2000/svg"><path d="M113.517999 329.362782H310.857287v676.351517c0 10.093707 8.191994 18.285701 18.285701 18.285701h73.142805a18.285701 18.285701 0 0 0 18.139415-16.091417l0.146286-2.194284V22.089859a9.142851 9.142851 0 0 0-15.65256-6.436567L107.081432 313.710222a9.142851 9.142851 0 0 0 6.436567 15.65256z m796.964002 365.275168H713.215856V18.286433A18.285701 18.285701 0 0 0 694.857012 0.000731h-73.142805a18.285701 18.285701 0 0 0-18.212558 16.091418l-0.073143 2.194284v983.62444a9.142851 9.142851 0 0 0 15.579418 6.436567l297.910644-298.05693a9.142851 9.142851 0 0 0-6.50971-15.65256z" fill="#B2B2B2" /></svg>