<svg class="icon"  viewBox="0 0 1024 1024" version="1.1" xmlns="http://www.w3.org/2000/svg"><path d="M1013.537798 961.923928l-173.964966-185.925057a470.153111 470.153111 0 0 0 109.239766-302.072255c0-261.267237-212.851252-473.926616-474.566193-473.926616C212.91521 0 0 212.659379 0 473.926616s212.851252 473.926616 474.310362 473.926616a469.449576 469.449576 0 0 0 196.350164-42.531876 36.26402 36.26402 0 0 0 18.036073-48.224112 36.327978 36.327978 0 0 0-48.224111-18.036073c-52.445321 23.72831-108.2804 35.880274-166.162126 35.880274-221.29367 0-401.334617-179.913033-401.334617-401.014829 0-221.101796 180.040948-401.014829 401.334617-401.014829 221.29367 0 401.334617 179.913033 401.334618 401.014829a400.311294 400.311294 0 0 1-111.798074 277.704368 36.455894 36.455894 0 0 0 0.959366 51.61387c1.215196 0.959366 2.558308 1.343112 3.709547 2.302478 1.023323 1.40707 1.598943 3.197885 2.750181 4.477039l188.675239 201.722611a36.26402 36.26402 0 0 0 51.61387 1.790816 36.327978 36.327978 0 0 0 1.982689-51.549912z"  opacity=".4" /></svg>