<svg class="icon"  viewBox="0 0 1024 1024" version="1.1" xmlns="http://www.w3.org/2000/svg"><path d="M854.645583 800.344244a484.026147 484.026147 0 0 0 116.753785-314.624871C971.399368 217.441619 753.957749 0 485.719373 0 217.441619 0 0 217.441619 0 485.679995 0 753.957749 217.441619 971.438745 485.679995 971.438745c48.079721 0.039377 95.8838-7.048542 141.876522-21.027494a38.392897 38.392897 0 0 0-22.445078-73.478099c-38.668539 11.813199-78.951548 17.759176-119.431444 17.719799-225.789614 0-408.894201-183.104587-408.8942-408.933578C76.785795 259.890382 259.890382 76.785795 485.679995 76.785795c225.868368 0 408.933578 183.104587 408.933578 408.8942 0 107.145717-42.448762 208.463588-116.556898 284.816232a44.378252 44.378252 0 0 0 0.433151 62.294937l179.9544 179.954401a38.392897 38.392897 0 0 0 54.340716-54.261961l-158.139359-158.13936z" fill="#000000" /></svg>