<svg class="icon"  viewBox="0 0 1194 1024" version="1.1" xmlns="http://www.w3.org/2000/svg"><path d="M384.256853 976.896V746.666667h789.077334A21.333333 21.333333 0 0 0 1194.66752 725.333333v-85.333333a21.333333 21.333333 0 0 0-18.773333-21.162667l-2.56-0.170666H25.77152a10.666667 10.666667 0 0 0-7.509333 18.261333l347.733333 347.477333a10.666667 10.666667 0 0 0 18.261333-7.509333zM810.41152 47.104v230.144H21.334187A21.333333 21.333333 0 0 0 0.000853 298.666667v85.333333a21.333333 21.333333 0 0 0 18.773334 21.248l2.56 0.085333h1147.562666a10.666667 10.666667 0 0 0 7.509334-18.176L828.672853 39.509333a10.666667 10.666667 0 0 0-18.261333 7.594667z" fill="#B2B2B2" /></svg>