<svg class="icon"  viewBox="0 0 1194 1024" version="1.1" xmlns="http://www.w3.org/2000/svg"><path d="M1152 0a42.666667 42.666667 0 0 1 42.666667 42.666667v938.666666a42.666667 42.666667 0 0 1-42.666667 42.666667H42.666667a42.666667 42.666667 0 0 1-42.666667-42.666667V42.666667A42.666667 42.666667 0 0 1 42.666667 0h1109.333333z m-85.333333 128h-938.666667v768h938.666667v-768zM938.666667 682.666667a21.333333 21.333333 0 0 1 21.333333 21.333333v85.333333a21.333333 21.333333 0 0 1-21.333333 21.333334H618.666667A21.333333 21.333333 0 0 1 597.333333 789.333333v-85.333333A21.333333 21.333333 0 0 1 618.666667 682.666667H938.666667zM313.770667 255.573333l226.218666 226.218667a42.666667 42.666667 0 0 1 0 60.416L313.770667 768.426667a21.333333 21.333333 0 0 1-30.208 0l-60.330667-60.330667a21.333333 21.333333 0 0 1 0-30.122667L389.205333 512 223.232 346.026667a21.333333 21.333333 0 0 1 0-30.122667l60.330667-60.330667a21.333333 21.333333 0 0 1 30.208 0z" fill="#B2B2B2" /></svg>