<svg class="icon"  viewBox="0 0 1024 1024" version="1.1" xmlns="http://www.w3.org/2000/svg"><path d="M512 0a512 512 0 1 1 0 1024A512 512 0 0 1 512 0z m36.571429 237.714286h-73.142858a18.285714 18.285714 0 0 0-18.139428 16.091428l-0.146286 2.194286v310.857143a36.571429 36.571429 0 0 0 33.865143 36.498286l2.706286 0.073142h274.285714a18.285714 18.285714 0 0 0 18.139429-16.091428L786.285714 585.142857V512a18.285714 18.285714 0 0 0-16.091428-18.139429l-2.194286-0.146285H566.857143V256a18.285714 18.285714 0 0 0-16.091429-18.139429L548.571429 237.714286z" fill="#B2B2B2" /></svg>