<svg class="icon"  viewBox="0 0 1260 1024" version="1.1" xmlns="http://www.w3.org/2000/svg"><path d="M174.860967 449.951925h216.05569A174.703434 174.703434 0 0 0 565.777624 275.721088V174.348987A174.703434 174.703434 0 0 0 390.837891 0.039383H174.860967A174.703434 174.703434 0 0 0 0 174.348987V275.721088a174.703434 174.703434 0 0 0 174.860967 174.152071z m-79.553863-275.681705c0-43.636476 35.681089-79.160032 79.553863-79.160032h216.05569c43.794008 0 79.475097 35.523557 79.475097 79.238799V275.721088c0 43.636476-35.681089 79.160032-79.475097 79.160032H174.860967a79.475097 79.475097 0 0 1-79.396331-79.160032V174.348987z m774.03546 275.681705h216.134456A174.703434 174.703434 0 0 0 1260.259221 275.721088V174.348987a174.782201 174.782201 0 0 0-73.882697-142.172994l-7.87662-5.277335a46.472059 46.472059 0 0 0-64.351987 16.777201 48.835045 48.835045 0 0 0 17.171032 66.163609c21.030576 14.965578 33.554402 39.068036 33.554402 64.588285V275.721088c0 43.715242-35.602323 79.238799-79.396331 79.238798h-216.134456a79.475097 79.475097 0 0 1-79.475097-79.238798V174.348987c0-43.715242 35.681089-79.238799 79.475097-79.238799h31.50648a47.574786 47.574786 0 1 0 0-95.070805h-31.50648a174.703434 174.703434 0 0 0-174.860967 174.309604V275.721088a174.703434 174.703434 0 0 0 174.860967 174.152071zM174.782201 1024h216.134456a174.703434 174.703434 0 0 0 174.860967-174.309603V748.318295a174.703434 174.703434 0 0 0-174.860967-174.230837H174.860967A174.703434 174.703434 0 0 0 0 748.318295v101.372102A174.703434 174.703434 0 0 0 174.860967 1024zM95.38587 748.318295c0-43.636476 35.602323-79.238799 79.396331-79.238798h216.134456c43.794008 0 79.475097 35.602323 79.475097 79.238798v101.372102c0 43.715242-35.681089 79.238799-79.475097 79.238798H174.860967a79.475097 79.475097 0 0 1-79.396331-79.238798V748.318295z m773.956694 275.681705h216.134456A174.703434 174.703434 0 0 0 1260.259221 849.690397V748.318295a174.703434 174.703434 0 0 0-174.860967-174.230837h-216.05569A174.703434 174.703434 0 0 0 694.481597 748.318295v101.372102A174.860967 174.860967 0 0 0 869.42133 1024z m-79.475097-275.681705c0-43.636476 35.681089-79.238799 79.475097-79.238798h216.134456c43.794008 0 79.396331 35.602323 79.396331 79.238798v101.372102c0 43.715242-35.602323 79.238799-79.396331 79.238798h-216.134456a79.475097 79.475097 0 0 1-79.475097-79.238798V748.318295z" fill="#030732" /></svg>