<svg class="icon"  viewBox="0 0 1024 1024" version="1.1" xmlns="http://www.w3.org/2000/svg"><path d="M906.325333 484.010667l60.330667 60.330666a21.333333 21.333333 0 0 1 0 30.122667l-392.192 392.192a21.333333 21.333333 0 0 1-30.122667 0l-60.330666-60.330667a21.333333 21.333333 0 0 1 0-30.122666l392.192-392.192a21.333333 21.333333 0 0 1 30.122666 0zM904.192 59.477333l60.330667 60.330667a21.333333 21.333333 0 0 1 0 30.122667l-814.592 814.592a21.333333 21.333333 0 0 1-30.122667 0l-60.330667-60.330667a21.333333 21.333333 0 0 1 0-30.122667L874.069333 59.477333a21.333333 21.333333 0 0 1 30.122667 0z"  /></svg>