<svg class="icon"  viewBox="0 0 1024 1024" version="1.1" xmlns="http://www.w3.org/2000/svg"><path d="M985.600569 446.350222a38.513778 38.513778 0 0 0 38.4-38.684444V141.710222A141.368889 141.368889 0 0 0 883.257458 0L140.74368 0.341333A141.368889 141.368889 0 0 0 0.000569 142.108444v740.124445A141.368889 141.368889 0 0 0 140.74368 1024l742.513778-0.398222A141.368889 141.368889 0 0 0 1024.000569 881.891556V588.8c0-3.697778-1.137778-7.054222-2.104889-10.467556a38.229333 38.229333 0 0 0-11.946667-29.809777l-224.483555-207.018667c-25.998222-24.007111-65.820444-24.746667-96.142222 2.048L526.222791 527.587556 380.018347 442.140444a70.428444 70.428444 0 0 0-53.304889-13.710222c-17.635556 2.844444-33.564444 12.344889-44.487111 26.624L179.541902 564.224a38.855111 38.855111 0 0 0 2.048 53.987556 38.172444 38.172444 0 0 0 53.646222-0.796445l103.765334-110.364444 145.92 85.447111c25.941333 20.138667 62.919111 19.114667 91.534222-5.916445l162.247111-183.296 208.497778 192.284445v286.321778a64.284444 64.284444 0 0 1-64 64.398222l-742.456889 0.398222a64.284444 64.284444 0 0 1-64-64.398222V142.108444a64.284444 64.284444 0 0 1 64-64.455111l742.513778-0.398222c35.271111 0 64 28.899556 64 64.398222v266.012445c0 21.390222 17.180444 38.684444 38.343111 38.684444z"  opacity=".4" /><path d="M227.556124 284.444444a56.888889 56.888889 0 1 0 113.777778 0 56.888889 56.888889 0 0 0-113.777778 0z"  opacity=".4" /></svg>