<svg class="icon"  viewBox="0 0 1024 1024" version="1.1" xmlns="http://www.w3.org/2000/svg"><path d="M512 0a512 512 0 1 1 0 1024A512 512 0 0 1 512 0z m0 109.714286a402.285714 402.285714 0 1 0 0 804.571428 402.285714 402.285714 0 0 0 0-804.571428zM512 512c130.194286 0 239.177143 90.697143 267.264 212.260571l1.243429 5.851429 0.292571 1.609143v1.682286a16.310857 16.310857 0 0 1-14.189714 16.164571l-2.048 0.146286H686.372571a18.285714 18.285714 0 0 1-17.554285-13.019429l-1.389715-4.534857a164.571429 164.571429 0 0 0-312.32 4.534857 18.285714 18.285714 0 0 1-15.36 12.873143l-2.121142 0.146286H261.12a17.627429 17.627429 0 0 1-17.554286-19.309715l0.292572-2.048 1.316571-5.851428A274.358857 274.358857 0 0 1 512 512zM310.857143 310.857143a73.142857 73.142857 0 1 1 0 146.285714 73.142857 73.142857 0 0 1 0-146.285714z m402.285714 0a73.142857 73.142857 0 1 1 0 146.285714 73.142857 73.142857 0 0 1 0-146.285714z"  /></svg>