<svg class="icon"  viewBox="0 0 1170 1024" version="1.1" xmlns="http://www.w3.org/2000/svg"><path d="M559.250286 522.678857a36.571429 36.571429 0 0 1 49.444571-2.121143l2.340572 2.194286 177.956571 177.956571a9.142857 9.142857 0 0 1-4.827429 15.36l-1.682285 0.219429H640v219.428571a18.285714 18.285714 0 0 1-16.091429 18.139429l-2.194285 0.146286h-73.142857a18.285714 18.285714 0 0 1-18.139429-16.164572l-0.146286-2.194285V716.361143H387.803429a9.142857 9.142857 0 0 1-7.533715-14.336l1.024-1.243429 177.956572-178.029714zM585.142857 54.857143a384 384 0 0 1 382.098286 345.234286A256.073143 256.073143 0 0 1 877.714286 896h-18.285715a18.285714 18.285714 0 0 1-18.285714-18.285714v-73.142857a18.285714 18.285714 0 0 1 18.285714-18.285715H877.714286a146.285714 146.285714 0 0 0 55.808-281.6l-4.681143-1.828571-64-23.844572-6.802286-68.022857a274.285714 274.285714 0 0 0-545.133714-5.851428l-0.731429 5.851428-6.729143 68.022857-64 23.844572a146.358857 146.358857 0 0 0 46.592 283.355428L292.571429 786.285714h18.285714a18.285714 18.285714 0 0 1 18.285714 18.285715v73.142857a18.285714 18.285714 0 0 1-18.285714 18.285714H292.571429a256 256 0 0 1-89.526858-495.908571A384 384 0 0 1 585.142857 54.857143z" fill="#B2B2B2" /></svg>