<svg class="icon"  viewBox="0 0 1099 1024" version="1.1" xmlns="http://www.w3.org/2000/svg"><path d="M117.765311 494.0561a19.627552 19.627552 0 0 1 19.627552 19.627551v333.668382h824.357179V513.683651a19.627552 19.627552 0 0 1 19.627551-19.627551h78.510208a19.627552 19.627552 0 0 1 19.627552 19.627551v412.17859a39.255104 39.255104 0 0 1-39.255104 39.255103H58.882656a39.255104 39.255104 0 0 1-39.255104-39.255103V513.683651a19.627552 19.627552 0 0 1 19.627552-19.627551h78.510207zM577.364066 11.532364l274.628706 274.628706a9.813776 9.813776 0 0 1-6.908899 16.801185H647.709212V611.821411a19.627552 19.627552 0 0 1-17.272246 19.470531L628.08166 631.448963H471.061245a19.627552 19.627552 0 0 1-19.627552-19.627552V302.962255H254.059031a9.813776 9.813776 0 0 1-6.908898-16.801185L521.778839 11.532364a39.255104 39.255104 0 0 1 55.585227 0z" fill="#B2B2B2" /></svg>