<svg class="icon"  viewBox="0 0 1024 1024" version="1.1" xmlns="http://www.w3.org/2000/svg"><path d="M509.417617 1024a508.471555 508.471555 0 0 1-399.820055-193.724242l-4.948629-6.404107a511.164191 511.164191 0 0 1-13.026536-17.684069l-4.657532-6.840751-6.404108-9.751709-6.986298-11.061639-5.094177-8.6601-5.530819-9.824482-4.875855-9.096743-5.094176-9.970031-6.549655-13.46318-3.274827-7.350168-2.619863-6.113012-4.002566-9.751708-1.746575-4.293663a505.633371 505.633371 0 0 1-8.150682-22.559923l-4.875854-14.991433-2.692636-9.242291L17.465747 647.030964a505.997241 505.997241 0 0 1-7.56849-32.311632l-2.76541-14.918659-1.819349-11.643831-0.946061-7.131847c-0.727739-5.821916-1.455479-11.643831-1.964897-17.465746l-1.237157-14.918659-0.436644-7.714038-0.291095-7.714039A509.417617 509.417617 0 1 1 1018.835233 514.582383l-0.072774 9.460613-0.36387 11.498284-0.363869 8.296229-0.72774 10.042805a511.746383 511.746383 0 0 1-1.746574 18.921226l-1.455479 11.134413-1.673801 11.643831-1.455479 8.29623-1.892123 10.479448-1.455478 6.767977a505.851693 505.851693 0 0 1-5.53082 23.433211l-3.202054 11.498283-2.619862 8.951195-0.727739 2.183219c-2.183218 7.277395-4.730306 14.554789-7.277395 21.759409l-5.312498 13.82705-2.692636 6.695203-4.220889 9.751708a506.943302 506.943302 0 0 1-7.20462 15.646399l-5.021402 10.188352-3.929794 7.641264a508.398781 508.398781 0 0 1-6.185785 11.352736l-3.056506 5.239724-5.094176 8.732873-4.875854 7.859586-6.040238 9.315065-5.021402 7.422943-8.732873 12.37157-6.622429 8.878422-3.202054 4.075341A508.544329 508.544329 0 0 1 509.417617 1024z m0-400.256699a507.234398 507.234398 0 0 0-328.210493 119.858688A399.747281 399.747281 0 0 0 509.417617 914.839082c135.868956 0 255.945965-67.679769 328.283266-171.237093A507.45272 507.45272 0 0 0 509.417617 623.743301z m0-454.837157a200.128349 200.128349 0 1 0 0 400.256698 200.128349 200.128349 0 0 0 0-400.256698z" fill="#B2B2B2" /></svg>