<svg class="icon"  viewBox="0 0 1194 1024" version="1.1" xmlns="http://www.w3.org/2000/svg"><path d="M1152 21.333333a42.666667 42.666667 0 0 1 42.666667 42.666667v896a42.666667 42.666667 0 0 1-42.666667 42.666667H42.666667a42.666667 42.666667 0 0 1-42.666667-42.666667V64a42.666667 42.666667 0 0 1 42.666667-42.666667h1109.333333z m-85.333333 128h-938.666667v725.333334h938.666667v-725.333334zM490.666667 335.104a21.333333 21.333333 0 0 1 10.496 2.816l276.48 155.477333a21.333333 21.333333 0 0 1 0 37.205334L501.162667 686.08a21.333333 21.333333 0 0 1-31.829334-18.517333V356.437333a21.333333 21.333333 0 0 1 21.333334-21.333333z" fill="#B2B2B2" /></svg>