<svg class="icon"  viewBox="0 0 1024 1024" version="1.1" xmlns="http://www.w3.org/2000/svg"><path d="M512 201.142857c212.114286 0 384 171.885714 384 384v310.857143h73.142857a18.285714 18.285714 0 0 1 18.285714 18.285714v73.142857a18.285714 18.285714 0 0 1-18.285714 18.285715H54.857143a18.285714 18.285714 0 0 1-18.285714-18.285715v-73.142857a18.285714 18.285714 0 0 1 18.285714-18.285714h73.142857V585.142857C128 373.028571 299.885714 201.142857 512 201.142857z m5.705143 109.714286H512a274.285714 274.285714 0 0 0-274.285714 268.580571v316.562286h548.571428V585.142857a274.285714 274.285714 0 0 0-268.580571-274.285714z m-24.502857 37.302857A17.408 17.408 0 0 1 512 365.568v74.605714a18.285714 18.285714 0 0 1-16.237714 17.993143A128 128 0 0 0 384.073143 580.754286L384 585.142857v18.285714A18.285714 18.285714 0 0 1 365.714286 621.714286H292.571429a18.285714 18.285714 0 0 1-18.285715-18.285715V585.142857a237.714286 237.714286 0 0 1 205.897143-235.593143l13.019429-1.389714zM139.849143 144.530286l90.477714 90.477714a18.285714 18.285714 0 0 1 0 25.892571l-51.712 51.712a18.285714 18.285714 0 0 1-25.892571 0L62.244571 222.134857a18.285714 18.285714 0 0 1 0-25.892571l51.712-51.712a18.285714 18.285714 0 0 1 25.892572 0z m770.194286 0l51.712 51.712a18.285714 18.285714 0 0 1 0 25.892571l-90.477715 90.477714a18.285714 18.285714 0 0 1-25.892571 0l-51.712-51.712a18.285714 18.285714 0 0 1 0-25.892571l90.477714-90.477714a18.285714 18.285714 0 0 1 25.892572 0zM548.571429 0a18.285714 18.285714 0 0 1 18.285714 18.285714V146.285714a18.285714 18.285714 0 0 1-18.285714 18.285715h-73.142858A18.285714 18.285714 0 0 1 457.142857 146.285714V18.285714A18.285714 18.285714 0 0 1 475.428571 0h73.142858z"  /></svg>