<svg class="icon"  viewBox="0 0 1024 1024" version="1.1" xmlns="http://www.w3.org/2000/svg"><path d="M512 48a408 408 0 0 1 206.016 760.256l50.624 87.68L832 896a16 16 0 0 1 16 16v64a16 16 0 0 1-16 16H192a16 16 0 0 1-16-16v-64A16 16 0 0 1 192 896h63.36l50.624-87.744A408 408 0 0 1 512 48zM394.56 846.848L366.208 896h291.584l-28.352-49.152A408 408 0 0 1 512 864a408 408 0 0 1-117.44-17.152zM512 144A312 312 0 1 0 512 768a312 312 0 0 0 0-624z m0 160a216 216 0 1 1 0 432 216 216 0 0 1 0-432z m0 96A120 120 0 1 0 512 640a120 120 0 0 0 0-240z m0-223.616a48 48 0 1 1 0 96 48 48 0 0 1 0-96z" fill="#B2B2B2" /></svg>