<svg class="icon"  viewBox="0 0 1024 1024" version="1.1" xmlns="http://www.w3.org/2000/svg"><path d="M927.99913 942.400076c0 13.151988-5.279995 25.759976-14.655986 35.071968-9.375991 9.279991-22.079979 14.527986-35.359967 14.527986H177.983833c-13.247988 0-25.951976-5.215995-35.327967-14.527986A49.407954 49.407954 0 0 1 127.99988 942.400076V49.600913c0-13.151988 5.279995-25.759976 14.655986-35.071967C151.999858 5.248955 164.735846 0.00096 177.983833 0.00096H607.039431a50.239953 50.239953 0 0 1 35.519967 14.399986l270.975746 268.319749c9.343991 9.375991 14.559986 22.047979 14.495986 35.199967V942.400076z" fill="#EBECF0" /><path d="M927.99913 928.00009v47.999955c0 26.495975-22.399979 47.999955-50.015953 47.999955H178.015833C150.399859 1024 127.99988 1002.49602 127.99988 976.000045V928.00009c0 12.735988 5.279995 24.959977 14.655986 33.919968 9.375991 9.023992 22.079979 14.079987 35.327967 14.079987h700.031344c13.247988 0 25.951976-5.055995 35.327967-14.079987A47.039956 47.039956 0 0 0 927.99913 928.00009z" fill="#C1C7D0" /><path d="M492.607538 662.816339h72.255932V736.00027h-72.255932v-73.183931zM527.999505 288.00069c-79.519925 0-143.999865 65.279939-143.999865 145.855863h72.255932a72.639932 72.639932 0 0 1 71.999933-67.135937 72.639932 72.639932 0 0 1 71.999932 67.135937c0 73.151931-107.647899 64.19194-107.647899 182.687829h71.775933c0-82.143923 107.615899-91.103915 107.615899-182.719829C671.99937 353.344629 607.51943 288.00069 527.999505 288.00069z" fill="#5E6C84" /><path d="M895.99916 313.152666V320.00066h-243.071772c-11.903989 0-23.359978-5.119995-31.77597-14.303987A51.103952 51.103952 0 0 1 607.99943 271.136706V0.00096c11.935989-0.064 23.423978 5.023995 31.90397 14.175987l243.519772 264.319752c8.223992 9.279991 12.767988 21.75998 12.575988 34.655967z" fill="#C1C7D0" /></svg>