<svg class="icon" style="width: 1em;height: 1em;vertical-align: middle;fill: currentColor;overflow: hidden;" viewBox="0 0 1024 1024" version="1.1" xmlns="http://www.w3.org/2000/svg"><path d="M862.506667 74.666667c19.114667 0 36.736 9.258667 48.896 24.704 10.88 13.824 16.682667 31.658667 16.682666 49.962666v170.666667a32 32 0 1 1-64 0v-170.666667a19.626667 19.626667 0 0 0-1.792-8.448l-1.28-2.218666H163.157333a16.768 16.768 0 0 0-2.901333 7.552l-0.213333 3.114666v170.666667a32 32 0 0 1-64 0v-170.666667c0-18.304 5.845333-36.138667 16.725333-49.962666A62.293333 62.293333 0 0 1 161.706667 74.666667h700.8z" fill="#000000" /><path d="M544 917.333333a32 32 0 0 1-64 0v-768a32 32 0 1 1 64 0v768z" fill="#000000" /><path d="M694.784 971.690667l-374.869333-1.024a32 32 0 0 1 0.170666-64l374.869334 1.024a32 32 0 0 1-0.170667 64z" fill="#000000" /></svg>