<svg class="icon"  viewBox="0 0 1024 1024" version="1.1" xmlns="http://www.w3.org/2000/svg"><path d="M879.616 0H144.384A144.497778 144.497778 0 0 0 0 144.384v735.232A144.497778 144.497778 0 0 0 144.384 1024h517.290667a39.367111 39.367111 0 1 0 0-78.791111H144.384a65.706667 65.706667 0 0 1-65.592889-65.592889V144.384c0-36.181333 29.411556-65.592889 65.592889-65.592889h735.232c36.181333 0 65.592889 29.411556 65.592889 65.592889v735.232c0 36.181333-29.411556 65.592889-65.592889 65.592889h-11.776a39.367111 39.367111 0 0 0 0 78.791111h11.776A144.497778 144.497778 0 0 0 1024 879.616V144.384A144.497778 144.497778 0 0 0 879.616 0z" fill="#030732" opacity=".4" /><path d="M267.093333 301.738667h394.126223c21.390222 0 38.798222-16.611556 38.798222-37.091556 0-20.48-17.408-37.091556-38.798222-37.091555H267.093333c-21.447111 0-38.798222 16.611556-38.798222 37.091555 0 20.48 17.351111 37.091556 38.798222 37.091556z m491.633778 173.169777H266.353778C244.906667 474.908444 227.555556 491.52 227.555556 512c0 20.48 17.351111 37.091556 38.798222 37.091556h492.373333c21.447111 0 38.855111-16.611556 38.855111-37.091556 0-20.48-17.408-37.091556-38.855111-37.091556z m-491.633778 247.352889c-21.447111 0-38.798222 16.611556-38.798222 37.091556 0 20.48 17.351111 37.091556 38.798222 37.091555h195.072c21.447111 0 38.798222-16.611556 38.798223-37.091555 0-20.48-17.351111-37.091556-38.798223-37.091556H267.093333zM814.478222 227.555556h-3.982222a36.295111 36.295111 0 0 0-36.807111 37.091555c0 20.48 19.456 37.091556 40.846222 37.091556a39.196444 39.196444 0 0 0 33.564445-18.545778 35.669333 35.669333 0 0 0 0-37.091556 39.196444 39.196444 0 0 0-33.564445-18.545777z" fill="#030732" opacity=".4" /></svg>