<svg class="icon"  viewBox="0 0 1260 1024" version="1.1" xmlns="http://www.w3.org/2000/svg"><path d="M100.824615 412.750769L0 788.558769V67.387077C0.039385 30.168615 29.696 0 66.284308 0h314.919384c17.604923-0.039385 34.461538 7.089231 46.867693 19.731692l135.758769 138.003693a12.996923 12.996923 0 0 0 9.373538 3.938461H1047.236923c36.627692 0.039385 66.244923 30.208 66.284308 67.347692v94.365539H215.945846a119.886769 119.886769 0 0 0-115.081846 89.324308z m1145.856-9.019077a65.417846 65.417846 0 0 0-52.696615-26.466461H215.945846A66.599385 66.599385 0 0 0 152.024615 426.929231l-137.412923 512a68.253538 68.253538 0 0 0 11.303385 58.604307c12.563692 16.659692 32.019692 26.466462 52.657231 26.466462h978.038154a66.599385 66.599385 0 0 0 63.960615-49.703385l137.373538-512a67.741538 67.741538 0 0 0-11.303384-58.564923z"  /></svg>