<svg class="icon"  viewBox="0 0 1365 1024" version="1.1" xmlns="http://www.w3.org/2000/svg"><path d="M682.666667 810.666667c36.010667 0 69.376 11.093333 96.938666 30.208l4.096 2.986666c2.218667 1.706667 4.778667 3.669333 7.594667 6.058667 4.522667 3.754667 5.12 10.496 1.365333 15.018667L697.770667 960a21.333333 21.333333 0 0 1-28.16 1.706667l-2.048-1.706667-94.122667-94.208a10.666667 10.666667 0 0 1 0-15.018667l0.853333-0.768 6.826667-5.461333c4.266667-3.242667 7.936-5.973333 11.093333-7.850667A169.813333 169.813333 0 0 1 682.666667 810.666667z m0-256c100.693333 0 193.194667 34.901333 266.24 93.184l5.461333 4.608 10.154667 8.789333a21.333333 21.333333 0 0 1 1.706666 30.122667l-61.44 61.44a21.333333 21.333333 0 0 1-29.013333 1.109333l-7.168-6.058667c-4.522667-3.754667-8.448-6.826667-11.776-9.216A297.301333 297.301333 0 0 0 682.666667 682.666667c-64.853333 0-124.928 20.650667-173.909334 55.808l-5.461333 4.181333c-4.010667 3.072-8.618667 6.826667-13.824 11.264a21.333333 21.333333 0 0 1-29.013333-1.109333l-60.501334-60.586667a21.333333 21.333333 0 0 1 0-30.122667l0.853334-0.853333 7.594666-6.656A424.874667 424.874667 0 0 1 682.666667 554.666667z m0-256a680.106667 680.106667 0 0 1 450.816 169.984l9.728 8.874666 2.986666 2.730667a21.333333 21.333333 0 0 1 2.730667 28.16l-2.218667 2.56-60.416 60.330667a21.333333 21.333333 0 0 1-29.525333 0.597333l-6.058667-5.461333A552.448 552.448 0 0 0 682.666667 426.666667a552.362667 552.362667 0 0 0-350.293334 124.586666l-7.936 6.570667c-4.181333 3.584-9.386667 8.277333-15.872 14.165333a21.333333 21.333333 0 0 1-29.525333-0.597333l-60.416-60.416a21.333333 21.333333 0 0 1 0-30.208l9.216-8.533333 4.693333-4.181334A680.106667 680.106667 0 0 1 682.666667 298.666667z m0-256a935.253333 935.253333 0 0 1 633.173333 245.76l11.605333 10.752a21.333333 21.333333 0 0 1 2.56 28.16l-1.962666 2.218666-60.586667 60.586667a21.333333 21.333333 0 0 1-29.696 0.341333l-3.498667-3.242666A807.765333 807.765333 0 0 0 682.666667 170.666667a807.765333 807.765333 0 0 0-546.730667 212.053333l-8.277333 7.850667a21.333333 21.333333 0 0 1-29.866667-0.426667L37.546667 329.728a21.333333 21.333333 0 0 1-1.706667-28.16l2.133333-2.389333 4.778667-4.437334A935.338667 935.338667 0 0 1 682.666667 42.666667z"  /></svg>