<svg class="icon"  viewBox="0 0 1024 1024" version="1.1" xmlns="http://www.w3.org/2000/svg"><path d="M953.742791 396.401778c7.68 1.137778 13.368889 7.964444 13.368889 16.099555v538.510223a16.099556 16.099556 0 0 1-2.503111 7.395555 11.776 11.776 0 0 1-5.688889 4.437333l-8.305778 3.413334a12.060444 12.060444 0 0 1-4.551111 0.853333H21.049458a12.060444 12.060444 0 0 1-4.551111-0.910222l-8.362667-3.185778a12.174222 12.174222 0 0 1-5.688889-4.551111 16.099556 16.099556 0 0 1-2.446222-7.623111V96.426667a16.042667 16.042667 0 0 1 16.042667-16.099556L600.292124 0h7.736889c3.299556 0 6.428444 1.479111 8.647111 3.982222 2.218667 2.56 3.356444 5.973333 3.072 9.386667v307.655111c0 6.428444 4.380444 11.889778 10.410667 13.084444l323.584 62.293334zM243.086791 879.217778h85.219556c12.913778 0 23.324444-11.150222 23.324444-24.917334v-82.147555a25.713778 25.713778 0 0 0-6.826667-17.635556 22.584889 22.584889 0 0 0-16.497777-7.224889H243.086791c-12.856889 0-23.324444 11.150222-23.324444 24.860445v82.147555c0 6.599111 2.446222 12.913778 6.826666 17.635556a22.584889 22.584889 0 0 0 16.497778 7.281778z m395.946667 0h85.048889a22.528 22.528 0 0 0 16.440889-7.338667 25.713778 25.713778 0 0 0 6.826666-17.635555v-82.090667a25.713778 25.713778 0 0 0-6.826666-17.578667 22.528 22.528 0 0 0-16.497778-7.281778h-85.333334a22.528 22.528 0 0 0-16.440888 7.281778 25.713778 25.713778 0 0 0-6.826667 17.578667v82.147555c0 13.767111 10.467556 24.917333 23.324444 24.917334h0.284445z m-395.946667-263.793778h85.219556a22.755556 22.755556 0 0 0 16.497777-7.111111c4.437333-4.551111 6.826667-10.808889 6.826667-17.237333V507.904a23.893333 23.893333 0 0 0-23.324444-24.348444H243.086791a23.893333 23.893333 0 0 0-23.324444 24.348444v83.171556c0 6.485333 2.503111 12.629333 6.826666 17.237333a22.755556 22.755556 0 0 0 16.497778 7.111111z m0-219.761778h85.219556a22.755556 22.755556 0 0 0 16.497777-7.111111c4.437333-4.551111 6.826667-10.808889 6.826667-17.294222V288.142222a24.917333 24.917333 0 0 0-6.826667-17.294222 22.755556 22.755556 0 0 0-16.497777-7.111111H243.086791a23.893333 23.893333 0 0 0-23.324444 24.405333v83.114667a23.893333 23.893333 0 0 0 23.324444 24.405333z m395.662222 219.761778h85.333334a22.755556 22.755556 0 0 0 16.440889-7.111111c4.323556-4.551111 6.826667-10.808889 6.826666-17.237333V507.904a23.836444 23.836444 0 0 0-23.324444-24.348444h-85.333334a23.893333 23.893333 0 0 0-23.267555 24.348444v83.171556c0 6.485333 2.446222 12.686222 6.826667 17.237333a22.755556 22.755556 0 0 0 16.497777 7.111111z"  /></svg>