<svg class="icon"  viewBox="0 0 1024 1024" version="1.1" xmlns="http://www.w3.org/2000/svg"><path d="M903.640937 895.997312H120.385687a43.724669 43.724669 0 0 1-38.911883-23.551929 41.881474 41.881474 0 0 1 3.891188-44.543867l97.382108-129.074812V447.998656C182.7983 271.512785 330.509857 127.999616 512.013312 127.999616s329.215012 143.513169 329.215012 319.99904v250.828048l97.433308 129.126012c9.779171 12.902361 11.263966 30.15671 3.891188 44.543867a43.724669 43.724669 0 0 1-38.911883 23.500729zM206.606228 810.698368h610.660568l-54.579036-72.345383a42.342273 42.342273 0 0 1-8.550374-25.395124V447.998656c0-129.330812-108.697274-234.700096-242.226474-234.700096-133.580399 0-242.175273 105.369284-242.175273 234.700096v264.856805a42.342273 42.342273 0 0 1-8.499175 25.343924l-54.630236 72.498983zM620.812986 1023.996928h-217.599348a43.161471 43.161471 0 0 1-43.571069-42.700672c0-23.654329 19.455942-42.700672 43.51987-42.700672h217.599347c23.910328 0 43.519869 19.046343 43.519869 42.700672a43.007871 43.007871 0 0 1-43.41747 42.700672z m-87.039739-938.697984h-43.622269a43.161471 43.161471 0 0 1-43.51987-42.700672c0-23.654329 19.558341-42.598272 43.673469-42.598272h43.51987c24.012728 0 43.571069 19.097543 43.571069 42.700672a43.110271 43.110271 0 0 1-43.673469 42.598272z"  /></svg>