<svg class="icon"  viewBox="0 0 1024 1024" version="1.1" xmlns="http://www.w3.org/2000/svg"><path d="M882.868924 266.012245h-221.165063V141.0671A141.003124 141.003124 0 0 0 520.956641 0H140.74722C63.016369 0 0 63.144321 0 141.0671v260.190428h0.575784c-0.063976 1.91928-0.575784 3.774585-0.575784 5.757841v475.533675A141.0671 141.0671 0 0 0 140.74722 1023.616144h529.593402a38.385605 38.385605 0 0 0 0-76.963139H140.74722c-35.250781 0-63.976009-28.789204-63.976009-64.103961V407.015369c0-6.781457 1.91928-13.051106 3.83856-19.192802 0.703736-2.111208 0.831688-4.478321 1.727353-6.397601 2.814944-6.397601 6.845433-11.963514 11.451705-17.145571 0.831688-0.767712 1.215544-1.91928 2.047232-2.750968a63.656129 63.656129 0 0 1 44.975135-18.553043H882.868924c35.250781 0 63.976009 28.725228 63.976009 64.039985v475.533675c0 35.378733-28.725228 64.103961-63.976009 64.103961h-11.515681a38.385605 38.385605 0 0 0 0 76.963139h11.515681a141.0671 141.0671 0 0 0 140.74722-141.0671V407.015369a141.0671 141.0671 0 0 0-140.74722-141.003124z m-742.121704 0h-0.575784c-1.151568 0-2.175184 0.31988-3.326753 0.383856-8.956641 0.191928-17.913283 1.27952-26.677996 3.198801-4.414345 0.95964-8.508809 2.55904-12.795201 3.902536a144.777708 144.777708 0 0 0-15.354242 5.757841c-1.663376 0.767712-3.51868 1.087592-5.246033 1.919281v-140.10746c0-35.378733 28.725228-64.103961 63.976009-64.103961h380.145445c35.186805 0 63.976009 28.789204 63.976009 64.103961v124.945145H140.74722z" fill="#030732" /><path d="M703.736099 575.784081a63.976009 63.976009 0 1 0 127.952018 0 63.976009 63.976009 0 0 0-127.952018 0z" fill="#030732" /></svg>