<svg class="icon"  viewBox="0 0 1024 1024" version="1.1" xmlns="http://www.w3.org/2000/svg"><path d="M768.256 0A255.744 255.744 0 0 1 1024 255.744v512.512A255.744 255.744 0 0 1 768.256 1024H255.744A255.744 255.744 0 0 1 0 768.256V255.744A255.744 255.744 0 0 1 255.744 0h512.512z m-10.752 320h-61.568a43.2 43.2 0 0 0-34.048 16.064L455.552 599.296 362.112 480a43.072 43.072 0 0 0-34.048-16h-61.568c-8.512 0-13.44 8.896-8.512 15.296l163.712 208.64c16.64 21.376 51.2 21.376 67.84 0l276.48-352.64c4.992-6.4 0-15.296-8.512-15.296z" fill="#5750ED" /></svg>