<svg class="icon"  viewBox="0 0 1024 1024" version="1.1" xmlns="http://www.w3.org/2000/svg"><path d="M864 232a24 24 0 0 1 24 24v192a24 24 0 1 1-48 0V256a24 24 0 0 1 24-24z" fill="#000000" /><path d="M960 328a24 24 0 1 1 0 48h-192a24 24 0 1 1 0-48h192zM672 72a24 24 0 0 1 24 24v128a24 24 0 1 1-48 0V96a24 24 0 0 1 24-24z" fill="#000000" /><path d="M736 136a24 24 0 1 1 0 48h-128a24 24 0 1 1 0-48h128zM406.976 134.24a392.096 392.096 0 0 0-172.16 654.944 392.064 392.064 0 0 0 654.944-172.16 24 24 0 0 0-29.536-29.568 344 344 0 0 1-424.96-244 344.128 344.128 0 0 1 1.28-179.68 24 24 0 0 0-29.568-29.536z m-26.016 59.616l-1.216 7.84a392.128 392.128 0 0 0 288.608 433.44l12.64 3.104a392 392 0 0 0 141.312 6.048l7.776-1.248-2.56 6.24A344.096 344.096 0 1 1 374.72 196.48l6.24-2.624z" fill="#000000" /></svg>