<svg class="icon"  viewBox="0 0 1024 1024" version="1.1" xmlns="http://www.w3.org/2000/svg"><path d="M930.773333 981.333333H93.226667A50.944 50.944 0 0 1 42.666667 930.005333V222.122667c0-28.373333 22.613333-51.328 50.56-51.328H136.96c9.344 0 16.853333 7.68 16.853333 17.152a16.981333 16.981333 0 0 1-16.853333 17.152H93.354667c-9.386667 0-16.896 7.637333-16.896 17.109333V930.133333c0 9.472 7.552 17.152 16.896 17.152h837.546666c9.301333 0 16.853333-7.68 16.853334-17.152V222.122667a16.981333 16.981333 0 0 0-16.896-17.152H512a16.981333 16.981333 0 0 1-16.896-17.152c0-9.472 7.552-17.152 16.896-17.152h418.773333C958.677333 170.666667 981.333333 193.664 981.333333 221.994667v707.882666C981.333333 958.293333 958.72 981.333333 930.773333 981.333333z"  /><path d="M930.773333 160H512a27.648 27.648 0 0 0-27.562667 27.818667c0 15.36 12.288 27.818667 27.562667 27.818666h418.858667c3.413333 0 6.229333 2.858667 6.229333 6.485334V930.133333a6.357333 6.357333 0 0 1-6.229333 6.485334H93.312a6.357333 6.357333 0 0 1-6.186667-6.485334V222.208c0-3.626667 2.816-6.442667 6.229334-6.442667H136.96a27.648 27.648 0 0 0 27.52-27.818666 27.648 27.648 0 0 0-27.52-27.818667H93.226667c-33.834667 0-61.226667 27.776-61.226667 61.994667v707.84c0 34.261333 27.392 62.037333 61.226667 62.037333h837.546666c33.834667 0 61.226667-27.904 61.226667-62.122667V222.037333c0-34.261333-27.392-62.037333-61.226667-62.037333z m0 21.333333c21.973333 0 39.893333 18.176 39.893334 40.661334v707.882666c0 22.528-17.92 40.789333-39.893334 40.789334H93.226667a40.277333 40.277333 0 0 1-39.893334-40.661334V222.122667c0-22.528 17.92-40.661333 39.893334-40.661334H136.96c3.413333 0 6.186667 2.816 6.186667 6.485334a6.357333 6.357333 0 0 1-6.186667 6.485333H93.354667a27.648 27.648 0 0 0-27.562667 27.776V930.133333c0 15.36 12.288 27.818667 27.562667 27.818667h837.546666a27.648 27.648 0 0 0 27.52-27.818667V222.122667a27.648 27.648 0 0 0-27.562666-27.818667H512a6.357333 6.357333 0 0 1-6.229333-6.485333c0-3.626667 2.816-6.485333 6.229333-6.485334h418.773333z"  /><path d="M533.333333 938.666667c-11.818667 0-21.333333-6.826667-21.333333-15.36V228.693333c0-8.533333 9.514667-15.36 21.333333-15.36s21.333333 6.826667 21.333334 15.36v694.741334c0 8.362667-9.514667 15.232-21.333334 15.232z"  /><path d="M533.333333 202.666667c-17.066667 0-32 10.752-32 26.026666v694.613334c0 15.274667 14.933333 26.026667 32 26.026666s32-10.666667 32-25.898666V228.693333c0-15.274667-14.933333-26.026667-32-26.026666z m0 21.333333c6.528 0 10.666667 2.986667 10.666667 4.693333v694.741334c0 1.578667-4.138667 4.565333-10.666667 4.565333s-10.666667-2.986667-10.666666-4.693333V228.693333c0-1.706667 4.138667-4.693333 10.666666-4.693333z"  /><path d="M496 981.333333a16.085333 16.085333 0 0 1-5.589333-1.024l-325.674667-128.170666C143.786667 843.818667 128 817.92 128 791.808V84.821333c0-15.488 5.802667-28.629333 15.829333-36.010666a32.554667 32.554667 0 0 1 31.914667-3.541334l325.802667 131.925334a17.237333 17.237333 0 0 1 9.216 21.930666 15.701333 15.701333 0 0 1-20.693334 9.770667L164.608 76.970667c-1.365333-0.597333-2.133333-0.469333-2.346667-0.341334-0.512 0.426667-2.133333 2.688-2.133333 8.149334v707.029333c0 12.757333 8.362667 25.472 15.744 28.416l325.674667 128.085333a17.194667 17.194667 0 0 1 9.429333 21.76 16.042667 16.042667 0 0 1-14.976 11.264z"  /><path d="M137.514667 40.192c-12.970667 9.514667-20.181333 25.941333-20.181334 44.586667v707.029333c0 30.293333 18.261333 60.245333 43.477334 70.229333l325.674666 128.213334a26.965333 26.965333 0 0 0 9.514667 1.749333c11.264 0 21.333333-7.381333 25.088-18.474667a27.818667 27.818667 0 0 0-15.616-35.157333l-325.717333-128.085333-1.621334-1.066667a26.624 26.624 0 0 1-7.338666-17.408V90.965333l315.306666 127.829334a26.325333 26.325333 0 0 0 34.730667-16.085334 27.861333 27.861333 0 0 0-15.36-35.413333L179.754667 35.413333a43.221333 43.221333 0 0 0-42.197334 4.821334z m34.304 14.976l325.717333 131.925333c2.858667 1.152 4.48 4.949333 3.2 8.362667-1.152 3.2-4.096 4.608-6.570667 3.584l-325.546666-131.968a13.013333 13.013333 0 0 0-11.349334 0.128c-5.717333 4.48-7.808 10.368-7.808 17.578667v707.029333c0 16.085333 10.154667 33.408 22.442667 38.314667l325.76 128.085333c2.858667 1.152 4.48 4.864 3.242667 8.32-0.853333 2.645333-2.901333 4.138667-4.906667 4.138667l-1.834667-0.341334-325.546666-128.128c-16.64-6.613333-29.952-28.501333-29.952-50.346666V84.736c0-12.245333 4.352-22.186667 11.52-27.392a21.930667 21.930667 0 0 1 21.632-2.218667z"  /></svg>