<svg class="icon"  viewBox="0 0 1024 1024" version="1.1" xmlns="http://www.w3.org/2000/svg"><path d="M934.826667 45.269333c49.28 0.128 89.173333 37.589333 89.173333 83.754667V793.173333c-0.042667 46.08-39.936 83.413333-89.173333 83.413334H203.093333L0 1010.048V129.024c0.128-46.208 40.064-83.626667 89.344-83.754667z m-8.789334 71.381334H98.176a27.861333 27.861333 0 0 0-19.114667 7.424 24.490667 24.490667 0 0 0-7.893333 17.92v750.336l113.408-79.445334h741.930667c14.762667-0.042667 26.709333-11.264 26.752-25.088l-0.426667-645.802666c0-13.909333-11.946667-25.173333-26.794667-25.344zM513.749333 597.333333c23.850667 1.28 42.069333 20.992 40.874667 44.074667 0 22.784-19.114667 41.258667-42.666667 41.258667S469.333333 664.192 469.333333 641.408v-2.261333c-0.085333-22.954667 18.944-41.642667 42.666667-41.813334z m20.565334-341.333333c62.677333 0 106.453333 36.949333 105.685333 103.594667 0 81.578667-95.786667 111.744-87.04 195.072h-54.485333c-12.288-93.866667 81.92-129.834667 81.92-190.634667a59.306667 59.306667 0 0 0 0-7.893333c-2.346667-27.989333-26.069333-48.725333-53.12-46.506667a87.466667 87.466667 0 0 0-65.493334 33.962667L426.666667 309.632A139.946667 139.946667 0 0 1 534.314667 256z"  /></svg>