<svg class="icon"  viewBox="0 0 1024 1024" version="1.1" xmlns="http://www.w3.org/2000/svg"><path d="M886.499556 0H80.611556C36.124444 0 0.056889 35.271111 0 78.791111v866.417778C0 988.728889 36.124444 1023.943111 80.611556 1024h805.888c44.487111 0 80.554667-35.271111 80.611555-78.791111V78.677333c0-20.878222-8.533333-40.96-23.665778-55.637333A81.521778 81.521778 0 0 0 886.499556 0z m-275.797334 637.895111H476.728889v81.009778a32.711111 32.711111 0 0 1-32.995556 30.264889 32.711111 32.711111 0 0 1-32.995555-30.264889v-81.009778H275.911111a31.857778 31.857778 0 0 1-28.558222-15.018667 30.321778 30.321778 0 0 1 0-31.687111 31.857778 31.857778 0 0 1 28.615111-15.018666h134.826667V537.031111H276.024889a31.857778 31.857778 0 0 1-28.615111-15.018667 30.321778 30.321778 0 0 1 0-31.744 31.857778 31.857778 0 0 1 28.615111-15.018666h91.022222L273.635556 320.284444c0-0.568889-0.568889-1.024-0.853334-1.536a29.411556 29.411556 0 0 1-2.275555-22.926222 30.151111 30.151111 0 0 1 15.132444-17.692444 34.417778 34.417778 0 0 1 45.112889 11.207111l112.469333 185.912889h5.518223l112.469333-185.912889a34.360889 34.360889 0 0 1 46.648889-10.353778c6.997333 4.096 12.060444 10.808889 14.051555 18.545778a29.582222 29.582222 0 0 1-3.413333 22.755555L525.027556 475.363556h85.560888a31.857778 31.857778 0 0 1 28.615112 15.018666 30.321778 30.321778 0 0 1 0 31.744 31.857778 31.857778 0 0 1-28.615112 15.018667H476.728889v39.139555h134.030222a31.744 31.744 0 0 1 28.558222 14.961778 30.264889 30.264889 0 0 1 0 31.687111 31.744 31.744 0 0 1-28.558222 14.961778v0.056889z m275.797334 267.946667c0 21.617778-17.92 39.082667-40.049778 39.082666h-40.049778V78.677333h40.049778c22.129778 0 40.049778 17.521778 40.049778 39.139556v787.968z"  /></svg>