<svg class="icon"  viewBox="0 0 1024 1024" version="1.1" xmlns="http://www.w3.org/2000/svg"><path d="M51.2 0h921.6c34.144 0 51.2 17.056 51.2 51.2v921.6c0 34.144-17.056 51.2-51.2 51.2H51.2C17.056 1024 0 1006.944 0 972.8V51.2C0 17.056 17.056 0 51.2 0z"  /><path d="M1024 928v48c0 26.496-22.912 48-51.2 48H51.2C22.912 1024 0 1002.496 0 976V928c0 26.496 22.912 48 51.2 48h921.6c28.288 0 51.2-21.504 51.2-48z"  /><path d="M1024 448v460.8a51.2 51.2 0 0 1-51.2 51.2H51.2A51.2 51.2 0 0 1 0 908.8V448h1024z"  /><path d="M401.92 0h92.16c11.936 0 17.92 3.744 17.92 11.2v9.6c0 7.456-5.984 11.2-17.92 11.2h-92.16C389.984 32 384 28.256 384 20.8v-9.6c0-7.456 5.984-11.2 17.92-11.2zM529.92 64h92.16c11.936 0 17.92 3.744 17.92 11.2v9.6c0 7.456-5.984 11.2-17.92 11.2h-92.16c-11.936 0-17.92-3.744-17.92-11.2v-9.6c0-7.456 5.984-11.2 17.92-11.2zM401.92 96h92.16c11.936 0 17.92 3.744 17.92 11.2v9.6c0 7.456-5.984 11.2-17.92 11.2h-92.16c-11.936 0-17.92-3.744-17.92-11.2v-9.6c0-7.456 5.984-11.2 17.92-11.2zM529.92 160h92.16c11.936 0 17.92 3.744 17.92 11.2v9.6c0 7.456-5.984 11.2-17.92 11.2h-92.16c-11.936 0-17.92-3.744-17.92-11.2v-9.6c0-7.456 5.984-11.2 17.92-11.2zM401.92 224h92.16c11.936 0 17.92 3.744 17.92 11.2v9.6c0 7.456-5.984 11.2-17.92 11.2h-92.16c-11.936 0-17.92-3.744-17.92-11.2v-9.6c0-7.456 5.984-11.2 17.92-11.2zM529.92 256h92.16c11.936 0 17.92 3.744 17.92 11.2v9.6c0 7.456-5.984 11.2-17.92 11.2h-92.16c-11.936 0-17.92-3.744-17.92-11.2v-9.6c0-7.456 5.984-11.2 17.92-11.2zM529.92 352h92.16c11.936 0 17.92 3.744 17.92 11.2v9.6c0 7.456-5.984 11.2-17.92 11.2h-92.16c-11.936 0-17.92-3.744-17.92-11.2v-9.6c0-7.456 5.984-11.2 17.92-11.2zM401.92 416h92.16c11.936 0 17.92 3.744 17.92 11.2v9.6c0 7.456-5.984 11.2-17.92 11.2h-92.16c-11.936 0-17.92-3.744-17.92-11.2v-9.6c0-7.456 5.984-11.2 17.92-11.2zM401.92 320h92.16c11.936 0 17.92 3.744 17.92 11.2v9.6c0 7.456-5.984 11.2-17.92 11.2h-92.16c-11.936 0-17.92-3.744-17.92-11.2v-9.6c0-7.456 5.984-11.2 17.92-11.2z"  /><path d="M453.12 799.04H288v-25.376l114.624-134.528H297.472V608h157.728v22.016l-118.304 137.44h116.192v31.584z m76.736 0.96h-36.288v-191.52h36.288V800z m48.384-191.52h93.568a66.752 66.752 0 0 1 46.272 15.808c12.032 10.848 18.496 25.76 17.888 41.184 0.64 15.296-5.632 30.176-17.376 41.152a68.512 68.512 0 0 1-47.84 15.808h-56.768v76.608h-36.288l0.544-190.56z m36.256 82.368h48.384a49.92 49.92 0 0 0 28.384-6.24 22.816 22.816 0 0 0 8.416-20.096c0-16.64-12.096-24.896-36.288-24.896h-49.408l0.512 51.2z"  /></svg>