<svg class="icon"  viewBox="0 0 1024 1024" version="1.1" xmlns="http://www.w3.org/2000/svg"><path d="M970.1376 645.7344a37.888 37.888 0 0 0-48.9472 21.8624c-64.256 167.8848-228.352 280.7296-408.3712 280.7296-240.9984 0-436.992-195.7376-436.992-436.3264 0-240.64 195.9936-436.3264 436.992-436.3264 226.304 0 417.6384 176.1792 435.5584 401.152l0.4608 6.4c3.9936 21.0432 17.2032 31.5904 39.5776 31.5904 22.4256 0 34.304-14.6432 35.584-44.032C1002.8544 206.848 778.3424 0 512.8192 0 230.0416 0 0 229.6832 0 512s230.0416 512 512.8192 512c211.3024 0 403.8144-132.352 479.1296-329.3184a37.7344 37.7344 0 0 0-21.8112-48.9472z" fill="#030732" /><path d="M457.8304 249.9072a51.2 51.2 0 0 1 51.2 51.2v229.4784l156.5696 0.0512a51.2 51.2 0 0 1 50.8416 45.2608l0.3584 5.9392a51.2 51.2 0 0 1-51.2 51.2H457.8304a51.2 51.2 0 0 1-51.2-51.2V301.1072a51.2 51.2 0 0 1 51.2-51.2z" fill="#9A9CAD" /></svg>