<svg class="icon"  viewBox="0 0 1024 1024" version="1.1" xmlns="http://www.w3.org/2000/svg"><path d="M512.021049 56.888889c109.966222 4.494222 195.754667 99.783111 191.943111 213.162667a225.564444 225.564444 0 0 1-21.333333 97.621333l155.591111 131.982222a110.364444 110.364444 0 0 1 67.754666-24.177778c67.925333 2.844444 120.775111 61.952 118.044445 131.982223 1.422222 33.678222-10.24 66.56-32.426667 91.306666a121.173333 121.173333 0 0 1-85.617778 40.675556 121.173333 121.173333 0 0 1-85.617777-40.675556 128.967111 128.967111 0 0 1-32.426667-91.306666 140.572444 140.572444 0 0 1 7.68-46.592l-155.648-132.096c-25.6 25.770667-58.026667 43.292444-93.184 50.403555v204.572445c72.704 20.878222 122.368 90.055111 120.604444 167.879111 3.128889 91.818667-66.389333 168.903111-155.306666 172.373333-88.917333-3.584-158.321778-80.611556-155.192889-172.373333-1.991111-77.653333 47.445333-146.887111 119.978667-167.879111V479.175111a183.751111 183.751111 0 0 1-92.728889-50.403555l-155.192889 131.982222c5.176889 14.904889 7.793778 30.72 7.68 46.592 1.422222 33.621333-10.24 66.503111-32.426667 91.249778a121.173333 121.173333 0 0 1-85.617778 40.675555 121.173333 121.173333 0 0 1-85.845333-40.561778 128.967111 128.967111 0 0 1-32.483556-91.477333c-2.730667-69.973333 50.119111-129.137778 118.044445-131.982222 24.519111 0.227556 48.355556 8.760889 67.697778 24.177778l155.192889-131.982223a225.564444 225.564444 0 0 1-21.048889-97.393777C316.323271 156.672 402.054827 61.44 512.021049 56.888889z" fill="#030732" /></svg>